<?xml version="1.0" encoding="UTF-8"?>
<!--Generator: Apple Native CoreSVG 123-->
<!DOCTYPE svg
PUBLIC "-//W3C//DTD SVG 1.1//EN"
       "http://www.w3.org/Graphics/SVG/1.1/DTD/svg11.dtd">
<svg version="1.1" xmlns="http://www.w3.org/2000/svg" xmlns:xlink="http://www.w3.org/1999/xlink" width="3300" height="2200">
 <!--glyph: "uni1003A4.medium", point size: 100.000000, font version: "Version 15.0d5e5", template writer version: "5"-->
 <g id="Notes">
  <rect height="2200" id="artboard" style="fill:white;opacity:1" width="3300" x="0" y="0"/>
  <line id="" style="fill:none;stroke:black;opacity:1;stroke-width:0.5;" x1="263" x2="3036" y1="292" y2="292"/>
  <text style="stroke:none;fill:black;font-family:-apple-system,&quot;SF Pro Display&quot;,&quot;SF Pro Text&quot;,Helvetica,sans-serif;font-weight:bold;" transform="matrix(1 0 0 1 263 322)">Weight/Scale Variations</text>
  <text style="stroke:none;fill:black;font-family:-apple-system,&quot;SF Pro Display&quot;,&quot;SF Pro Text&quot;,Helvetica,sans-serif;text-anchor:middle;" transform="matrix(1 0 0 1 559.711 322)">Ultralight</text>
  <text style="stroke:none;fill:black;font-family:-apple-system,&quot;SF Pro Display&quot;,&quot;SF Pro Text&quot;,Helvetica,sans-serif;text-anchor:middle;" transform="matrix(1 0 0 1 856.422 322)">Thin</text>
  <text style="stroke:none;fill:black;font-family:-apple-system,&quot;SF Pro Display&quot;,&quot;SF Pro Text&quot;,Helvetica,sans-serif;text-anchor:middle;" transform="matrix(1 0 0 1 1153.13 322)">Light</text>
  <text style="stroke:none;fill:black;font-family:-apple-system,&quot;SF Pro Display&quot;,&quot;SF Pro Text&quot;,Helvetica,sans-serif;text-anchor:middle;" transform="matrix(1 0 0 1 1449.84 322)">Regular</text>
  <text style="stroke:none;fill:black;font-family:-apple-system,&quot;SF Pro Display&quot;,&quot;SF Pro Text&quot;,Helvetica,sans-serif;text-anchor:middle;" transform="matrix(1 0 0 1 1746.56 322)">Medium</text>
  <text style="stroke:none;fill:black;font-family:-apple-system,&quot;SF Pro Display&quot;,&quot;SF Pro Text&quot;,Helvetica,sans-serif;text-anchor:middle;" transform="matrix(1 0 0 1 2043.27 322)">Semibold</text>
  <text style="stroke:none;fill:black;font-family:-apple-system,&quot;SF Pro Display&quot;,&quot;SF Pro Text&quot;,Helvetica,sans-serif;text-anchor:middle;" transform="matrix(1 0 0 1 2339.98 322)">Bold</text>
  <text style="stroke:none;fill:black;font-family:-apple-system,&quot;SF Pro Display&quot;,&quot;SF Pro Text&quot;,Helvetica,sans-serif;text-anchor:middle;" transform="matrix(1 0 0 1 2636.69 322)">Heavy</text>
  <text style="stroke:none;fill:black;font-family:-apple-system,&quot;SF Pro Display&quot;,&quot;SF Pro Text&quot;,Helvetica,sans-serif;text-anchor:middle;" transform="matrix(1 0 0 1 2933.4 322)">Black</text>
  <line id="" style="fill:none;stroke:black;opacity:1;stroke-width:0.5;" x1="263" x2="3036" y1="1903" y2="1903"/>
  <g id="" transform="matrix(1 0 0 1 263 1933)">
   <path d="M 9.24805 0.830078 C 13.5547 0.830078 17.1387 -2.74414 17.1387 -7.05078 C 17.1387 -11.3574 13.5449 -14.9316 9.23828 -14.9316 C 4.94141 -14.9316 1.36719 -11.3574 1.36719 -7.05078 C 1.36719 -2.74414 4.95117 0.830078 9.24805 0.830078 Z M 9.24805 -0.654297 C 5.70312 -0.654297 2.87109 -3.49609 2.87109 -7.05078 C 2.87109 -10.6055 5.69336 -13.4473 9.23828 -13.4473 C 12.793 -13.4473 15.6348 -10.6055 15.6445 -7.05078 C 15.6543 -3.49609 12.8027 -0.654297 9.24805 -0.654297 Z M 9.22852 -3.42773 C 9.69727 -3.42773 9.9707 -3.74023 9.9707 -4.25781 L 9.9707 -6.31836 L 12.1973 -6.31836 C 12.6953 -6.31836 13.0371 -6.57227 13.0371 -7.04102 C 13.0371 -7.51953 12.7148 -7.7832 12.1973 -7.7832 L 9.9707 -7.7832 L 9.9707 -10.0098 C 9.9707 -10.5273 9.69727 -10.8496 9.22852 -10.8496 C 8.75977 -10.8496 8.50586 -10.5078 8.50586 -10.0098 L 8.50586 -7.7832 L 6.29883 -7.7832 C 5.78125 -7.7832 5.44922 -7.51953 5.44922 -7.04102 C 5.44922 -6.57227 5.80078 -6.31836 6.29883 -6.31836 L 8.50586 -6.31836 L 8.50586 -4.25781 C 8.50586 -3.75977 8.75977 -3.42773 9.22852 -3.42773 Z"/>
  </g>
  <g id="" transform="matrix(1 0 0 1 281.506 1933)">
   <path d="M 11.709 2.91016 C 17.1484 2.91016 21.6699 -1.60156 21.6699 -7.05078 C 21.6699 -12.4902 17.1387 -17.0117 11.6992 -17.0117 C 6.25 -17.0117 1.74805 -12.4902 1.74805 -7.05078 C 1.74805 -1.60156 6.25977 2.91016 11.709 2.91016 Z M 11.709 1.25 C 7.09961 1.25 3.41797 -2.44141 3.41797 -7.05078 C 3.41797 -11.6504 7.08984 -15.3516 11.6992 -15.3516 C 16.2988 -15.3516 20 -11.6504 20.0098 -7.05078 C 20.0195 -2.44141 16.3086 1.25 11.709 1.25 Z M 11.6797 -2.41211 C 12.207 -2.41211 12.5195 -2.77344 12.5195 -3.33984 L 12.5195 -6.23047 L 15.5762 -6.23047 C 16.123 -6.23047 16.5039 -6.51367 16.5039 -7.03125 C 16.5039 -7.55859 16.1426 -7.86133 15.5762 -7.86133 L 12.5195 -7.86133 L 12.5195 -10.9277 C 12.5195 -11.5039 12.207 -11.8555 11.6797 -11.8555 C 11.1621 -11.8555 10.8789 -11.4844 10.8789 -10.9277 L 10.8789 -7.86133 L 7.83203 -7.86133 C 7.25586 -7.86133 6.89453 -7.55859 6.89453 -7.03125 C 6.89453 -6.51367 7.28516 -6.23047 7.83203 -6.23047 L 10.8789 -6.23047 L 10.8789 -3.33984 C 10.8789 -2.79297 11.1621 -2.41211 11.6797 -2.41211 Z"/>
  </g>
  <g id="" transform="matrix(1 0 0 1 304.914 1933)">
   <path d="M 14.9707 5.67383 C 21.9336 5.67383 27.6855 -0.078125 27.6855 -7.04102 C 27.6855 -14.0039 21.9238 -19.7559 14.9609 -19.7559 C 7.99805 -19.7559 2.25586 -14.0039 2.25586 -7.04102 C 2.25586 -0.078125 8.00781 5.67383 14.9707 5.67383 Z M 14.9707 3.85742 C 8.92578 3.85742 4.08203 -1.00586 4.08203 -7.04102 C 4.08203 -13.0762 8.91602 -17.9395 14.9609 -17.9395 C 20.9961 -17.9395 25.8594 -13.0762 25.8691 -7.04102 C 25.8789 -1.00586 21.0059 3.85742 14.9707 3.85742 Z M 14.9414 -1.06445 C 15.5176 -1.06445 15.8594 -1.45508 15.8594 -2.06055 L 15.8594 -6.13281 L 20.0977 -6.13281 C 20.6934 -6.13281 21.1133 -6.46484 21.1133 -7.02148 C 21.1133 -7.59766 20.7227 -7.93945 20.0977 -7.93945 L 15.8594 -7.93945 L 15.8594 -12.1875 C 15.8594 -12.8027 15.5176 -13.1934 14.9414 -13.1934 C 14.3848 -13.1934 14.0625 -12.7832 14.0625 -12.1875 L 14.0625 -7.93945 L 9.82422 -7.93945 C 9.20898 -7.93945 8.80859 -7.59766 8.80859 -7.02148 C 8.80859 -6.46484 9.23828 -6.13281 9.82422 -6.13281 L 14.0625 -6.13281 L 14.0625 -2.06055 C 14.0625 -1.47461 14.3848 -1.06445 14.9414 -1.06445 Z"/>
  </g>
  <text style="stroke:none;fill:black;font-family:-apple-system,&quot;SF Pro Display&quot;,&quot;SF Pro Text&quot;,Helvetica,sans-serif;font-weight:bold;" transform="matrix(1 0 0 1 263 1953)">Design Variations</text>
  <text style="stroke:none;fill:black;font-family:-apple-system,&quot;SF Pro Display&quot;,&quot;SF Pro Text&quot;,Helvetica,sans-serif;" transform="matrix(1 0 0 1 263 1971)">Symbols are supported in up to nine weights and three scales.</text>
  <text style="stroke:none;fill:black;font-family:-apple-system,&quot;SF Pro Display&quot;,&quot;SF Pro Text&quot;,Helvetica,sans-serif;" transform="matrix(1 0 0 1 263 1989)">For optimal layout with text and other symbols, vertically align</text>
  <text style="stroke:none;fill:black;font-family:-apple-system,&quot;SF Pro Display&quot;,&quot;SF Pro Text&quot;,Helvetica,sans-serif;" transform="matrix(1 0 0 1 263 2007)">symbols with the adjacent text.</text>
  <rect height="14" id="" style="fill:#00AEEF;stroke:none;opacity:0.4;" width="3" x="776" y="1919"/>
  <g id="" transform="matrix(1 0 0 1 779 1933)">
   <path d="M 10.5273 0 L 12.373 0 L 7.17773 -14.0918 L 5.43945 -14.0918 L 0.244141 0 L 2.08984 0 L 3.50586 -4.0332 L 9.11133 -4.0332 Z M 6.2793 -11.9531 L 6.33789 -11.9531 L 8.59375 -5.52734 L 4.02344 -5.52734 Z"/>
  </g>
  <rect height="14" id="" style="fill:#00AEEF;stroke:none;opacity:0.4;" width="3" x="791.617" y="1919"/>
  <text style="stroke:none;fill:black;font-family:-apple-system,&quot;SF Pro Display&quot;,&quot;SF Pro Text&quot;,Helvetica,sans-serif;font-weight:bold;" transform="matrix(1 0 0 1 776 1953)">Margins</text>
  <text style="stroke:none;fill:black;font-family:-apple-system,&quot;SF Pro Display&quot;,&quot;SF Pro Text&quot;,Helvetica,sans-serif;" transform="matrix(1 0 0 1 776 1971)">Leading and trailing margins on the left and right side of each symbol</text>
  <text style="stroke:none;fill:black;font-family:-apple-system,&quot;SF Pro Display&quot;,&quot;SF Pro Text&quot;,Helvetica,sans-serif;" transform="matrix(1 0 0 1 776 1989)">can be adjusted by modifying the width of the blue rectangles.</text>
  <text style="stroke:none;fill:black;font-family:-apple-system,&quot;SF Pro Display&quot;,&quot;SF Pro Text&quot;,Helvetica,sans-serif;" transform="matrix(1 0 0 1 776 2007)">Modifications are automatically applied proportionally to all</text>
  <text style="stroke:none;fill:black;font-family:-apple-system,&quot;SF Pro Display&quot;,&quot;SF Pro Text&quot;,Helvetica,sans-serif;" transform="matrix(1 0 0 1 776 2025)">scales and weights.</text>
  <g id="" transform="matrix(1 0 0 1 1289 1933)">
   <path d="M 2.83203 3.61328 L 4.375 5.15625 C 5.22461 5.98633 6.19141 5.91797 7.05078 4.9707 L 17.2754 -6.16211 C 17.6953 -5.86914 18.0859 -5.87891 18.5645 -5.97656 L 19.6094 -6.19141 L 20.3027 -5.49805 L 20.2539 -4.98047 C 20.1855 -4.44336 20.3418 -4.0332 20.8398 -3.53516 L 21.6602 -2.72461 C 22.1582 -2.2168 22.8223 -2.1875 23.3008 -2.66602 L 26.5527 -5.91797 C 27.0312 -6.39648 27.002 -7.05078 26.5039 -7.55859 L 25.6836 -8.37891 C 25.1855 -8.87695 24.7656 -9.05273 24.2383 -8.97461 L 23.7109 -8.91602 L 23.0469 -9.58008 L 23.3398 -10.7227 C 23.4766 -11.2891 23.3301 -11.748 22.7148 -12.3535 L 20.3027 -14.7559 C 16.7578 -18.2812 12.2168 -18.1738 9.11133 -15.0391 C 8.68164 -14.6094 8.64258 -14.0234 8.91602 -13.5938 C 9.14062 -13.2227 9.61914 -12.998 10.2734 -13.1641 C 11.7871 -13.5449 13.3008 -13.4277 14.7852 -12.4219 L 14.1602 -10.8398 C 13.9258 -10.2539 13.9453 -9.77539 14.1797 -9.33594 L 3.01758 0.9375 C 2.08008 1.80664 1.97266 2.75391 2.83203 3.61328 Z M 10.6641 -14.6484 C 13.3301 -16.6406 16.6504 -16.3184 19.0527 -13.916 L 21.6797 -11.3086 C 21.9141 -11.0742 21.9434 -10.8887 21.875 -10.5957 L 21.5039 -9.0332 L 23.0762 -7.46094 L 24.0332 -7.54883 C 24.3164 -7.57812 24.4043 -7.55859 24.6387 -7.33398 L 25.2539 -6.70898 L 22.5098 -3.95508 L 21.8848 -4.58008 C 21.6602 -4.80469 21.6406 -4.89258 21.6699 -5.17578 L 21.7578 -6.14258 L 20.1953 -7.70508 L 18.5742 -7.39258 C 18.291 -7.33398 18.1445 -7.33398 17.9004 -7.57812 L 15.7324 -9.75586 C 15.498 -9.99023 15.4688 -10.127 15.5957 -10.4395 L 16.5527 -12.7246 C 14.9512 -14.2578 12.832 -15.1074 10.791 -14.4531 C 10.7031 -14.4238 10.6445 -14.4434 10.6152 -14.4824 C 10.5859 -14.5312 10.5859 -14.5801 10.6641 -14.6484 Z M 4.10156 2.91016 C 3.60352 2.41211 3.7793 2.10938 4.11133 1.80664 L 15.0781 -8.31055 L 16.2988 -7.08008 L 6.15234 3.84766 C 5.84961 4.17969 5.46875 4.27734 5.05859 3.87695 Z"/>
  </g>
  <text style="stroke:none;fill:black;font-family:-apple-system,&quot;SF Pro Display&quot;,&quot;SF Pro Text&quot;,Helvetica,sans-serif;font-weight:bold;" transform="matrix(1 0 0 1 1289 1953)">Exporting</text>
  <text style="stroke:none;fill:black;font-family:-apple-system,&quot;SF Pro Display&quot;,&quot;SF Pro Text&quot;,Helvetica,sans-serif;" transform="matrix(1 0 0 1 1289 1971)">Symbols should be outlined when exporting to ensure the</text>
  <text style="stroke:none;fill:black;font-family:-apple-system,&quot;SF Pro Display&quot;,&quot;SF Pro Text&quot;,Helvetica,sans-serif;" transform="matrix(1 0 0 1 1289 1989)">design is preserved when submitting to Xcode.</text>
  <text id="template-version" style="stroke:none;fill:black;font-family:-apple-system,&quot;SF Pro Display&quot;,&quot;SF Pro Text&quot;,Helvetica,sans-serif;text-anchor:end;" transform="matrix(1 0 0 1 3036 1933)">Template v.1.0</text>
  <text style="stroke:none;fill:black;font-family:-apple-system,&quot;SF Pro Display&quot;,&quot;SF Pro Text&quot;,Helvetica,sans-serif;text-anchor:end;" transform="matrix(1 0 0 1 3036 1951)">Generated from lock.open</text>
  <text style="stroke:none;fill:black;font-family:-apple-system,&quot;SF Pro Display&quot;,&quot;SF Pro Text&quot;,Helvetica,sans-serif;text-anchor:end;" transform="matrix(1 0 0 1 3036 1969)">Typeset at 100 points</text>
  <text style="stroke:none;fill:black;font-family:-apple-system,&quot;SF Pro Display&quot;,&quot;SF Pro Text&quot;,Helvetica,sans-serif;" transform="matrix(1 0 0 1 263 726)">Small</text>
  <text style="stroke:none;fill:black;font-family:-apple-system,&quot;SF Pro Display&quot;,&quot;SF Pro Text&quot;,Helvetica,sans-serif;" transform="matrix(1 0 0 1 263 1156)">Medium</text>
  <text style="stroke:none;fill:black;font-family:-apple-system,&quot;SF Pro Display&quot;,&quot;SF Pro Text&quot;,Helvetica,sans-serif;" transform="matrix(1 0 0 1 263 1586)">Large</text>
 </g>
 <g id="Guides">
  <g id="H-reference" style="fill:#27AAE1;stroke:none;" transform="matrix(1 0 0 1 339 696)">
   <path d="M 54.9316 0 L 57.666 0 L 30.5664 -70.459 L 28.0762 -70.459 L 0.976562 0 L 3.66211 0 L 12.9395 -24.4629 L 45.7031 -24.4629 Z M 29.1992 -67.0898 L 29.4434 -67.0898 L 44.8242 -26.709 L 13.8184 -26.709 Z"/>
  </g>
  <line id="Baseline-S" style="fill:none;stroke:#27AAE1;opacity:1;stroke-width:0.577;" x1="263" x2="3036" y1="696" y2="696"/>
  <line id="Capline-S" style="fill:none;stroke:#27AAE1;opacity:1;stroke-width:0.577;" x1="263" x2="3036" y1="625.541" y2="625.541"/>
  <g id="H-reference" style="fill:#27AAE1;stroke:none;" transform="matrix(1 0 0 1 339 1126)">
   <path d="M 54.9316 0 L 57.666 0 L 30.5664 -70.459 L 28.0762 -70.459 L 0.976562 0 L 3.66211 0 L 12.9395 -24.4629 L 45.7031 -24.4629 Z M 29.1992 -67.0898 L 29.4434 -67.0898 L 44.8242 -26.709 L 13.8184 -26.709 Z"/>
  </g>
  <line id="Baseline-M" style="fill:none;stroke:#27AAE1;opacity:1;stroke-width:0.577;" x1="263" x2="3036" y1="1126" y2="1126"/>
  <line id="Capline-M" style="fill:none;stroke:#27AAE1;opacity:1;stroke-width:0.577;" x1="263" x2="3036" y1="1055.54" y2="1055.54"/>
  <g id="H-reference" style="fill:#27AAE1;stroke:none;" transform="matrix(1 0 0 1 339 1556)">
   <path d="M 54.9316 0 L 57.666 0 L 30.5664 -70.459 L 28.0762 -70.459 L 0.976562 0 L 3.66211 0 L 12.9395 -24.4629 L 45.7031 -24.4629 Z M 29.1992 -67.0898 L 29.4434 -67.0898 L 44.8242 -26.709 L 13.8184 -26.709 Z"/>
  </g>
  <line id="Baseline-L" style="fill:none;stroke:#27AAE1;opacity:1;stroke-width:0.577;" x1="263" x2="3036" y1="1556" y2="1556"/>
  <line id="Capline-L" style="fill:none;stroke:#27AAE1;opacity:1;stroke-width:0.577;" x1="263" x2="3036" y1="1485.54" y2="1485.54"/>
  <rect height="119.336" id="left-margin" style="fill:#00AEEF;stroke:none;opacity:0.4;" width="12.4512" x="1385.64" y="1030.79"/>
  <rect height="119.336" id="right-margin" style="fill:#00AEEF;stroke:none;opacity:0.4;" width="9.96094" x="1504.09" y="1030.79"/>
 </g>
 <g id="Symbols">
  <g id="Black-L" transform="matrix(1 0 0 1 2847.56 1556)">
   <path d="M 119.873 -116.797 C 100.391 -116.797 80.957 -103.564 80.957 -74.1211 L 80.957 -54.8828 L 32.1777 -54.8828 C 21.3867 -54.8828 16.0645 -49.5117 16.0645 -37.8906 L 16.0645 11.4746 C 16.0645 23.2422 21.3867 28.6133 32.1777 28.6133 L 97.6562 28.6133 C 108.398 28.6133 113.721 23.2422 113.721 11.4746 L 113.721 -37.8906 C 113.721 -48.3398 109.424 -53.7598 100.732 -54.7363 L 100.732 -76.709 C 100.732 -90.7715 109.912 -97.6562 119.873 -97.6562 C 129.883 -97.6562 139.062 -90.7715 139.062 -76.709 L 139.062 -67.7246 C 139.062 -60.2539 143.262 -56.25 148.926 -56.25 C 154.59 -56.25 158.838 -60.2051 158.838 -67.6758 L 158.838 -74.1211 C 158.838 -103.564 139.404 -116.797 119.873 -116.797 Z M 90.8691 -37.207 C 93.0176 -37.207 94.0918 -36.1816 94.0918 -33.6914 L 94.0918 7.32422 C 94.0918 9.81445 93.0176 10.9375 90.8691 10.9375 L 39.0137 10.9375 C 36.8652 10.9375 35.7422 9.81445 35.7422 7.32422 L 35.7422 -33.6914 C 35.7422 -36.1816 36.8652 -37.207 39.0137 -37.207 Z"/>
  </g>
  <g id="Heavy-L" transform="matrix(1 0 0 1 2551.56 1556)">
   <path d="M 119.58 -115.186 C 100.488 -115.186 81.7383 -102.148 81.7383 -73.7305 L 81.7383 -54.4434 L 31.543 -54.4434 C 21.1426 -54.4434 16.0645 -49.3164 16.0645 -38.1348 L 16.0645 10.791 C 16.0645 22.1191 21.1426 27.2461 31.543 27.2461 L 96.1914 27.2461 C 106.592 27.2461 111.67 22.1191 111.67 10.791 L 111.67 -38.1348 C 111.67 -48.291 107.471 -53.4668 98.877 -54.3457 L 98.877 -75.9277 C 98.877 -90.9668 108.691 -98.6328 119.58 -98.6328 C 130.469 -98.6328 140.283 -90.9668 140.283 -75.9277 L 140.283 -65.5273 C 140.283 -58.9355 143.945 -55.5176 148.877 -55.5176 C 153.711 -55.5176 157.422 -58.8867 157.422 -65.4297 L 157.422 -73.7305 C 157.422 -102.148 138.623 -115.186 119.58 -115.186 Z M 90.918 -39.0137 C 93.4082 -39.0137 94.5801 -37.8906 94.5801 -34.9609 L 94.5801 7.71484 C 94.5801 10.6445 93.4082 11.8164 90.918 11.8164 L 36.8652 11.8164 C 34.4238 11.8164 33.1543 10.6445 33.1543 7.71484 L 33.1543 -34.9609 C 33.1543 -37.8906 34.4238 -39.0137 36.8652 -39.0137 Z"/>
  </g>
  <g id="Bold-L" transform="matrix(1 0 0 1 2255.63 1556)">
   <path d="M 119.238 -113.379 C 100.635 -113.379 82.6172 -100.586 82.6172 -73.2422 L 82.6172 -53.9551 L 30.8594 -53.9551 C 20.8984 -53.9551 16.0645 -49.1211 16.0645 -38.3789 L 16.0645 10.0098 C 16.0645 20.8496 20.8984 25.7324 30.8594 25.7324 L 94.5801 25.7324 C 104.492 25.7324 109.326 20.8496 109.326 10.0098 L 109.326 -38.3789 C 109.326 -48.2422 105.225 -53.1738 96.8262 -53.8574 L 96.8262 -75.0488 C 96.8262 -91.2109 107.324 -99.6582 119.238 -99.6582 C 131.152 -99.6582 141.602 -91.2109 141.602 -75.0488 L 141.602 -63.0859 C 141.602 -57.4707 144.727 -54.6875 148.779 -54.6875 C 152.734 -54.6875 155.859 -57.373 155.859 -62.9883 L 155.859 -73.2422 C 155.859 -100.586 137.793 -113.379 119.238 -113.379 Z M 91.0156 -41.0645 C 93.8477 -41.0645 95.166 -39.8438 95.166 -36.4258 L 95.166 8.1543 C 95.166 11.5234 93.8477 12.8418 91.0156 12.8418 L 34.4727 12.8418 C 31.6406 12.8418 30.2246 11.5234 30.2246 8.1543 L 30.2246 -36.4258 C 30.2246 -39.8438 31.6406 -41.0645 34.4727 -41.0645 Z"/>
  </g>
  <g id="Semibold-L" transform="matrix(1 0 0 1 1959.45 1556)">
   <path d="M 118.994 -112.109 C 100.732 -112.109 83.2031 -99.5117 83.2031 -72.9492 L 83.2031 -53.6133 L 30.3711 -53.6133 C 20.7031 -53.6133 16.0645 -48.9746 16.0645 -38.5254 L 16.0645 9.52148 C 16.0645 20.0195 20.7031 24.6582 30.3711 24.6582 L 93.457 24.6582 C 103.076 24.6582 107.715 20.0195 107.715 9.52148 L 107.715 -38.5254 C 107.715 -48.2422 103.711 -52.9297 95.4102 -53.5645 L 95.4102 -74.4629 C 95.4102 -91.4062 106.348 -100.391 118.994 -100.391 C 131.592 -100.391 142.578 -91.4062 142.578 -74.4629 L 142.578 -61.377 C 142.578 -56.4941 145.215 -54.1504 148.682 -54.1504 C 152.1 -54.1504 154.736 -56.3477 154.736 -61.2793 L 154.736 -72.9492 C 154.736 -99.5117 137.256 -112.109 118.994 -112.109 Z M 91.0645 -42.4805 C 94.1406 -42.4805 95.5566 -41.1621 95.5566 -37.4512 L 95.5566 8.44727 C 95.5566 12.1582 94.1406 13.5254 91.0645 13.5254 L 32.8125 13.5254 C 29.7363 13.5254 28.2227 12.1582 28.2227 8.44727 L 28.2227 -37.4512 C 28.2227 -41.1621 29.7363 -42.4805 32.8125 -42.4805 Z"/>
  </g>
  <g id="Medium-L" transform="matrix(1 0 0 1 1663.16 1556)">
   <path d="M 118.799 -111.182 C 100.781 -111.182 83.6426 -98.6816 83.6426 -72.7051 L 83.6426 -53.3691 L 29.9805 -53.3691 C 20.5566 -53.3691 16.0645 -48.8281 16.0645 -38.6719 L 16.0645 9.08203 C 16.0645 19.3359 20.5566 23.8281 29.9805 23.8281 L 92.627 23.8281 C 102.002 23.8281 106.494 19.3359 106.494 9.08203 L 106.494 -38.6719 C 106.494 -48.1934 102.539 -52.7832 94.2871 -53.3203 L 94.2871 -73.9746 C 94.2871 -91.5039 105.664 -100.977 118.799 -100.977 C 131.934 -100.977 143.262 -91.5039 143.262 -73.9746 L 143.262 -60.1074 C 143.262 -55.7129 145.654 -53.7109 148.633 -53.7109 C 151.562 -53.7109 153.955 -55.5664 153.955 -59.9609 L 153.955 -72.7051 C 153.955 -98.6816 136.816 -111.182 118.799 -111.182 Z M 91.0645 -43.5059 C 94.3359 -43.5059 95.8984 -42.1875 95.8984 -38.2324 L 95.8984 8.64258 C 95.8984 12.5977 94.3359 14.0137 91.0645 14.0137 L 31.543 14.0137 C 28.3203 14.0137 26.709 12.5977 26.709 8.64258 L 26.709 -38.2324 C 26.709 -42.1875 28.3203 -43.5059 31.543 -43.5059 Z"/>
  </g>
  <g id="Regular-L" transform="matrix(1 0 0 1 1366.98 1556)">
   <path d="M 118.555 -109.912 C 100.83 -109.912 84.2285 -97.6562 84.2285 -72.3633 L 84.2285 -53.0273 L 29.4922 -53.0273 C 20.4102 -53.0273 16.0645 -48.6816 16.0645 -38.8184 L 16.0645 8.59375 C 16.0645 18.5059 20.4102 22.8027 29.4922 22.8027 L 91.5039 22.8027 C 100.635 22.8027 104.932 18.5059 104.932 8.59375 L 104.932 -38.8184 C 104.932 -48.1934 101.074 -52.5391 92.8711 -52.9785 L 92.8711 -73.3887 C 92.8711 -91.6992 104.688 -101.709 118.555 -101.709 C 132.373 -101.709 144.189 -91.6992 144.189 -73.3887 L 144.189 -58.4473 C 144.189 -54.6875 146.143 -53.125 148.584 -53.125 C 150.928 -53.125 152.881 -54.541 152.881 -58.3008 L 152.881 -72.3633 C 152.881 -97.6562 136.23 -109.912 118.555 -109.912 Z M 91.1133 -44.9219 C 94.6289 -44.9219 96.2891 -43.5059 96.2891 -39.209 L 96.2891 8.93555 C 96.2891 13.2324 94.6289 14.6973 91.1133 14.6973 L 29.9316 14.6973 C 26.416 14.6973 24.7559 13.2324 24.7559 8.93555 L 24.7559 -39.209 C 24.7559 -43.5059 26.416 -44.9219 29.9316 -44.9219 Z"/>
  </g>
  <g id="Light-L" transform="matrix(1 0 0 1 1070.25 1556)">
   <path d="M 119.434 -108.887 C 101.807 -108.887 85.9375 -96.4844 85.9375 -72.3145 L 85.9375 -52.4902 L 28.7109 -52.4902 C 20.0684 -52.4902 16.0645 -48.6328 16.0645 -39.209 L 16.0645 9.42383 C 16.0645 18.8965 20.0684 22.8027 28.7109 22.8027 L 91.8457 22.8027 C 100.537 22.8027 104.492 18.8965 104.492 9.42383 L 104.492 -39.209 C 104.492 -48.3398 100.732 -52.2949 92.5781 -52.4902 L 92.5781 -72.8516 C 92.5781 -91.6992 104.688 -102.588 119.434 -102.588 C 134.131 -102.588 146.289 -91.6992 146.289 -72.8516 L 146.289 -57.2754 C 146.289 -54.5898 147.803 -53.418 149.609 -53.418 C 151.367 -53.418 152.881 -54.4922 152.881 -57.1777 L 152.881 -72.3145 C 152.881 -96.4844 137.012 -108.887 119.434 -108.887 Z M 91.6016 -46.2891 C 95.8984 -46.2891 97.8516 -44.6777 97.8516 -39.3066 L 97.8516 9.57031 C 97.8516 14.8926 95.8984 16.6016 91.6016 16.6016 L 29.0039 16.6016 C 24.707 16.6016 22.7051 14.8926 22.7051 9.57031 L 22.7051 -39.3066 C 22.7051 -44.6777 24.707 -46.2891 29.0039 -46.2891 Z"/>
  </g>
  <g id="Thin-L" transform="matrix(1 0 0 1 773.512 1556)">
   <path d="M 92.334 -51.8555 L 92.1387 -51.8555 L 92.1387 -72.1191 C 92.1387 -91.6992 104.688 -103.809 120.557 -103.809 C 136.426 -103.809 149.023 -91.6992 149.023 -72.1191 L 149.023 -55.7617 C 149.023 -54.4434 149.951 -53.8086 150.977 -53.8086 C 152.002 -53.8086 152.93 -54.4434 152.93 -55.7617 L 152.93 -72.2168 C 152.93 -95.0195 138.037 -107.52 120.557 -107.52 C 103.076 -107.52 88.1836 -95.0195 88.1836 -72.2168 L 88.1836 -51.8555 L 27.6367 -51.8555 C 19.5801 -51.8555 16.0645 -48.4863 16.0645 -39.6484 L 16.0645 10.5957 C 16.0645 19.4336 19.5801 22.8027 27.6367 22.8027 L 92.334 22.8027 C 100.391 22.8027 103.906 19.4336 103.906 10.5957 L 103.906 -39.6484 C 103.906 -48.4863 100.391 -51.8555 92.334 -51.8555 Z M 92.1875 -48.1445 C 97.5098 -48.1445 99.9512 -46.1914 99.9512 -39.4043 L 99.9512 10.3516 C 99.9512 17.1387 97.5098 19.0918 92.1875 19.0918 L 27.832 19.0918 C 22.4609 19.0918 20.0195 17.1387 20.0195 10.3516 L 20.0195 -39.4043 C 20.0195 -46.1914 22.4609 -48.1445 27.832 -48.1445 Z"/>
  </g>
  <g id="Ultralight-L" transform="matrix(1 0 0 1 476.801 1556)">
   <path d="M 92.627 -51.5137 L 91.8945 -51.5137 L 91.8945 -71.7773 C 91.8945 -91.748 104.688 -104.395 121.143 -104.395 C 137.598 -104.395 150.439 -91.748 150.439 -71.7773 L 150.439 -54.9805 C 150.439 -54.3945 151.074 -54.0039 151.709 -54.0039 C 152.295 -54.0039 152.979 -54.3945 152.979 -55.0293 L 152.979 -72.168 C 152.979 -94.2383 138.574 -106.836 121.143 -106.836 C 103.711 -106.836 89.3555 -94.2383 89.3555 -72.168 L 89.3555 -51.5137 L 27.0996 -51.5137 C 19.3359 -51.5137 16.0645 -48.4375 16.0645 -39.8926 L 16.0645 11.1816 C 16.0645 19.7266 19.3359 22.8027 27.0996 22.8027 L 92.627 22.8027 C 100.342 22.8027 103.613 19.7266 103.613 11.1816 L 103.613 -39.8926 C 103.613 -48.4375 100.342 -51.5137 92.627 -51.5137 Z M 92.4805 -49.0723 C 98.3398 -49.0723 101.025 -46.9727 101.025 -39.502 L 101.025 10.791 C 101.025 18.2617 98.3398 20.3613 92.4805 20.3613 L 27.1973 20.3613 C 21.3379 20.3613 18.6523 18.2617 18.6523 10.791 L 18.6523 -39.502 C 18.6523 -46.9727 21.3379 -49.0723 27.1973 -49.0723 Z"/>
  </g>
  <g id="Black-M" transform="matrix(1 0 0 1 2865.92 1126)">
   <path d="M 93.7988 -100.098 C 78.1738 -100.098 62.6465 -89.4531 62.6465 -65.918 L 62.6465 -50.8301 L 25.3418 -50.8301 C 16.6992 -50.8301 12.4512 -46.4844 12.4512 -37.207 L 12.4512 2.39258 C 12.4512 11.8164 16.6992 16.1133 25.3418 16.1133 L 77.832 16.1133 C 86.4746 16.1133 90.7227 11.8164 90.7227 2.39258 L 90.7227 -37.207 C 90.7227 -45.5078 87.3047 -49.8535 80.4199 -50.6836 L 80.4199 -68.1641 C 80.4199 -77.9785 86.8164 -82.8125 93.7988 -82.8125 C 100.781 -82.8125 107.227 -77.9785 107.227 -68.1641 L 107.227 -62.7441 C 107.227 -56.3477 110.986 -52.6855 116.113 -52.6855 C 121.191 -52.6855 125 -56.3477 125 -62.7441 L 125 -65.918 C 125 -89.4531 109.424 -100.098 93.7988 -100.098 Z M 70.5566 -35.0586 C 72.2656 -35.0586 73.0469 -34.2285 73.0469 -32.3242 L 73.0469 -2.44141 C 73.0469 -0.488281 72.2656 0.390625 70.5566 0.390625 L 32.666 0.390625 C 31.0059 0.390625 30.127 -0.488281 30.127 -2.44141 L 30.127 -32.3242 C 30.127 -34.2285 31.0059 -35.0586 32.666 -35.0586 Z"/>
  </g>
  <g id="Heavy-M" transform="matrix(1 0 0 1 2569.99 1126)">
   <path d="M 93.2129 -98.584 C 78.0273 -98.584 63.0371 -88.2324 63.0371 -65.4785 L 63.0371 -50.4395 L 24.8535 -50.4395 C 16.5527 -50.4395 12.4512 -46.3379 12.4512 -37.3535 L 12.4512 1.41602 C 12.4512 10.498 16.5527 14.5996 24.8535 14.5996 L 76.1719 14.5996 C 84.4727 14.5996 88.5254 10.498 88.5254 1.41602 L 88.5254 -37.3535 C 88.5254 -45.459 85.2051 -49.6094 78.4668 -50.3418 L 78.4668 -67.4316 C 78.4668 -78.2227 85.498 -83.5938 93.2129 -83.5938 C 100.977 -83.5938 108.008 -78.2227 108.008 -67.4316 L 108.008 -60.6445 C 108.008 -54.9316 111.328 -51.8066 115.723 -51.8066 C 120.166 -51.8066 123.438 -54.8828 123.438 -60.6445 L 123.438 -65.4785 C 123.438 -88.2324 108.398 -98.584 93.2129 -98.584 Z M 70.5078 -36.6699 C 72.3633 -36.6699 73.1934 -35.8398 73.1934 -33.7402 L 73.1934 -2.19727 C 73.1934 -0.0488281 72.3633 0.830078 70.5078 0.830078 L 30.5664 0.830078 C 28.7109 0.830078 27.7832 -0.0488281 27.7832 -2.19727 L 27.7832 -33.7402 C 27.7832 -35.8398 28.7109 -36.6699 30.5664 -36.6699 Z"/>
  </g>
  <g id="Bold-M" transform="matrix(1 0 0 1 2274.13 1126)">
   <path d="M 92.5781 -96.875 C 77.8809 -96.875 63.4766 -86.8652 63.4766 -64.9902 L 63.4766 -50.0488 L 24.3164 -50.0488 C 16.3574 -50.0488 12.4512 -46.0938 12.4512 -37.5 L 12.4512 0.292969 C 12.4512 8.98438 16.3574 12.9395 24.3164 12.9395 L 74.2676 12.9395 C 82.2266 12.9395 86.1328 8.98438 86.1328 0.292969 L 86.1328 -37.5 C 86.1328 -45.3613 82.9102 -49.3164 76.2695 -49.9512 L 76.2695 -66.6504 C 76.2695 -78.4668 83.9844 -84.5215 92.5781 -84.5215 C 101.221 -84.5215 108.887 -78.4668 108.887 -66.6504 L 108.887 -58.3008 C 108.887 -53.3691 111.67 -50.8301 115.332 -50.8301 C 118.945 -50.8301 121.729 -53.2715 121.729 -58.252 L 121.729 -64.9902 C 121.729 -86.8652 107.275 -96.875 92.5781 -96.875 Z M 70.459 -38.5254 C 72.4609 -38.5254 73.3887 -37.5977 73.3887 -35.3027 L 73.3887 -1.9043 C 73.3887 0.439453 72.4609 1.36719 70.459 1.36719 L 28.1738 1.36719 C 26.2207 1.36719 25.2441 0.439453 25.2441 -1.9043 L 25.2441 -35.3027 C 25.2441 -37.5977 26.2207 -38.5254 28.1738 -38.5254 Z"/>
  </g>
  <g id="Semibold-M" transform="matrix(1 0 0 1 1978.01 1126)">
   <path d="M 92.1387 -95.752 C 77.7832 -95.752 63.7695 -85.8887 63.7695 -64.6484 L 63.7695 -49.7559 L 23.9746 -49.7559 C 16.2109 -49.7559 12.4512 -45.9473 12.4512 -37.5977 L 12.4512 -0.439453 C 12.4512 7.95898 16.2109 11.7676 23.9746 11.7676 L 72.9492 11.7676 C 80.7129 11.7676 84.4727 7.95898 84.4727 -0.439453 L 84.4727 -37.5977 C 84.4727 -45.2637 81.2988 -49.1211 74.8047 -49.707 L 74.8047 -66.0645 C 74.8047 -78.6621 82.959 -85.1562 92.1387 -85.1562 C 101.367 -85.1562 109.521 -78.6621 109.521 -66.0645 L 109.521 -56.6895 C 109.521 -52.2949 111.914 -50.1465 115.039 -50.1465 C 118.115 -50.1465 120.508 -52.1973 120.508 -56.5918 L 120.508 -64.6484 C 120.508 -85.8887 106.494 -95.752 92.1387 -95.752 Z M 70.459 -39.7461 C 72.5098 -39.7461 73.4863 -38.8184 73.4863 -36.377 L 73.4863 -1.70898 C 73.4863 0.78125 72.5098 1.75781 70.459 1.75781 L 26.5625 1.75781 C 24.4629 1.75781 23.4375 0.78125 23.4375 -1.70898 L 23.4375 -36.377 C 23.4375 -38.8184 24.4629 -39.7461 26.5625 -39.7461 Z"/>
  </g>
  <g id="Medium-M" transform="matrix(1 0 0 1 1681.76 1126)">
   <path d="M 91.7969 -94.873 C 77.7344 -94.873 64.0137 -85.1562 64.0137 -64.4043 L 64.0137 -49.5605 L 23.6816 -49.5605 C 16.1133 -49.5605 12.4512 -45.8496 12.4512 -37.6953 L 12.4512 -1.02539 C 12.4512 7.17773 16.1133 10.8887 23.6816 10.8887 L 71.9727 10.8887 C 79.541 10.8887 83.2031 7.17773 83.2031 -1.02539 L 83.2031 -37.6953 C 83.2031 -45.2148 80.0781 -48.9746 73.6816 -49.5117 L 73.6816 -65.625 C 73.6816 -78.8086 82.1777 -85.5957 91.7969 -85.5957 C 101.465 -85.5957 109.961 -78.8086 109.961 -65.625 L 109.961 -55.4688 C 109.961 -51.4648 112.109 -49.6094 114.844 -49.6094 C 117.529 -49.6094 119.629 -51.3184 119.629 -55.3711 L 119.629 -64.4043 C 119.629 -85.1562 105.908 -94.873 91.7969 -94.873 Z M 70.4102 -40.7227 C 72.5586 -40.7227 73.584 -39.7461 73.584 -37.207 L 73.584 -1.5625 C 73.584 1.02539 72.5586 2.05078 70.4102 2.05078 L 25.3418 2.05078 C 23.1445 2.05078 22.0703 1.02539 22.0703 -1.5625 L 22.0703 -37.207 C 22.0703 -39.7461 23.1445 -40.7227 25.3418 -40.7227 Z"/>
  </g>
  <g id="Regular-M" transform="matrix(1 0 0 1 1385.64 1126)">
   <path d="M 91.3574 -93.7012 C 77.5879 -93.7012 64.3066 -84.2285 64.3066 -64.0625 L 64.3066 -49.3164 L 23.3398 -49.3164 C 16.0156 -49.3164 12.4512 -45.7031 12.4512 -37.8418 L 12.4512 -1.75781 C 12.4512 6.15234 16.0156 9.7168 23.3398 9.7168 L 70.7031 9.7168 C 78.0273 9.7168 81.5918 6.15234 81.5918 -1.75781 L 81.5918 -37.8418 C 81.5918 -45.166 78.5156 -48.7793 72.168 -49.2188 L 72.168 -65.0879 C 72.168 -78.9551 81.1523 -86.2305 91.3574 -86.2305 C 101.611 -86.2305 110.596 -78.9551 110.596 -65.0879 L 110.596 -53.8574 C 110.596 -50.3906 112.305 -48.9258 114.551 -48.9258 C 116.699 -48.9258 118.457 -50.2441 118.457 -53.7109 L 118.457 -64.0625 C 118.457 -84.2285 105.127 -93.7012 91.3574 -93.7012 Z M 70.3613 -41.9434 C 72.6562 -41.9434 73.7305 -40.9668 73.7305 -38.2812 L 73.7305 -1.36719 C 73.7305 1.36719 72.6562 2.39258 70.3613 2.39258 L 23.6816 2.39258 C 21.4355 2.39258 20.3125 1.36719 20.3125 -1.36719 L 20.3125 -38.2812 C 20.3125 -40.9668 21.4355 -41.9434 23.6816 -41.9434 Z"/>
  </g>
  <g id="Light-M" transform="matrix(1 0 0 1 1088.9 1126)">
   <path d="M 92.1387 -92.7734 C 78.4668 -92.7734 65.8203 -83.2031 65.8203 -64.0137 L 65.8203 -48.8281 L 22.6074 -48.8281 C 15.6738 -48.8281 12.4512 -45.6543 12.4512 -38.1348 L 12.4512 -1.02539 C 12.4512 6.54297 15.6738 9.7168 22.6074 9.7168 L 71.0449 9.7168 C 77.9297 9.7168 81.1523 6.54297 81.1523 -1.02539 L 81.1523 -38.1348 C 81.1523 -45.3125 78.2227 -48.584 71.875 -48.8281 L 71.875 -64.5996 C 71.875 -79.0039 81.1523 -87.0117 92.1387 -87.0117 C 103.174 -87.0117 112.451 -79.0039 112.451 -64.5996 L 112.451 -52.832 C 112.451 -50.293 113.818 -49.2188 115.479 -49.2188 C 117.09 -49.2188 118.457 -50.1953 118.457 -52.7344 L 118.457 -64.0137 C 118.457 -83.2031 105.859 -92.7734 92.1387 -92.7734 Z M 70.752 -43.2129 C 73.7305 -43.2129 75.1465 -42.041 75.1465 -38.3301 L 75.1465 -0.78125 C 75.1465 2.88086 73.7305 4.10156 70.752 4.10156 L 22.9004 4.10156 C 19.9219 4.10156 18.5059 2.88086 18.5059 -0.78125 L 18.5059 -38.3301 C 18.5059 -42.041 19.9219 -43.2129 22.9004 -43.2129 Z"/>
  </g>
  <g id="Thin-M" transform="matrix(1 0 0 1 792.164 1126)">
   <path d="M 93.2129 -91.5527 C 79.5898 -91.5527 67.8711 -81.8848 67.8711 -63.916 L 67.8711 -48.2422 L 21.6309 -48.2422 C 15.2832 -48.2422 12.4512 -45.5566 12.4512 -38.5742 L 12.4512 0.0488281 C 12.4512 7.03125 15.2832 9.7168 21.6309 9.7168 L 71.4844 9.7168 C 77.832 9.7168 80.6641 7.03125 80.6641 0.0488281 L 80.6641 -38.5742 C 80.6641 -45.5078 77.832 -48.2422 71.4844 -48.2422 L 71.4844 -63.9648 C 71.4844 -79.0039 81.1523 -88.0859 93.2129 -88.0859 C 105.225 -88.0859 114.893 -79.0039 114.893 -63.9648 L 114.893 -51.4648 C 114.893 -50.1465 115.771 -49.5605 116.699 -49.5605 C 117.676 -49.5605 118.506 -50.1465 118.506 -51.4648 L 118.506 -63.916 C 118.506 -81.8848 106.787 -91.5527 93.2129 -91.5527 Z M 71.2891 -44.8242 C 75.2441 -44.8242 77.002 -43.4082 77.002 -38.4277 L 77.002 -0.0976562 C 77.002 4.88281 75.2441 6.29883 71.2891 6.29883 L 21.8262 6.29883 C 17.9199 6.29883 16.1133 4.88281 16.1133 -0.0976562 L 16.1133 -38.4277 C 16.1133 -43.4082 17.9199 -44.8242 21.8262 -44.8242 Z"/>
  </g>
  <g id="Ultralight-M" transform="matrix(1 0 0 1 495.453 1126)">
   <path d="M 71.6797 -47.9492 L 71.2891 -47.9492 L 71.2891 -63.6719 C 71.2891 -79.0039 81.1523 -88.6719 93.7012 -88.6719 C 106.299 -88.6719 116.162 -79.0039 116.162 -63.6719 L 116.162 -50.7812 C 116.162 -50.0977 116.748 -49.7559 117.334 -49.7559 C 117.92 -49.7559 118.555 -50.0977 118.555 -50.7812 L 118.555 -63.8672 C 118.555 -81.2012 107.227 -90.918 93.7012 -90.918 C 80.1758 -90.918 68.8965 -81.2012 68.8965 -63.8672 L 68.8965 -47.9492 L 21.1426 -47.9492 C 15.0879 -47.9492 12.4512 -45.459 12.4512 -38.7695 L 12.4512 0.537109 C 12.4512 7.27539 15.0879 9.7168 21.1426 9.7168 L 71.6797 9.7168 C 77.7832 9.7168 80.3711 7.27539 80.3711 0.537109 L 80.3711 -38.7695 C 80.3711 -45.459 77.7832 -47.9492 71.6797 -47.9492 Z M 71.582 -45.6543 C 75.9766 -45.6543 77.9785 -44.0918 77.9785 -38.5254 L 77.9785 0.292969 C 77.9785 5.9082 75.9766 7.4707 71.582 7.4707 L 21.2891 7.4707 C 16.8457 7.4707 14.8438 5.9082 14.8438 0.292969 L 14.8438 -38.5254 C 14.8438 -44.0918 16.8457 -45.6543 21.2891 -45.6543 Z"/>
  </g>
  <g id="Black-S" transform="matrix(1 0 0 1 2880.59 696)">
   <path d="M 73.4375 -85.9375 C 61.2305 -85.9375 49.0723 -77.6367 49.0723 -59.2285 L 49.0723 -47.4121 L 19.8242 -47.4121 C 13.0859 -47.4121 9.76562 -44.043 9.76562 -36.7676 L 9.76562 -5.85938 C 9.76562 1.51367 13.0859 4.88281 19.8242 4.88281 L 60.8398 4.88281 C 67.5781 4.88281 70.8984 1.51367 70.8984 -5.85938 L 70.8984 -36.7676 C 70.8984 -43.2617 68.2129 -46.6797 62.8418 -47.3145 L 62.8418 -60.9863 C 62.8418 -68.75 67.9199 -72.5586 73.4375 -72.5586 C 78.9551 -72.5586 84.0332 -68.75 84.0332 -60.9863 L 84.0332 -56.6406 C 84.0332 -51.6602 86.9629 -48.8281 90.918 -48.8281 C 94.873 -48.8281 97.8027 -51.6602 97.8027 -56.6406 L 97.8027 -59.2285 C 97.8027 -77.6367 85.6445 -85.9375 73.4375 -85.9375 Z M 55.2734 -35.2051 C 56.5918 -35.2051 57.2266 -34.5703 57.2266 -33.0566 L 57.2266 -9.52148 C 57.2266 -8.00781 56.5918 -7.32422 55.2734 -7.32422 L 25.4395 -7.32422 C 24.1211 -7.32422 23.4375 -8.00781 23.4375 -9.52148 L 23.4375 -33.0566 C 23.4375 -34.5703 24.1211 -35.2051 25.4395 -35.2051 Z"/>
  </g>
  <g id="Heavy-S" transform="matrix(1 0 0 1 2584.47 696)">
   <path d="M 72.9004 -84.9121 C 61.0352 -84.9121 49.2188 -76.8066 49.2188 -58.8867 L 49.2188 -47.168 L 19.5312 -47.168 C 12.9883 -47.168 9.76562 -43.8965 9.76562 -36.8652 L 9.76562 -6.68945 C 9.76562 0.439453 12.9883 3.71094 19.5312 3.71094 L 59.5215 3.71094 C 66.0645 3.71094 69.2871 0.439453 69.2871 -6.68945 L 69.2871 -36.8652 C 69.2871 -43.2129 66.6992 -46.4844 61.377 -47.0703 L 61.377 -60.498 C 61.377 -68.9453 66.8945 -73.0957 72.9004 -73.0957 C 78.9551 -73.0957 84.4238 -68.9453 84.4238 -60.498 L 84.4238 -55.127 C 84.4238 -50.5859 87.0605 -48.1445 90.5273 -48.1445 C 93.9941 -48.1445 96.6309 -50.5859 96.6309 -55.127 L 96.6309 -58.8867 C 96.6309 -76.8066 84.8145 -84.9121 72.9004 -84.9121 Z M 55.1758 -36.3281 C 56.543 -36.3281 57.1777 -35.6445 57.1777 -34.1309 L 57.1777 -9.375 C 57.1777 -7.86133 56.543 -7.12891 55.1758 -7.12891 L 23.9258 -7.12891 C 22.5586 -7.12891 21.875 -7.86133 21.875 -9.375 L 21.875 -34.1309 C 21.875 -35.6445 22.5586 -36.3281 23.9258 -36.3281 Z"/>
  </g>
  <g id="Bold-S" transform="matrix(1 0 0 1 2288.42 696)">
   <path d="M 72.3145 -83.7402 C 60.791 -83.7402 49.3652 -75.8789 49.3652 -58.5449 L 49.3652 -46.9238 L 19.2383 -46.9238 C 12.8906 -46.9238 9.76562 -43.75 9.76562 -36.9629 L 9.76562 -7.61719 C 9.76562 -0.732422 12.8906 2.44141 19.2383 2.44141 L 58.0566 2.44141 C 64.3555 2.44141 67.4805 -0.732422 67.4805 -7.61719 L 67.4805 -36.9629 C 67.4805 -43.1152 64.9414 -46.2891 59.7656 -46.8262 L 59.7656 -59.9121 C 59.7656 -69.1406 65.7715 -73.6816 72.3145 -73.6816 C 78.9062 -73.6816 84.8633 -69.1406 84.8633 -59.9121 L 84.8633 -53.4668 C 84.8633 -49.4141 87.1094 -47.3145 90.0879 -47.3145 C 93.0664 -47.3145 95.3125 -49.3164 95.3125 -53.418 L 95.3125 -58.5449 C 95.3125 -75.8789 83.8379 -83.7402 72.3145 -83.7402 Z M 55.127 -37.5488 C 56.4941 -37.5488 57.1289 -36.9141 57.1289 -35.3027 L 57.1289 -9.22852 C 57.1289 -7.66602 56.4941 -6.93359 55.127 -6.93359 L 22.2168 -6.93359 C 20.8496 -6.93359 20.1172 -7.66602 20.1172 -9.22852 L 20.1172 -35.3027 C 20.1172 -36.9141 20.8496 -37.5488 22.2168 -37.5488 Z"/>
  </g>
  <g id="Semibold-S" transform="matrix(1 0 0 1 1992.17 696)">
   <path d="M 71.9238 -82.9102 C 60.6445 -82.9102 49.4629 -75.2441 49.4629 -58.3008 L 49.4629 -46.7773 L 18.9941 -46.7773 C 12.8418 -46.7773 9.76562 -43.6523 9.76562 -37.0117 L 9.76562 -8.25195 C 9.76562 -1.5625 12.8418 1.5625 18.9941 1.5625 L 57.0312 1.5625 C 63.1836 1.5625 66.2598 -1.5625 66.2598 -8.25195 L 66.2598 -37.0117 C 66.2598 -43.0664 63.7207 -46.1426 58.6426 -46.6797 L 58.6426 -59.5215 C 58.6426 -69.2383 64.9414 -74.0723 71.9238 -74.0723 C 78.9062 -74.0723 85.2051 -69.2383 85.2051 -59.5215 L 85.2051 -52.3438 C 85.2051 -48.584 87.207 -46.7773 89.7949 -46.7773 C 92.3828 -46.7773 94.3848 -48.4863 94.3848 -52.2461 L 94.3848 -58.3008 C 94.3848 -75.2441 83.2031 -82.9102 71.9238 -82.9102 Z M 55.0293 -38.3789 C 56.4453 -38.3789 57.1289 -37.7441 57.1289 -36.1328 L 57.1289 -9.13086 C 57.1289 -7.51953 56.4453 -6.83594 55.0293 -6.83594 L 21.0449 -6.83594 C 19.6289 -6.83594 18.8965 -7.51953 18.8965 -9.13086 L 18.8965 -36.1328 C 18.8965 -37.7441 19.6289 -38.3789 21.0449 -38.3789 Z"/>
  </g>
  <g id="Medium-S" transform="matrix(1 0 0 1 1695.8 696)">
   <path d="M 71.6309 -82.2754 C 60.5469 -82.2754 49.5605 -74.7559 49.5605 -58.1055 L 49.5605 -46.6309 L 18.8477 -46.6309 C 12.7441 -46.6309 9.76562 -43.6035 9.76562 -37.0605 L 9.76562 -8.74023 C 9.76562 -2.14844 12.7441 0.878906 18.8477 0.878906 L 56.25 0.878906 C 62.3047 0.878906 65.332 -2.14844 65.332 -8.74023 L 65.332 -37.0605 C 65.332 -43.0176 62.8418 -46.0449 57.8125 -46.582 L 57.8125 -59.2285 C 57.8125 -69.3359 64.3555 -74.3652 71.6309 -74.3652 C 78.8574 -74.3652 85.4492 -69.3359 85.4492 -59.2285 L 85.4492 -51.4648 C 85.4492 -47.9492 87.207 -46.3867 89.5996 -46.3867 C 91.8945 -46.3867 93.7012 -47.8516 93.7012 -51.3672 L 93.7012 -58.1055 C 93.7012 -74.7559 82.666 -82.2754 71.6309 -82.2754 Z M 54.9805 -39.0625 C 56.3965 -39.0625 57.0801 -38.3789 57.0801 -36.7676 L 57.0801 -9.0332 C 57.0801 -7.42188 56.3965 -6.68945 54.9805 -6.68945 L 20.1172 -6.68945 C 18.7012 -6.68945 18.0176 -7.42188 18.0176 -9.0332 L 18.0176 -36.7676 C 18.0176 -38.3789 18.7012 -39.0625 20.1172 -39.0625 Z"/>
  </g>
  <g id="Regular-S" transform="matrix(1 0 0 1 1399.55 696)">
   <path d="M 71.1914 -81.4941 C 60.4004 -81.4941 49.6582 -74.1211 49.6582 -57.8613 L 49.6582 -46.4844 L 18.6523 -46.4844 C 12.6953 -46.4844 9.76562 -43.5059 9.76562 -37.1094 L 9.76562 -9.42383 C 9.76562 -2.97852 12.6953 0 18.6523 0 L 55.2246 0 C 61.1816 0 64.1113 -2.97852 64.1113 -9.42383 L 64.1113 -37.1094 C 64.1113 -42.9688 61.6699 -45.9473 56.6895 -46.3867 L 56.6895 -58.8379 C 56.6895 -69.4824 63.5742 -74.8047 71.1914 -74.8047 C 78.8574 -74.8047 85.7422 -69.4824 85.7422 -58.8379 L 85.7422 -50.3418 C 85.7422 -47.168 87.3047 -45.8496 89.3066 -45.8496 C 91.2109 -45.8496 92.7734 -47.0215 92.7734 -50.1953 L 92.7734 -57.8613 C 92.7734 -74.1211 82.0312 -81.4941 71.1914 -81.4941 Z M 54.9316 -39.8926 C 56.3965 -39.8926 57.0801 -39.209 57.0801 -37.5488 L 57.0801 -8.93555 C 57.0801 -7.27539 56.3965 -6.5918 54.9316 -6.5918 L 18.9453 -6.5918 C 17.5293 -6.5918 16.7969 -7.27539 16.7969 -8.93555 L 16.7969 -37.5488 C 16.7969 -39.209 17.5293 -39.8926 18.9453 -39.8926 Z"/>
  </g>
  <g id="Light-S" transform="matrix(1 0 0 1 1102.82 696)">
   <path d="M 71.9238 -80.6641 C 61.1328 -80.6641 50.9766 -73.1934 50.9766 -57.8125 L 50.9766 -46.0449 L 17.9688 -46.0449 C 12.4023 -46.0449 9.76562 -43.4082 9.76562 -37.4023 L 9.76562 -8.69141 C 9.76562 -2.63672 12.4023 0 17.9688 0 L 55.5176 0 C 61.084 0 63.7695 -2.63672 63.7695 -8.69141 L 63.7695 -37.4023 C 63.7695 -43.0664 61.377 -45.752 56.4453 -46.0449 L 56.4453 -58.4473 C 56.4453 -69.4824 63.5742 -75.4883 71.9238 -75.4883 C 80.2246 -75.4883 87.4023 -69.4824 87.4023 -58.4473 L 87.4023 -49.4141 C 87.4023 -47.0703 88.5742 -46.0938 90.1367 -46.0938 C 91.6016 -46.0938 92.8223 -46.9727 92.8223 -49.3164 L 92.8223 -57.8125 C 92.8223 -73.1934 82.666 -80.6641 71.9238 -80.6641 Z M 55.2734 -40.9668 C 57.373 -40.9668 58.3008 -40.1367 58.3008 -37.6465 L 58.3008 -8.44727 C 58.3008 -5.95703 57.373 -5.07812 55.2734 -5.07812 L 18.2617 -5.07812 C 16.2109 -5.07812 15.1855 -5.95703 15.1855 -8.44727 L 15.1855 -37.6465 C 15.1855 -40.1367 16.2109 -40.9668 18.2617 -40.9668 Z"/>
  </g>
  <g id="Thin-S" transform="matrix(1 0 0 1 806.105 696)">
   <path d="M 72.8027 -79.5898 C 62.1582 -79.5898 52.7832 -72.0215 52.7832 -57.7148 L 52.7832 -45.5566 L 17.1387 -45.5566 C 12.0605 -45.5566 9.76562 -43.3105 9.76562 -37.7441 L 9.76562 -7.8125 C 9.76562 -2.24609 12.0605 0 17.1387 0 L 55.9082 0 C 60.9863 0 63.2812 -2.24609 63.2812 -7.8125 L 63.2812 -37.7441 C 63.2812 -43.2617 61.0352 -45.5078 56.1035 -45.5566 L 56.1035 -57.8613 C 56.1035 -69.5312 63.5742 -76.4648 72.8027 -76.4648 C 82.0312 -76.4648 89.5508 -69.5312 89.5508 -57.8613 L 89.5508 -48.2422 C 89.5508 -46.9727 90.332 -46.3867 91.2109 -46.3867 C 92.0898 -46.3867 92.8223 -46.9238 92.8223 -48.1934 L 92.8223 -57.7148 C 92.8223 -72.0215 83.4473 -79.5898 72.8027 -79.5898 Z M 55.7617 -42.4316 C 58.6426 -42.4316 59.9609 -41.3574 59.9609 -37.7441 L 59.9609 -7.8125 C 59.9609 -4.19922 58.6426 -3.125 55.7617 -3.125 L 17.2852 -3.125 C 14.4043 -3.125 13.0859 -4.19922 13.0859 -7.8125 L 13.0859 -37.7441 C 13.0859 -41.3574 14.4043 -42.4316 17.2852 -42.4316 Z"/>
  </g>
  <g id="Ultralight-S" transform="matrix(1 0 0 1 509.369 696)">
   <path d="M 56.1035 -45.2637 L 55.9082 -45.2637 L 55.9082 -57.5684 C 55.9082 -69.5312 63.5742 -76.9531 73.291 -76.9531 C 83.0078 -76.9531 90.6738 -69.5312 90.6738 -57.5684 L 90.6738 -47.6074 C 90.6738 -46.875 91.2109 -46.5332 91.748 -46.5332 C 92.334 -46.5332 92.8711 -46.875 92.8711 -47.6074 L 92.8711 -57.666 C 92.8711 -71.4355 83.8867 -79.0527 73.291 -79.0527 C 62.6953 -79.0527 53.7109 -71.4355 53.7109 -57.666 L 53.7109 -45.2637 L 16.6992 -45.2637 C 11.8652 -45.2637 9.76562 -43.2617 9.76562 -37.9395 L 9.76562 -7.32422 C 9.76562 -2.00195 11.8652 0 16.6992 0 L 56.1035 0 C 60.9375 0 63.0371 -2.00195 63.0371 -7.32422 L 63.0371 -37.9395 C 63.0371 -43.2617 60.9375 -45.2637 56.1035 -45.2637 Z M 56.0059 -43.1641 C 59.3262 -43.1641 60.8398 -41.9922 60.8398 -37.793 L 60.8398 -7.51953 C 60.8398 -3.27148 59.3262 -2.09961 56.0059 -2.09961 L 16.7969 -2.09961 C 13.4766 -2.09961 11.9629 -3.27148 11.9629 -7.51953 L 11.9629 -37.793 C 11.9629 -41.9922 13.4766 -43.1641 16.7969 -43.1641 Z"/>
  </g>
 </g>
</svg>
