<?xml version="1.0" encoding="UTF-8"?>
<!--Generator: Apple Native CoreSVG 123-->
<!DOCTYPE svg
PUBLIC "-//W3C//DTD SVG 1.1//EN"
       "http://www.w3.org/Graphics/SVG/1.1/DTD/svg11.dtd">
<svg version="1.1" xmlns="http://www.w3.org/2000/svg" xmlns:xlink="http://www.w3.org/1999/xlink" width="3300" height="2200">
 <!--glyph: "uni1003A0.medium", point size: 100.000000, font version: "Version 15.0d5e5", template writer version: "5"-->
 <g id="Notes">
  <rect height="2200" id="artboard" style="fill:white;opacity:1" width="3300" x="0" y="0"/>
  <line id="" style="fill:none;stroke:black;opacity:1;stroke-width:0.5;" x1="263" x2="3036" y1="292" y2="292"/>
  <text style="stroke:none;fill:black;font-family:-apple-system,&quot;SF Pro Display&quot;,&quot;SF Pro Text&quot;,Helvetica,sans-serif;font-weight:bold;" transform="matrix(1 0 0 1 263 322)">Weight/Scale Variations</text>
  <text style="stroke:none;fill:black;font-family:-apple-system,&quot;SF Pro Display&quot;,&quot;SF Pro Text&quot;,Helvetica,sans-serif;text-anchor:middle;" transform="matrix(1 0 0 1 559.711 322)">Ultralight</text>
  <text style="stroke:none;fill:black;font-family:-apple-system,&quot;SF Pro Display&quot;,&quot;SF Pro Text&quot;,Helvetica,sans-serif;text-anchor:middle;" transform="matrix(1 0 0 1 856.422 322)">Thin</text>
  <text style="stroke:none;fill:black;font-family:-apple-system,&quot;SF Pro Display&quot;,&quot;SF Pro Text&quot;,Helvetica,sans-serif;text-anchor:middle;" transform="matrix(1 0 0 1 1153.13 322)">Light</text>
  <text style="stroke:none;fill:black;font-family:-apple-system,&quot;SF Pro Display&quot;,&quot;SF Pro Text&quot;,Helvetica,sans-serif;text-anchor:middle;" transform="matrix(1 0 0 1 1449.84 322)">Regular</text>
  <text style="stroke:none;fill:black;font-family:-apple-system,&quot;SF Pro Display&quot;,&quot;SF Pro Text&quot;,Helvetica,sans-serif;text-anchor:middle;" transform="matrix(1 0 0 1 1746.56 322)">Medium</text>
  <text style="stroke:none;fill:black;font-family:-apple-system,&quot;SF Pro Display&quot;,&quot;SF Pro Text&quot;,Helvetica,sans-serif;text-anchor:middle;" transform="matrix(1 0 0 1 2043.27 322)">Semibold</text>
  <text style="stroke:none;fill:black;font-family:-apple-system,&quot;SF Pro Display&quot;,&quot;SF Pro Text&quot;,Helvetica,sans-serif;text-anchor:middle;" transform="matrix(1 0 0 1 2339.98 322)">Bold</text>
  <text style="stroke:none;fill:black;font-family:-apple-system,&quot;SF Pro Display&quot;,&quot;SF Pro Text&quot;,Helvetica,sans-serif;text-anchor:middle;" transform="matrix(1 0 0 1 2636.69 322)">Heavy</text>
  <text style="stroke:none;fill:black;font-family:-apple-system,&quot;SF Pro Display&quot;,&quot;SF Pro Text&quot;,Helvetica,sans-serif;text-anchor:middle;" transform="matrix(1 0 0 1 2933.4 322)">Black</text>
  <line id="" style="fill:none;stroke:black;opacity:1;stroke-width:0.5;" x1="263" x2="3036" y1="1903" y2="1903"/>
  <g id="" transform="matrix(1 0 0 1 263 1933)">
   <path d="M 9.24805 0.830078 C 13.5547 0.830078 17.1387 -2.74414 17.1387 -7.05078 C 17.1387 -11.3574 13.5449 -14.9316 9.23828 -14.9316 C 4.94141 -14.9316 1.36719 -11.3574 1.36719 -7.05078 C 1.36719 -2.74414 4.95117 0.830078 9.24805 0.830078 Z M 9.24805 -0.654297 C 5.70312 -0.654297 2.87109 -3.49609 2.87109 -7.05078 C 2.87109 -10.6055 5.69336 -13.4473 9.23828 -13.4473 C 12.793 -13.4473 15.6348 -10.6055 15.6445 -7.05078 C 15.6543 -3.49609 12.8027 -0.654297 9.24805 -0.654297 Z M 9.22852 -3.42773 C 9.69727 -3.42773 9.9707 -3.74023 9.9707 -4.25781 L 9.9707 -6.31836 L 12.1973 -6.31836 C 12.6953 -6.31836 13.0371 -6.57227 13.0371 -7.04102 C 13.0371 -7.51953 12.7148 -7.7832 12.1973 -7.7832 L 9.9707 -7.7832 L 9.9707 -10.0098 C 9.9707 -10.5273 9.69727 -10.8496 9.22852 -10.8496 C 8.75977 -10.8496 8.50586 -10.5078 8.50586 -10.0098 L 8.50586 -7.7832 L 6.29883 -7.7832 C 5.78125 -7.7832 5.44922 -7.51953 5.44922 -7.04102 C 5.44922 -6.57227 5.80078 -6.31836 6.29883 -6.31836 L 8.50586 -6.31836 L 8.50586 -4.25781 C 8.50586 -3.75977 8.75977 -3.42773 9.22852 -3.42773 Z"/>
  </g>
  <g id="" transform="matrix(1 0 0 1 281.506 1933)">
   <path d="M 11.709 2.91016 C 17.1484 2.91016 21.6699 -1.60156 21.6699 -7.05078 C 21.6699 -12.4902 17.1387 -17.0117 11.6992 -17.0117 C 6.25 -17.0117 1.74805 -12.4902 1.74805 -7.05078 C 1.74805 -1.60156 6.25977 2.91016 11.709 2.91016 Z M 11.709 1.25 C 7.09961 1.25 3.41797 -2.44141 3.41797 -7.05078 C 3.41797 -11.6504 7.08984 -15.3516 11.6992 -15.3516 C 16.2988 -15.3516 20 -11.6504 20.0098 -7.05078 C 20.0195 -2.44141 16.3086 1.25 11.709 1.25 Z M 11.6797 -2.41211 C 12.207 -2.41211 12.5195 -2.77344 12.5195 -3.33984 L 12.5195 -6.23047 L 15.5762 -6.23047 C 16.123 -6.23047 16.5039 -6.51367 16.5039 -7.03125 C 16.5039 -7.55859 16.1426 -7.86133 15.5762 -7.86133 L 12.5195 -7.86133 L 12.5195 -10.9277 C 12.5195 -11.5039 12.207 -11.8555 11.6797 -11.8555 C 11.1621 -11.8555 10.8789 -11.4844 10.8789 -10.9277 L 10.8789 -7.86133 L 7.83203 -7.86133 C 7.25586 -7.86133 6.89453 -7.55859 6.89453 -7.03125 C 6.89453 -6.51367 7.28516 -6.23047 7.83203 -6.23047 L 10.8789 -6.23047 L 10.8789 -3.33984 C 10.8789 -2.79297 11.1621 -2.41211 11.6797 -2.41211 Z"/>
  </g>
  <g id="" transform="matrix(1 0 0 1 304.914 1933)">
   <path d="M 14.9707 5.67383 C 21.9336 5.67383 27.6855 -0.078125 27.6855 -7.04102 C 27.6855 -14.0039 21.9238 -19.7559 14.9609 -19.7559 C 7.99805 -19.7559 2.25586 -14.0039 2.25586 -7.04102 C 2.25586 -0.078125 8.00781 5.67383 14.9707 5.67383 Z M 14.9707 3.85742 C 8.92578 3.85742 4.08203 -1.00586 4.08203 -7.04102 C 4.08203 -13.0762 8.91602 -17.9395 14.9609 -17.9395 C 20.9961 -17.9395 25.8594 -13.0762 25.8691 -7.04102 C 25.8789 -1.00586 21.0059 3.85742 14.9707 3.85742 Z M 14.9414 -1.06445 C 15.5176 -1.06445 15.8594 -1.45508 15.8594 -2.06055 L 15.8594 -6.13281 L 20.0977 -6.13281 C 20.6934 -6.13281 21.1133 -6.46484 21.1133 -7.02148 C 21.1133 -7.59766 20.7227 -7.93945 20.0977 -7.93945 L 15.8594 -7.93945 L 15.8594 -12.1875 C 15.8594 -12.8027 15.5176 -13.1934 14.9414 -13.1934 C 14.3848 -13.1934 14.0625 -12.7832 14.0625 -12.1875 L 14.0625 -7.93945 L 9.82422 -7.93945 C 9.20898 -7.93945 8.80859 -7.59766 8.80859 -7.02148 C 8.80859 -6.46484 9.23828 -6.13281 9.82422 -6.13281 L 14.0625 -6.13281 L 14.0625 -2.06055 C 14.0625 -1.47461 14.3848 -1.06445 14.9414 -1.06445 Z"/>
  </g>
  <text style="stroke:none;fill:black;font-family:-apple-system,&quot;SF Pro Display&quot;,&quot;SF Pro Text&quot;,Helvetica,sans-serif;font-weight:bold;" transform="matrix(1 0 0 1 263 1953)">Design Variations</text>
  <text style="stroke:none;fill:black;font-family:-apple-system,&quot;SF Pro Display&quot;,&quot;SF Pro Text&quot;,Helvetica,sans-serif;" transform="matrix(1 0 0 1 263 1971)">Symbols are supported in up to nine weights and three scales.</text>
  <text style="stroke:none;fill:black;font-family:-apple-system,&quot;SF Pro Display&quot;,&quot;SF Pro Text&quot;,Helvetica,sans-serif;" transform="matrix(1 0 0 1 263 1989)">For optimal layout with text and other symbols, vertically align</text>
  <text style="stroke:none;fill:black;font-family:-apple-system,&quot;SF Pro Display&quot;,&quot;SF Pro Text&quot;,Helvetica,sans-serif;" transform="matrix(1 0 0 1 263 2007)">symbols with the adjacent text.</text>
  <rect height="14" id="" style="fill:#00AEEF;stroke:none;opacity:0.4;" width="3" x="776" y="1919"/>
  <g id="" transform="matrix(1 0 0 1 779 1933)">
   <path d="M 10.5273 0 L 12.373 0 L 7.17773 -14.0918 L 5.43945 -14.0918 L 0.244141 0 L 2.08984 0 L 3.50586 -4.0332 L 9.11133 -4.0332 Z M 6.2793 -11.9531 L 6.33789 -11.9531 L 8.59375 -5.52734 L 4.02344 -5.52734 Z"/>
  </g>
  <rect height="14" id="" style="fill:#00AEEF;stroke:none;opacity:0.4;" width="3" x="791.617" y="1919"/>
  <text style="stroke:none;fill:black;font-family:-apple-system,&quot;SF Pro Display&quot;,&quot;SF Pro Text&quot;,Helvetica,sans-serif;font-weight:bold;" transform="matrix(1 0 0 1 776 1953)">Margins</text>
  <text style="stroke:none;fill:black;font-family:-apple-system,&quot;SF Pro Display&quot;,&quot;SF Pro Text&quot;,Helvetica,sans-serif;" transform="matrix(1 0 0 1 776 1971)">Leading and trailing margins on the left and right side of each symbol</text>
  <text style="stroke:none;fill:black;font-family:-apple-system,&quot;SF Pro Display&quot;,&quot;SF Pro Text&quot;,Helvetica,sans-serif;" transform="matrix(1 0 0 1 776 1989)">can be adjusted by modifying the width of the blue rectangles.</text>
  <text style="stroke:none;fill:black;font-family:-apple-system,&quot;SF Pro Display&quot;,&quot;SF Pro Text&quot;,Helvetica,sans-serif;" transform="matrix(1 0 0 1 776 2007)">Modifications are automatically applied proportionally to all</text>
  <text style="stroke:none;fill:black;font-family:-apple-system,&quot;SF Pro Display&quot;,&quot;SF Pro Text&quot;,Helvetica,sans-serif;" transform="matrix(1 0 0 1 776 2025)">scales and weights.</text>
  <g id="" transform="matrix(1 0 0 1 1289 1933)">
   <path d="M 2.83203 3.61328 L 4.375 5.15625 C 5.22461 5.98633 6.19141 5.91797 7.05078 4.9707 L 17.2754 -6.16211 C 17.6953 -5.86914 18.0859 -5.87891 18.5645 -5.97656 L 19.6094 -6.19141 L 20.3027 -5.49805 L 20.2539 -4.98047 C 20.1855 -4.44336 20.3418 -4.0332 20.8398 -3.53516 L 21.6602 -2.72461 C 22.1582 -2.2168 22.8223 -2.1875 23.3008 -2.66602 L 26.5527 -5.91797 C 27.0312 -6.39648 27.002 -7.05078 26.5039 -7.55859 L 25.6836 -8.37891 C 25.1855 -8.87695 24.7656 -9.05273 24.2383 -8.97461 L 23.7109 -8.91602 L 23.0469 -9.58008 L 23.3398 -10.7227 C 23.4766 -11.2891 23.3301 -11.748 22.7148 -12.3535 L 20.3027 -14.7559 C 16.7578 -18.2812 12.2168 -18.1738 9.11133 -15.0391 C 8.68164 -14.6094 8.64258 -14.0234 8.91602 -13.5938 C 9.14062 -13.2227 9.61914 -12.998 10.2734 -13.1641 C 11.7871 -13.5449 13.3008 -13.4277 14.7852 -12.4219 L 14.1602 -10.8398 C 13.9258 -10.2539 13.9453 -9.77539 14.1797 -9.33594 L 3.01758 0.9375 C 2.08008 1.80664 1.97266 2.75391 2.83203 3.61328 Z M 10.6641 -14.6484 C 13.3301 -16.6406 16.6504 -16.3184 19.0527 -13.916 L 21.6797 -11.3086 C 21.9141 -11.0742 21.9434 -10.8887 21.875 -10.5957 L 21.5039 -9.0332 L 23.0762 -7.46094 L 24.0332 -7.54883 C 24.3164 -7.57812 24.4043 -7.55859 24.6387 -7.33398 L 25.2539 -6.70898 L 22.5098 -3.95508 L 21.8848 -4.58008 C 21.6602 -4.80469 21.6406 -4.89258 21.6699 -5.17578 L 21.7578 -6.14258 L 20.1953 -7.70508 L 18.5742 -7.39258 C 18.291 -7.33398 18.1445 -7.33398 17.9004 -7.57812 L 15.7324 -9.75586 C 15.498 -9.99023 15.4688 -10.127 15.5957 -10.4395 L 16.5527 -12.7246 C 14.9512 -14.2578 12.832 -15.1074 10.791 -14.4531 C 10.7031 -14.4238 10.6445 -14.4434 10.6152 -14.4824 C 10.5859 -14.5312 10.5859 -14.5801 10.6641 -14.6484 Z M 4.10156 2.91016 C 3.60352 2.41211 3.7793 2.10938 4.11133 1.80664 L 15.0781 -8.31055 L 16.2988 -7.08008 L 6.15234 3.84766 C 5.84961 4.17969 5.46875 4.27734 5.05859 3.87695 Z"/>
  </g>
  <text style="stroke:none;fill:black;font-family:-apple-system,&quot;SF Pro Display&quot;,&quot;SF Pro Text&quot;,Helvetica,sans-serif;font-weight:bold;" transform="matrix(1 0 0 1 1289 1953)">Exporting</text>
  <text style="stroke:none;fill:black;font-family:-apple-system,&quot;SF Pro Display&quot;,&quot;SF Pro Text&quot;,Helvetica,sans-serif;" transform="matrix(1 0 0 1 1289 1971)">Symbols should be outlined when exporting to ensure the</text>
  <text style="stroke:none;fill:black;font-family:-apple-system,&quot;SF Pro Display&quot;,&quot;SF Pro Text&quot;,Helvetica,sans-serif;" transform="matrix(1 0 0 1 1289 1989)">design is preserved when submitting to Xcode.</text>
  <text id="template-version" style="stroke:none;fill:black;font-family:-apple-system,&quot;SF Pro Display&quot;,&quot;SF Pro Text&quot;,Helvetica,sans-serif;text-anchor:end;" transform="matrix(1 0 0 1 3036 1933)">Template v.1.0</text>
  <text style="stroke:none;fill:black;font-family:-apple-system,&quot;SF Pro Display&quot;,&quot;SF Pro Text&quot;,Helvetica,sans-serif;text-anchor:end;" transform="matrix(1 0 0 1 3036 1951)">Generated from lock</text>
  <text style="stroke:none;fill:black;font-family:-apple-system,&quot;SF Pro Display&quot;,&quot;SF Pro Text&quot;,Helvetica,sans-serif;text-anchor:end;" transform="matrix(1 0 0 1 3036 1969)">Typeset at 100 points</text>
  <text style="stroke:none;fill:black;font-family:-apple-system,&quot;SF Pro Display&quot;,&quot;SF Pro Text&quot;,Helvetica,sans-serif;" transform="matrix(1 0 0 1 263 726)">Small</text>
  <text style="stroke:none;fill:black;font-family:-apple-system,&quot;SF Pro Display&quot;,&quot;SF Pro Text&quot;,Helvetica,sans-serif;" transform="matrix(1 0 0 1 263 1156)">Medium</text>
  <text style="stroke:none;fill:black;font-family:-apple-system,&quot;SF Pro Display&quot;,&quot;SF Pro Text&quot;,Helvetica,sans-serif;" transform="matrix(1 0 0 1 263 1586)">Large</text>
 </g>
 <g id="Guides">
  <g id="H-reference" style="fill:#27AAE1;stroke:none;" transform="matrix(1 0 0 1 339 696)">
   <path d="M 54.9316 0 L 57.666 0 L 30.5664 -70.459 L 28.0762 -70.459 L 0.976562 0 L 3.66211 0 L 12.9395 -24.4629 L 45.7031 -24.4629 Z M 29.1992 -67.0898 L 29.4434 -67.0898 L 44.8242 -26.709 L 13.8184 -26.709 Z"/>
  </g>
  <line id="Baseline-S" style="fill:none;stroke:#27AAE1;opacity:1;stroke-width:0.577;" x1="263" x2="3036" y1="696" y2="696"/>
  <line id="Capline-S" style="fill:none;stroke:#27AAE1;opacity:1;stroke-width:0.577;" x1="263" x2="3036" y1="625.541" y2="625.541"/>
  <g id="H-reference" style="fill:#27AAE1;stroke:none;" transform="matrix(1 0 0 1 339 1126)">
   <path d="M 54.9316 0 L 57.666 0 L 30.5664 -70.459 L 28.0762 -70.459 L 0.976562 0 L 3.66211 0 L 12.9395 -24.4629 L 45.7031 -24.4629 Z M 29.1992 -67.0898 L 29.4434 -67.0898 L 44.8242 -26.709 L 13.8184 -26.709 Z"/>
  </g>
  <line id="Baseline-M" style="fill:none;stroke:#27AAE1;opacity:1;stroke-width:0.577;" x1="263" x2="3036" y1="1126" y2="1126"/>
  <line id="Capline-M" style="fill:none;stroke:#27AAE1;opacity:1;stroke-width:0.577;" x1="263" x2="3036" y1="1055.54" y2="1055.54"/>
  <g id="H-reference" style="fill:#27AAE1;stroke:none;" transform="matrix(1 0 0 1 339 1556)">
   <path d="M 54.9316 0 L 57.666 0 L 30.5664 -70.459 L 28.0762 -70.459 L 0.976562 0 L 3.66211 0 L 12.9395 -24.4629 L 45.7031 -24.4629 Z M 29.1992 -67.0898 L 29.4434 -67.0898 L 44.8242 -26.709 L 13.8184 -26.709 Z"/>
  </g>
  <line id="Baseline-L" style="fill:none;stroke:#27AAE1;opacity:1;stroke-width:0.577;" x1="263" x2="3036" y1="1556" y2="1556"/>
  <line id="Capline-L" style="fill:none;stroke:#27AAE1;opacity:1;stroke-width:0.577;" x1="263" x2="3036" y1="1485.54" y2="1485.54"/>
  <rect height="119.336" id="left-margin" style="fill:#00AEEF;stroke:none;opacity:0.4;" width="12.4512" x="1402.82" y="1030.79"/>
  <rect height="119.336" id="right-margin" style="fill:#00AEEF;stroke:none;opacity:0.4;" width="12.4512" x="1484.41" y="1030.79"/>
 </g>
 <g id="Symbols">
  <g id="Black-L" transform="matrix(1 0 0 1 2868.48 1556)">
   <path d="M 64.8926 -112.5 C 45.5078 -112.5 26.416 -99.1699 26.416 -69.873 L 26.416 -54.248 C 19.5312 -52.5391 16.0645 -47.2168 16.0645 -37.8906 L 16.0645 11.4746 C 16.0645 23.2422 21.3867 28.6133 32.1777 28.6133 L 97.6562 28.6133 C 108.398 28.6133 113.721 23.2422 113.721 11.4746 L 113.721 -37.8906 C 113.721 -47.2168 110.303 -52.5391 103.369 -54.248 L 103.369 -69.873 C 103.369 -99.1699 84.3262 -112.5 64.8926 -112.5 Z M 46.1914 -70.752 C 46.1914 -86.4258 54.9805 -93.3594 64.8926 -93.3594 C 74.8535 -93.3594 83.5938 -86.4258 83.5938 -70.752 L 83.5938 -54.8828 L 46.1914 -54.8828 Z M 90.8691 -37.207 C 93.0176 -37.207 94.0918 -36.1816 94.0918 -33.6914 L 94.0918 7.32422 C 94.0918 9.81445 93.0176 10.9375 90.8691 10.9375 L 39.0137 10.9375 C 36.8652 10.9375 35.7422 9.81445 35.7422 7.32422 L 35.7422 -33.6914 C 35.7422 -36.1816 36.8652 -37.207 39.0137 -37.207 Z"/>
  </g>
  <g id="Heavy-L" transform="matrix(1 0 0 1 2572.82 1556)">
   <path d="M 63.8672 -110.742 C 44.873 -110.742 26.6113 -97.5586 26.6113 -69.2871 L 26.6113 -53.9551 C 19.5801 -52.4414 16.0645 -47.3145 16.0645 -38.0859 L 16.0645 10.7422 C 16.0645 22.0703 21.1914 27.2461 31.5918 27.2461 L 96.1426 27.2461 C 106.543 27.2461 111.67 22.0703 111.67 10.7422 L 111.67 -38.0859 C 111.67 -47.3145 108.154 -52.4414 101.123 -53.9551 L 101.123 -69.2871 C 101.123 -97.5586 82.8613 -110.742 63.8672 -110.742 Z M 43.75 -70.2148 C 43.75 -86.4258 53.0762 -94.1895 63.8672 -94.1895 C 74.707 -94.1895 83.9844 -86.4258 83.9844 -70.2148 L 83.9844 -54.4434 L 43.75 -54.4434 Z M 90.918 -39.0137 C 93.4082 -39.0137 94.5801 -37.8906 94.5801 -34.9609 L 94.5801 7.71484 C 94.5801 10.6445 93.4082 11.8164 90.918 11.8164 L 36.8652 11.8164 C 34.4238 11.8164 33.1543 10.6445 33.1543 7.71484 L 33.1543 -34.9609 C 33.1543 -37.8906 34.4238 -39.0137 36.8652 -39.0137 Z"/>
  </g>
  <g id="Bold-L" transform="matrix(1 0 0 1 2277.28 1556)">
   <path d="M 62.6953 -108.789 C 44.2383 -108.789 26.8066 -95.8008 26.8066 -68.6523 L 26.8066 -53.6133 C 19.6289 -52.3438 16.0645 -47.4121 16.0645 -38.2812 L 16.0645 9.96094 C 16.0645 20.752 20.9961 25.7324 30.957 25.7324 L 94.4824 25.7324 C 104.443 25.7324 109.326 20.752 109.326 9.96094 L 109.326 -38.2812 C 109.326 -47.4121 105.762 -52.3438 98.584 -53.6133 L 98.584 -68.6523 C 98.584 -95.8008 81.2012 -108.789 62.6953 -108.789 Z M 41.0156 -69.5801 C 41.0156 -86.4746 50.8789 -95.0684 62.6953 -95.0684 C 74.5117 -95.0684 84.375 -86.4746 84.375 -69.5801 L 84.375 -53.9551 L 41.0156 -53.9551 Z M 91.0156 -41.0645 C 93.8477 -41.0645 95.166 -39.8438 95.166 -36.4258 L 95.166 8.1543 C 95.166 11.5234 93.8477 12.8418 91.0156 12.8418 L 34.4727 12.8418 C 31.6406 12.8418 30.2246 11.5234 30.2246 8.1543 L 30.2246 -36.4258 C 30.2246 -39.8438 31.6406 -41.0645 34.4727 -41.0645 Z"/>
  </g>
  <g id="Semibold-L" transform="matrix(1 0 0 1 1981.35 1556)">
   <path d="M 61.9141 -107.422 C 43.75 -107.422 26.9531 -94.5801 26.9531 -68.2129 L 26.9531 -53.3691 C 19.6777 -52.2461 16.0645 -47.4609 16.0645 -38.4277 L 16.0645 9.375 C 16.0645 19.873 20.8496 24.6582 30.4688 24.6582 L 93.3105 24.6582 C 102.979 24.6582 107.715 19.873 107.715 9.375 L 107.715 -38.4277 C 107.715 -47.4609 104.15 -52.2461 96.875 -53.3691 L 96.875 -68.2129 C 96.875 -94.5801 80.0293 -107.422 61.9141 -107.422 Z M 39.1113 -69.1895 C 39.1113 -86.4746 49.4141 -95.7031 61.9141 -95.7031 C 74.4141 -95.7031 84.668 -86.4746 84.668 -69.1895 L 84.668 -53.6133 L 39.1113 -53.6133 Z M 91.0645 -42.4805 C 94.1406 -42.4805 95.5566 -41.1621 95.5566 -37.4512 L 95.5566 8.44727 C 95.5566 12.1582 94.1406 13.5254 91.0645 13.5254 L 32.8125 13.5254 C 29.7363 13.5254 28.2227 12.1582 28.2227 8.44727 L 28.2227 -37.4512 C 28.2227 -41.1621 29.7363 -42.4805 32.8125 -42.4805 Z"/>
  </g>
  <g id="Medium-L" transform="matrix(1 0 0 1 1685.25 1556)">
   <path d="M 61.2793 -106.348 C 43.4082 -106.348 27.0508 -93.6523 27.0508 -67.8711 L 27.0508 -53.1738 C 19.7266 -52.1973 16.0645 -47.5098 16.0645 -38.5254 L 16.0645 8.93555 C 16.0645 19.1895 20.752 23.8281 30.127 23.8281 L 92.4316 23.8281 C 101.855 23.8281 106.494 19.1895 106.494 8.93555 L 106.494 -38.5254 C 106.494 -47.5098 102.881 -52.1973 95.5566 -53.1738 L 95.5566 -67.8711 C 95.5566 -93.6523 79.1992 -106.348 61.2793 -106.348 Z M 37.6953 -68.8477 C 37.6953 -86.4746 48.291 -96.1426 61.2793 -96.1426 C 74.3164 -96.1426 84.9121 -86.4746 84.9121 -68.8477 L 84.9121 -53.3691 L 37.6953 -53.3691 Z M 91.0645 -43.5059 C 94.3359 -43.5059 95.8984 -42.1875 95.8984 -38.2324 L 95.8984 8.64258 C 95.8984 12.5977 94.3359 14.0137 91.0645 14.0137 L 31.543 14.0137 C 28.3203 14.0137 26.709 12.5977 26.709 8.64258 L 26.709 -38.2324 C 26.709 -42.1875 28.3203 -43.5059 31.543 -43.5059 Z"/>
  </g>
  <g id="Regular-L" transform="matrix(1 0 0 1 1389.35 1556)">
   <path d="M 60.498 -105.029 C 42.9688 -105.029 27.1973 -92.4805 27.1973 -67.4805 L 27.1973 -52.8809 C 19.7754 -52.0996 16.0645 -47.5586 16.0645 -38.6719 L 16.0645 8.39844 C 16.0645 18.3105 20.6055 22.8027 29.6875 22.8027 L 91.3086 22.8027 C 100.439 22.8027 104.932 18.3105 104.932 8.39844 L 104.932 -38.6719 C 104.932 -47.5586 101.27 -52.0996 93.8477 -52.8809 L 93.8477 -67.4805 C 93.8477 -92.4805 78.0762 -105.029 60.498 -105.029 Z M 35.8398 -68.457 C 35.8398 -86.5234 46.8262 -96.7773 60.498 -96.7773 C 74.2188 -96.7773 85.1562 -86.5234 85.1562 -68.457 L 85.1562 -53.0273 L 35.8398 -53.0273 Z M 91.1133 -44.9219 C 94.6289 -44.9219 96.2891 -43.5059 96.2891 -39.209 L 96.2891 8.93555 C 96.2891 13.2324 94.6289 14.6973 91.1133 14.6973 L 29.9316 14.6973 C 26.416 14.6973 24.7559 13.2324 24.7559 8.93555 L 24.7559 -39.209 C 24.7559 -43.5059 26.416 -44.9219 29.9316 -44.9219 Z"/>
  </g>
  <g id="Light-L" transform="matrix(1 0 0 1 1092.86 1556)">
   <path d="M 60.3027 -104.004 C 42.7734 -104.004 27.4414 -91.4551 27.4414 -67.4316 L 27.4414 -52.4414 C 19.8242 -51.9531 16.0645 -47.7051 16.0645 -38.8672 L 16.0645 9.13086 C 16.0645 18.6035 20.3613 22.8027 29.0039 22.8027 L 91.5527 22.8027 C 100.244 22.8027 104.492 18.6035 104.492 9.13086 L 104.492 -38.8672 C 104.492 -47.7051 100.732 -51.9531 93.1641 -52.4414 L 93.1641 -67.4316 C 93.1641 -91.4551 77.7832 -104.004 60.3027 -104.004 Z M 34.0332 -67.9688 C 34.0332 -86.6699 45.6543 -97.7051 60.3027 -97.7051 C 74.9023 -97.7051 86.5234 -86.6699 86.5234 -67.9688 L 86.5234 -52.4902 L 34.0332 -52.4902 Z M 91.6016 -46.2891 C 95.8984 -46.2891 97.8516 -44.6777 97.8516 -39.3066 L 97.8516 9.57031 C 97.8516 14.8926 95.8984 16.6016 91.6016 16.6016 L 29.0039 16.6016 C 24.707 16.6016 22.7051 14.8926 22.7051 9.57031 L 22.7051 -39.3066 C 22.7051 -44.6777 24.707 -46.2891 29.0039 -46.2891 Z"/>
  </g>
  <g id="Thin-L" transform="matrix(1 0 0 1 796.437 1556)">
   <path d="M 60.0098 -102.686 C 42.5293 -102.686 27.7344 -90.1367 27.7344 -67.3828 L 27.7344 -51.8555 C 19.9219 -51.7578 16.0645 -47.9492 16.0645 -39.209 L 16.0645 10.1562 C 16.0645 18.9941 20.0195 22.8027 28.0762 22.8027 L 91.8945 22.8027 C 99.9512 22.8027 103.906 18.9941 103.906 10.1562 L 103.906 -39.209 C 103.906 -47.9492 100.049 -51.7578 92.2363 -51.8555 L 92.2363 -67.3828 C 92.2363 -90.1367 77.4414 -102.686 60.0098 -102.686 Z M 31.6895 -67.2852 C 31.6895 -86.8652 44.1406 -98.9746 60.0098 -98.9746 C 75.8301 -98.9746 88.3301 -86.8652 88.3301 -67.2852 L 88.3301 -51.8555 L 31.6895 -51.8555 Z M 92.1875 -48.1445 C 97.5098 -48.1445 99.9512 -46.1914 99.9512 -39.4043 L 99.9512 10.3516 C 99.9512 17.1387 97.5098 19.0918 92.1875 19.0918 L 27.832 19.0918 C 22.4609 19.0918 20.0195 17.1387 20.0195 10.3516 L 20.0195 -39.4043 C 20.0195 -46.1914 22.4609 -48.1445 27.832 -48.1445 Z"/>
  </g>
  <g id="Ultralight-L" transform="matrix(1 0 0 1 499.872 1556)">
   <path d="M 92.0898 -51.5137 L 91.7969 -51.5137 L 91.7969 -67.334 C 91.7969 -89.4531 77.2949 -102.002 59.8633 -102.002 C 42.3828 -102.002 27.8809 -89.4531 27.8809 -67.334 L 27.8809 -51.5137 L 27.5879 -51.5137 C 19.873 -51.5137 16.0645 -47.9004 16.0645 -39.3555 L 16.0645 10.6445 C 16.0645 19.1895 19.873 22.8027 27.5879 22.8027 L 92.0898 22.8027 C 99.8047 22.8027 103.613 19.1895 103.613 10.6445 L 103.613 -39.3555 C 103.613 -47.9004 99.8047 -51.5137 92.0898 -51.5137 Z M 30.4688 -66.9434 C 30.4688 -86.9629 43.3594 -99.6094 59.8633 -99.6094 C 76.3184 -99.6094 89.209 -86.9629 89.209 -66.9434 L 89.209 -51.5137 L 30.4688 -51.5137 Z M 92.4805 -49.0723 C 98.3398 -49.0723 101.025 -46.9727 101.025 -39.502 L 101.025 10.791 C 101.025 18.2617 98.3398 20.3613 92.4805 20.3613 L 27.1973 20.3613 C 21.3379 20.3613 18.6523 18.2617 18.6523 10.791 L 18.6523 -39.502 C 18.6523 -46.9727 21.3379 -49.0723 27.1973 -49.0723 Z"/>
  </g>
  <g id="Black-M" transform="matrix(1 0 0 1 2881.81 1126)">
   <path d="M 51.5625 -96.9727 C 35.9375 -96.9727 20.3613 -86.377 20.3613 -62.793 L 20.3613 -50.1953 C 15.0879 -48.7305 12.4512 -44.4824 12.4512 -37.207 L 12.4512 2.39258 C 12.4512 11.8164 16.6992 16.1133 25.3418 16.1133 L 77.832 16.1133 C 86.4746 16.1133 90.7227 11.8164 90.7227 2.39258 L 90.7227 -37.207 C 90.7227 -44.4824 88.0859 -48.7305 82.8125 -50.1953 L 82.8125 -62.793 C 82.8125 -86.377 67.2363 -96.9727 51.5625 -96.9727 Z M 38.1348 -63.2324 C 38.1348 -74.9512 44.5801 -79.7363 51.5625 -79.7363 C 58.5938 -79.7363 65.0391 -74.9512 65.0391 -63.2324 L 65.0391 -50.8301 L 38.1348 -50.8301 Z M 70.5566 -35.0586 C 72.2656 -35.0586 73.0469 -34.2285 73.0469 -32.3242 L 73.0469 -2.44141 C 73.0469 -0.488281 72.2656 0.390625 70.5566 0.390625 L 32.666 0.390625 C 31.0059 0.390625 30.127 -0.488281 30.127 -2.44141 L 30.127 -32.3242 C 30.127 -34.2285 31.0059 -35.0586 32.666 -35.0586 Z"/>
  </g>
  <g id="Heavy-M" transform="matrix(1 0 0 1 2586.18 1126)">
   <path d="M 50.4883 -95.3125 C 35.3516 -95.3125 20.5078 -84.9121 20.5078 -62.207 L 20.5078 -49.9512 C 15.1367 -48.6328 12.4512 -44.5312 12.4512 -37.3047 L 12.4512 1.36719 C 12.4512 10.4492 16.5527 14.5996 24.9023 14.5996 L 76.123 14.5996 C 84.4238 14.5996 88.5254 10.4492 88.5254 1.36719 L 88.5254 -37.3047 C 88.5254 -44.5312 85.8887 -48.6328 80.5176 -49.9512 L 80.5176 -62.207 C 80.5176 -84.9121 65.6738 -95.3125 50.4883 -95.3125 Z M 35.9375 -62.7441 C 35.9375 -74.9512 42.7734 -80.3223 50.4883 -80.3223 C 58.2031 -80.3223 65.0879 -74.9512 65.0879 -62.7441 L 65.0879 -50.4395 L 35.9375 -50.4395 Z M 70.5078 -36.6699 C 72.3633 -36.6699 73.1934 -35.8398 73.1934 -33.7402 L 73.1934 -2.19727 C 73.1934 -0.0488281 72.3633 0.830078 70.5078 0.830078 L 30.5664 0.830078 C 28.7109 0.830078 27.7832 -0.0488281 27.7832 -2.19727 L 27.7832 -33.7402 C 27.7832 -35.8398 28.7109 -36.6699 30.5664 -36.6699 Z"/>
  </g>
  <g id="Bold-M" transform="matrix(1 0 0 1 2290.69 1126)">
   <path d="M 49.3164 -93.4082 C 34.668 -93.4082 20.6543 -83.252 20.6543 -61.5234 L 20.6543 -49.707 C 15.1855 -48.5352 12.4512 -44.5801 12.4512 -37.4512 L 12.4512 0.244141 C 12.4512 8.93555 16.4062 12.9395 24.3652 12.9395 L 74.2188 12.9395 C 82.1777 12.9395 86.1328 8.93555 86.1328 0.244141 L 86.1328 -37.4512 C 86.1328 -44.5801 83.4473 -48.5352 77.9297 -49.707 L 77.9297 -61.5234 C 77.9297 -83.252 63.916 -93.4082 49.3164 -93.4082 Z M 33.4473 -62.2559 C 33.4473 -74.9023 40.7715 -81.0547 49.3164 -81.0547 C 57.8613 -81.0547 65.1367 -74.9023 65.1367 -62.2559 L 65.1367 -50.0488 L 33.4473 -50.0488 Z M 70.459 -38.5254 C 72.4609 -38.5254 73.3887 -37.5977 73.3887 -35.3027 L 73.3887 -1.9043 C 73.3887 0.439453 72.4609 1.36719 70.459 1.36719 L 28.1738 1.36719 C 26.2207 1.36719 25.2441 0.439453 25.2441 -1.9043 L 25.2441 -35.3027 C 25.2441 -37.5977 26.2207 -38.5254 28.1738 -38.5254 Z"/>
  </g>
  <g id="Semibold-M" transform="matrix(1 0 0 1 1994.8 1126)">
   <path d="M 48.4863 -92.1387 C 34.2285 -92.1387 20.752 -82.1289 20.752 -61.0352 L 20.752 -49.5117 C 15.1855 -48.4863 12.4512 -44.6289 12.4512 -37.5488 L 12.4512 -0.537109 C 12.4512 7.91016 16.3086 11.7676 24.0234 11.7676 L 72.9004 11.7676 C 80.6641 11.7676 84.4727 7.91016 84.4727 -0.537109 L 84.4727 -37.5488 C 84.4727 -44.6289 81.7383 -48.4863 76.1719 -49.5117 L 76.1719 -61.0352 C 76.1719 -82.1289 62.7441 -92.1387 48.4863 -92.1387 Z M 31.7871 -61.8652 C 31.7871 -74.9023 39.3555 -81.543 48.4863 -81.543 C 57.5684 -81.543 65.1855 -74.9023 65.1855 -61.8652 L 65.1855 -49.7559 L 31.7871 -49.7559 Z M 70.459 -39.7461 C 72.5098 -39.7461 73.4863 -38.8184 73.4863 -36.377 L 73.4863 -1.70898 C 73.4863 0.78125 72.5098 1.75781 70.459 1.75781 L 26.5625 1.75781 C 24.4629 1.75781 23.4375 0.78125 23.4375 -1.70898 L 23.4375 -36.377 C 23.4375 -38.8184 24.4629 -39.7461 26.5625 -39.7461 Z"/>
  </g>
  <g id="Medium-M" transform="matrix(1 0 0 1 1698.73 1126)">
   <path d="M 47.8516 -91.1621 C 33.8379 -91.1621 20.8496 -81.25 20.8496 -60.6934 L 20.8496 -49.3652 C 15.2344 -48.4375 12.4512 -44.6777 12.4512 -37.6465 L 12.4512 -1.12305 C 12.4512 7.12891 16.2109 10.8887 23.7793 10.8887 L 71.9238 10.8887 C 79.4922 10.8887 83.2031 7.12891 83.2031 -1.12305 L 83.2031 -37.6465 C 83.2031 -44.6777 80.4199 -48.4375 74.8535 -49.3652 L 74.8535 -60.6934 C 74.8535 -81.25 61.8164 -91.1621 47.8516 -91.1621 Z M 30.4688 -61.6211 C 30.4688 -74.9023 38.3301 -81.8848 47.8516 -81.8848 C 57.373 -81.8848 65.1855 -74.9023 65.1855 -61.6211 L 65.1855 -49.5605 L 30.4688 -49.5605 Z M 70.4102 -40.7227 C 72.5586 -40.7227 73.584 -39.7461 73.584 -37.207 L 73.584 -1.5625 C 73.584 1.02539 72.5586 2.05078 70.4102 2.05078 L 25.3418 2.05078 C 23.1445 2.05078 22.0703 1.02539 22.0703 -1.5625 L 22.0703 -37.207 C 22.0703 -39.7461 23.1445 -40.7227 25.3418 -40.7227 Z"/>
  </g>
  <g id="Regular-M" transform="matrix(1 0 0 1 1402.82 1126)">
   <path d="M 47.0215 -89.8926 C 33.3984 -89.8926 20.9473 -80.1758 20.9473 -60.2051 L 20.9473 -49.1211 C 15.2832 -48.3398 12.4512 -44.6777 12.4512 -37.7441 L 12.4512 -1.85547 C 12.4512 6.10352 16.1133 9.7168 23.4375 9.7168 L 70.6055 9.7168 C 77.9297 9.7168 81.5918 6.10352 81.5918 -1.85547 L 81.5918 -37.7441 C 81.5918 -44.6777 78.7598 -48.3398 73.0957 -49.1211 L 73.0957 -60.2051 C 73.0957 -80.1758 60.6445 -89.8926 47.0215 -89.8926 Z M 28.8086 -61.2793 C 28.8086 -74.9023 36.9141 -82.373 47.0215 -82.373 C 57.0801 -82.373 65.2344 -74.9023 65.2344 -61.2793 L 65.2344 -49.3164 L 28.8086 -49.3164 Z M 70.3613 -41.9434 C 72.6562 -41.9434 73.7305 -40.9668 73.7305 -38.2812 L 73.7305 -1.36719 C 73.7305 1.36719 72.6562 2.39258 70.3613 2.39258 L 23.6816 2.39258 C 21.4355 2.39258 20.3125 1.36719 20.3125 -1.36719 L 20.3125 -38.2812 C 20.3125 -40.9668 21.4355 -41.9434 23.6816 -41.9434 Z"/>
  </g>
  <g id="Light-M" transform="matrix(1 0 0 1 1106.31 1126)">
   <path d="M 46.8262 -88.9648 C 33.252 -88.9648 21.1426 -79.248 21.1426 -60.2051 L 21.1426 -48.7793 C 15.332 -48.2422 12.4512 -44.8242 12.4512 -37.9395 L 12.4512 -1.17188 C 12.4512 6.34766 15.8691 9.7168 22.8027 9.7168 L 70.8496 9.7168 C 77.7832 9.7168 81.1523 6.34766 81.1523 -1.17188 L 81.1523 -37.9395 C 81.1523 -44.8242 78.3203 -48.2422 72.5098 -48.7793 L 72.5098 -60.2051 C 72.5098 -79.248 60.4004 -88.9648 46.8262 -88.9648 Z M 27.1973 -60.791 C 27.1973 -75 35.8887 -83.2031 46.8262 -83.2031 C 57.7148 -83.2031 66.4551 -75 66.4551 -60.791 L 66.4551 -48.8281 L 27.1973 -48.8281 Z M 70.752 -43.2129 C 73.7305 -43.2129 75.1465 -42.041 75.1465 -38.3301 L 75.1465 -0.78125 C 75.1465 2.88086 73.7305 4.10156 70.752 4.10156 L 22.9004 4.10156 C 19.9219 4.10156 18.5059 2.88086 18.5059 -0.78125 L 18.5059 -38.3301 C 18.5059 -42.041 19.9219 -43.2129 22.9004 -43.2129 Z"/>
  </g>
  <g id="Thin-M" transform="matrix(1 0 0 1 809.865 1126)">
   <path d="M 46.5332 -87.793 C 33.0078 -87.793 21.4355 -78.0762 21.4355 -60.1562 L 21.4355 -48.2422 C 15.4297 -48.0957 12.4512 -45.0195 12.4512 -38.2324 L 12.4512 -0.292969 C 12.4512 6.68945 15.5762 9.7168 21.9727 9.7168 L 71.1426 9.7168 C 77.5391 9.7168 80.6641 6.68945 80.6641 -0.292969 L 80.6641 -38.2324 C 80.6641 -45.0195 77.6855 -48.0957 71.6797 -48.2422 L 71.6797 -60.1562 C 71.6797 -78.0762 60.1074 -87.793 46.5332 -87.793 Z M 25.0488 -60.2051 C 25.0488 -75.1953 34.5215 -84.3262 46.5332 -84.3262 C 58.5449 -84.3262 68.0664 -75.1953 68.0664 -60.2051 L 68.0664 -48.2422 L 25.0488 -48.2422 Z M 71.2891 -44.8242 C 75.2441 -44.8242 77.002 -43.4082 77.002 -38.4277 L 77.002 -0.0976562 C 77.002 4.88281 75.2441 6.29883 71.2891 6.29883 L 21.8262 6.29883 C 17.9199 6.29883 16.1133 4.88281 16.1133 -0.0976562 L 16.1133 -38.4277 C 16.1133 -43.4082 17.9199 -44.8242 21.8262 -44.8242 Z"/>
  </g>
  <g id="Ultralight-M" transform="matrix(1 0 0 1 513.3 1126)">
   <path d="M 71.2891 -47.9492 L 71.2891 -60.1074 C 71.2891 -77.4902 59.9609 -87.207 46.4355 -87.207 C 32.9102 -87.207 21.582 -77.4902 21.582 -60.1074 L 21.582 -47.9492 L 21.5332 -47.9492 C 15.4297 -47.9492 12.4512 -45.1172 12.4512 -38.3789 L 12.4512 0.195312 C 12.4512 6.88477 15.4297 9.7168 21.5332 9.7168 L 71.2891 9.7168 C 77.3926 9.7168 80.3711 6.88477 80.3711 0.195312 L 80.3711 -38.3789 C 80.3711 -45.1172 77.3926 -47.9492 71.2891 -47.9492 Z M 23.9746 -59.9121 C 23.9746 -75.293 33.8379 -84.9121 46.4355 -84.9121 C 58.9844 -84.9121 68.8965 -75.293 68.8965 -59.9121 L 68.8965 -47.9492 L 23.9746 -47.9492 Z M 71.582 -45.6543 C 75.9766 -45.6543 77.9785 -44.0918 77.9785 -38.5254 L 77.9785 0.292969 C 77.9785 5.9082 75.9766 7.4707 71.582 7.4707 L 21.2891 7.4707 C 16.8457 7.4707 14.8438 5.9082 14.8438 0.292969 L 14.8438 -38.5254 C 14.8438 -44.0918 16.8457 -45.6543 21.2891 -45.6543 Z"/>
  </g>
  <g id="Black-S" transform="matrix(1 0 0 1 2893.07 696)">
   <path d="M 40.332 -83.4961 C 28.125 -83.4961 15.9668 -75.1953 15.9668 -56.7871 L 15.9668 -46.9238 C 11.8164 -45.8008 9.76562 -42.4805 9.76562 -36.7676 L 9.76562 -5.85938 C 9.76562 1.51367 13.0859 4.88281 19.8242 4.88281 L 60.8398 4.88281 C 67.5781 4.88281 70.8984 1.51367 70.8984 -5.85938 L 70.8984 -36.7676 C 70.8984 -42.4805 68.8477 -45.8008 64.6973 -46.9238 L 64.6973 -56.7871 C 64.6973 -75.1953 52.5391 -83.4961 40.332 -83.4961 Z M 29.7363 -57.1289 C 29.7363 -66.3574 34.8145 -70.1172 40.332 -70.1172 C 45.8496 -70.1172 50.9277 -66.3574 50.9277 -57.1289 L 50.9277 -47.4121 L 29.7363 -47.4121 Z M 55.2734 -35.2051 C 56.5918 -35.2051 57.2266 -34.5703 57.2266 -33.0566 L 57.2266 -9.52148 C 57.2266 -8.00781 56.5918 -7.32422 55.2734 -7.32422 L 25.4395 -7.32422 C 24.1211 -7.32422 23.4375 -8.00781 23.4375 -9.52148 L 23.4375 -33.0566 C 23.4375 -34.5703 24.1211 -35.2051 25.4395 -35.2051 Z"/>
  </g>
  <g id="Heavy-S" transform="matrix(1 0 0 1 2597.16 696)">
   <path d="M 39.5508 -82.3242 C 27.6855 -82.3242 16.0645 -74.1699 16.0645 -56.3477 L 16.0645 -46.7773 C 11.8652 -45.752 9.76562 -42.5293 9.76562 -36.8652 L 9.76562 -6.68945 C 9.76562 0.439453 12.9883 3.71094 19.5312 3.71094 L 59.5215 3.71094 C 66.0645 3.71094 69.2871 0.439453 69.2871 -6.68945 L 69.2871 -36.8652 C 69.2871 -42.5293 67.2363 -45.752 63.0371 -46.7773 L 63.0371 -56.3477 C 63.0371 -74.1699 51.3672 -82.3242 39.5508 -82.3242 Z M 28.2227 -56.8359 C 28.2227 -66.3086 33.5449 -70.5078 39.5508 -70.5078 C 45.5078 -70.5078 50.8301 -66.3086 50.8301 -56.8359 L 50.8301 -47.168 L 28.2227 -47.168 Z M 55.1758 -36.3281 C 56.543 -36.3281 57.1777 -35.6445 57.1777 -34.1309 L 57.1777 -9.375 C 57.1777 -7.86133 56.543 -7.12891 55.1758 -7.12891 L 23.9258 -7.12891 C 22.5586 -7.12891 21.875 -7.86133 21.875 -9.375 L 21.875 -34.1309 C 21.875 -35.6445 22.5586 -36.3281 23.9258 -36.3281 Z"/>
  </g>
  <g id="Bold-S" transform="matrix(1 0 0 1 2301.35 696)">
   <path d="M 38.623 -81.0059 C 27.1973 -81.0059 16.1133 -73.0469 16.1133 -55.8105 L 16.1133 -46.6309 C 11.8652 -45.6543 9.76562 -42.5293 9.76562 -36.9141 L 9.76562 -7.61719 C 9.76562 -0.732422 12.8906 2.44141 19.2383 2.44141 L 58.0078 2.44141 C 64.3555 2.44141 67.4805 -0.732422 67.4805 -7.61719 L 67.4805 -36.9141 C 67.4805 -42.5293 65.3809 -45.6543 61.1328 -46.6309 L 61.1328 -55.8105 C 61.1328 -73.0469 50.0977 -81.0059 38.623 -81.0059 Z M 26.5137 -56.4941 C 26.5137 -66.3086 32.1289 -70.9473 38.623 -70.9473 C 45.166 -70.9473 50.7324 -66.3086 50.7324 -56.4941 L 50.7324 -46.9238 L 26.5137 -46.9238 Z M 55.127 -37.5488 C 56.4941 -37.5488 57.1289 -36.9141 57.1289 -35.3027 L 57.1289 -9.22852 C 57.1289 -7.66602 56.4941 -6.93359 55.127 -6.93359 L 22.2168 -6.93359 C 20.8496 -6.93359 20.1172 -7.66602 20.1172 -9.22852 L 20.1172 -35.3027 C 20.1172 -36.9141 20.8496 -37.5488 22.2168 -37.5488 Z"/>
  </g>
  <g id="Semibold-S" transform="matrix(1 0 0 1 2005.25 696)">
   <path d="M 38.0371 -80.0781 C 26.8555 -80.0781 16.2109 -72.2168 16.2109 -55.4688 L 16.2109 -46.4844 C 11.9141 -45.6543 9.76562 -42.5293 9.76562 -37.0117 L 9.76562 -8.30078 C 9.76562 -1.5625 12.8418 1.5625 19.043 1.5625 L 56.9824 1.5625 C 63.1836 1.5625 66.2598 -1.5625 66.2598 -8.30078 L 66.2598 -37.0117 C 66.2598 -42.5293 64.1113 -45.6543 59.8145 -46.4844 L 59.8145 -55.4688 C 59.8145 -72.2168 49.1699 -80.0781 38.0371 -80.0781 Z M 25.3906 -56.25 C 25.3906 -66.2598 31.1523 -71.2402 38.0371 -71.2402 C 44.873 -71.2402 50.6348 -66.2598 50.6348 -56.25 L 50.6348 -46.7773 L 25.3906 -46.7773 Z M 55.0293 -38.3789 C 56.4453 -38.3789 57.1289 -37.7441 57.1289 -36.1328 L 57.1289 -9.13086 C 57.1289 -7.51953 56.4453 -6.83594 55.0293 -6.83594 L 21.0449 -6.83594 C 19.6289 -6.83594 18.8965 -7.51953 18.8965 -9.13086 L 18.8965 -36.1328 C 18.8965 -37.7441 19.6289 -38.3789 21.0449 -38.3789 Z"/>
  </g>
  <g id="Medium-S" transform="matrix(1 0 0 1 1709.01 696)">
   <path d="M 37.5488 -79.3945 C 26.5625 -79.3945 16.2109 -71.6309 16.2109 -55.1758 L 16.2109 -46.3867 C 11.9141 -45.6055 9.76562 -42.5781 9.76562 -37.0117 L 9.76562 -8.78906 C 9.76562 -2.19727 12.793 0.878906 18.8477 0.878906 L 56.2012 0.878906 C 62.3047 0.878906 65.332 -2.19727 65.332 -8.78906 L 65.332 -37.0117 C 65.332 -42.5781 63.1836 -45.6055 58.8379 -46.3867 L 58.8379 -55.1758 C 58.8379 -71.6309 48.4863 -79.3945 37.5488 -79.3945 Z M 24.4629 -56.0547 C 24.4629 -66.2598 30.4199 -71.4844 37.5488 -71.4844 C 44.6777 -71.4844 50.5859 -66.2598 50.5859 -56.0547 L 50.5859 -46.6309 L 24.4629 -46.6309 Z M 54.9805 -39.0625 C 56.3965 -39.0625 57.0801 -38.3789 57.0801 -36.7676 L 57.0801 -9.0332 C 57.0801 -7.42188 56.3965 -6.68945 54.9805 -6.68945 L 20.1172 -6.68945 C 18.7012 -6.68945 18.0176 -7.42188 18.0176 -9.0332 L 18.0176 -36.7676 C 18.0176 -38.3789 18.7012 -39.0625 20.1172 -39.0625 Z"/>
  </g>
  <g id="Regular-S" transform="matrix(1 0 0 1 1412.91 696)">
   <path d="M 36.9141 -78.4668 C 26.2207 -78.4668 16.3086 -70.8496 16.3086 -54.834 L 16.3086 -46.2891 C 11.9141 -45.5566 9.76562 -42.5781 9.76562 -37.1094 L 9.76562 -9.42383 C 9.76562 -2.97852 12.6953 0 18.6523 0 L 55.2246 0 C 61.1328 0 64.1113 -2.97852 64.1113 -9.42383 L 64.1113 -37.1094 C 64.1113 -42.5781 61.9141 -45.5566 57.5684 -46.2891 L 57.5684 -54.834 C 57.5684 -70.8496 47.6074 -78.4668 36.9141 -78.4668 Z M 23.3398 -55.8594 C 23.3398 -66.2109 29.4434 -71.7773 36.9141 -71.7773 C 44.4336 -71.7773 50.5371 -66.2109 50.5371 -55.8594 L 50.5371 -46.4844 L 23.3398 -46.4844 Z M 54.9316 -39.8926 C 56.3965 -39.8926 57.0801 -39.209 57.0801 -37.5488 L 57.0801 -8.93555 C 57.0801 -7.27539 56.3965 -6.5918 54.9316 -6.5918 L 18.9453 -6.5918 C 17.5293 -6.5918 16.7969 -7.27539 16.7969 -8.93555 L 16.7969 -37.5488 C 16.7969 -39.209 17.5293 -39.8926 18.9453 -39.8926 Z"/>
  </g>
  <g id="Light-S" transform="matrix(1 0 0 1 1116.37 696)">
   <path d="M 36.7676 -77.6855 C 26.0742 -77.6855 16.5039 -70.0684 16.5039 -54.7852 L 16.5039 -45.9961 C 12.0117 -45.459 9.76562 -42.7246 9.76562 -37.3047 L 9.76562 -8.83789 C 9.76562 -2.73438 12.5 0 18.1152 0 L 55.4199 0 C 60.9863 0 63.7695 -2.73438 63.7695 -8.83789 L 63.7695 -37.3047 C 63.7695 -42.7246 61.5234 -45.459 57.0312 -45.9961 L 57.0312 -54.7852 C 57.0312 -70.0684 47.4121 -77.6855 36.7676 -77.6855 Z M 21.9238 -55.4199 C 21.9238 -66.3574 28.5156 -72.5098 36.7676 -72.5098 C 44.9707 -72.5098 51.6113 -66.3574 51.6113 -55.4199 L 51.6113 -46.0449 L 21.9238 -46.0449 Z M 55.2734 -40.9668 C 57.373 -40.9668 58.3008 -40.1367 58.3008 -37.6465 L 58.3008 -8.44727 C 58.3008 -5.95703 57.373 -5.07812 55.2734 -5.07812 L 18.2617 -5.07812 C 16.2109 -5.07812 15.1855 -5.95703 15.1855 -8.44727 L 15.1855 -37.6465 C 15.1855 -40.1367 16.2109 -40.9668 18.2617 -40.9668 Z"/>
  </g>
  <g id="Thin-S" transform="matrix(1 0 0 1 819.899 696)">
   <path d="M 36.5234 -76.6602 C 25.9277 -76.6602 16.748 -69.043 16.748 -54.7852 L 16.748 -45.5078 C 12.0605 -45.3125 9.76562 -42.8711 9.76562 -37.5488 L 9.76562 -8.00781 C 9.76562 -2.44141 12.2559 0 17.3828 0 L 55.6641 0 C 60.791 0 63.2812 -2.44141 63.2812 -8.00781 L 63.2812 -37.5488 C 63.2812 -42.8711 60.9863 -45.3125 56.2988 -45.5078 L 56.2988 -54.7852 C 56.2988 -69.043 47.168 -76.6602 36.5234 -76.6602 Z M 20.0195 -54.9316 C 20.0195 -66.5039 27.3438 -73.4863 36.5234 -73.4863 C 45.7031 -73.4863 53.0273 -66.5039 53.0273 -54.9316 L 53.0273 -45.5566 L 20.0195 -45.5566 Z M 55.7617 -42.4316 C 58.6426 -42.4316 59.9609 -41.3574 59.9609 -37.7441 L 59.9609 -7.8125 C 59.9609 -4.19922 58.6426 -3.125 55.7617 -3.125 L 17.2852 -3.125 C 14.4043 -3.125 13.0859 -4.19922 13.0859 -7.8125 L 13.0859 -37.7441 C 13.0859 -41.3574 14.4043 -42.4316 17.2852 -42.4316 Z"/>
  </g>
  <g id="Ultralight-S" transform="matrix(1 0 0 1 523.31 696)">
   <path d="M 36.4258 -76.123 C 25.7812 -76.123 16.8457 -68.5059 16.8457 -54.7363 L 16.8457 -45.2637 C 12.1582 -45.2637 9.76562 -43.0176 9.76562 -37.6465 L 9.76562 -7.61719 C 9.76562 -2.29492 12.1582 0 16.9922 0 L 55.8105 0 C 60.6934 0 63.0371 -2.29492 63.0371 -7.61719 L 63.0371 -37.6465 C 63.0371 -42.9688 60.6934 -45.2637 55.957 -45.2637 L 55.957 -54.7363 C 55.957 -68.5059 47.0215 -76.123 36.4258 -76.123 Z M 19.0918 -54.6387 C 19.0918 -66.6016 26.709 -74.0234 36.4258 -74.0234 C 46.0938 -74.0234 53.7598 -66.6016 53.7598 -54.6387 L 53.7598 -45.2637 L 19.0918 -45.2637 Z M 56.0059 -43.1641 C 59.3262 -43.1641 60.8398 -41.9922 60.8398 -37.793 L 60.8398 -7.51953 C 60.8398 -3.27148 59.3262 -2.09961 56.0059 -2.09961 L 16.7969 -2.09961 C 13.4766 -2.09961 11.9629 -3.27148 11.9629 -7.51953 L 11.9629 -37.793 C 11.9629 -41.9922 13.4766 -43.1641 16.7969 -43.1641 Z"/>
  </g>
 </g>
</svg>
