<?xml version="1.0" encoding="UTF-8"?>
<!--Generator: Apple Native CoreSVG 123-->
<!DOCTYPE svg
PUBLIC "-//W3C//DTD SVG 1.1//EN"
       "http://www.w3.org/Graphics/SVG/1.1/DTD/svg11.dtd">
<svg version="1.1" xmlns="http://www.w3.org/2000/svg" xmlns:xlink="http://www.w3.org/1999/xlink" width="3300" height="2200">
 <!--glyph: "uni10041C.medium", point size: 100.000000, font version: "Version 15.0d5e5", template writer version: "5"-->
 <g id="Notes">
  <rect height="2200" id="artboard" style="fill:white;opacity:1" width="3300" x="0" y="0"/>
  <line id="" style="fill:none;stroke:black;opacity:1;stroke-width:0.5;" x1="263" x2="3036" y1="292" y2="292"/>
  <text style="stroke:none;fill:black;font-family:-apple-system,&quot;SF Pro Display&quot;,&quot;SF Pro Text&quot;,Helvetica,sans-serif;font-weight:bold;" transform="matrix(1 0 0 1 263 322)">Weight/Scale Variations</text>
  <text style="stroke:none;fill:black;font-family:-apple-system,&quot;SF Pro Display&quot;,&quot;SF Pro Text&quot;,Helvetica,sans-serif;text-anchor:middle;" transform="matrix(1 0 0 1 559.711 322)">Ultralight</text>
  <text style="stroke:none;fill:black;font-family:-apple-system,&quot;SF Pro Display&quot;,&quot;SF Pro Text&quot;,Helvetica,sans-serif;text-anchor:middle;" transform="matrix(1 0 0 1 856.422 322)">Thin</text>
  <text style="stroke:none;fill:black;font-family:-apple-system,&quot;SF Pro Display&quot;,&quot;SF Pro Text&quot;,Helvetica,sans-serif;text-anchor:middle;" transform="matrix(1 0 0 1 1153.13 322)">Light</text>
  <text style="stroke:none;fill:black;font-family:-apple-system,&quot;SF Pro Display&quot;,&quot;SF Pro Text&quot;,Helvetica,sans-serif;text-anchor:middle;" transform="matrix(1 0 0 1 1449.84 322)">Regular</text>
  <text style="stroke:none;fill:black;font-family:-apple-system,&quot;SF Pro Display&quot;,&quot;SF Pro Text&quot;,Helvetica,sans-serif;text-anchor:middle;" transform="matrix(1 0 0 1 1746.56 322)">Medium</text>
  <text style="stroke:none;fill:black;font-family:-apple-system,&quot;SF Pro Display&quot;,&quot;SF Pro Text&quot;,Helvetica,sans-serif;text-anchor:middle;" transform="matrix(1 0 0 1 2043.27 322)">Semibold</text>
  <text style="stroke:none;fill:black;font-family:-apple-system,&quot;SF Pro Display&quot;,&quot;SF Pro Text&quot;,Helvetica,sans-serif;text-anchor:middle;" transform="matrix(1 0 0 1 2339.98 322)">Bold</text>
  <text style="stroke:none;fill:black;font-family:-apple-system,&quot;SF Pro Display&quot;,&quot;SF Pro Text&quot;,Helvetica,sans-serif;text-anchor:middle;" transform="matrix(1 0 0 1 2636.69 322)">Heavy</text>
  <text style="stroke:none;fill:black;font-family:-apple-system,&quot;SF Pro Display&quot;,&quot;SF Pro Text&quot;,Helvetica,sans-serif;text-anchor:middle;" transform="matrix(1 0 0 1 2933.4 322)">Black</text>
  <line id="" style="fill:none;stroke:black;opacity:1;stroke-width:0.5;" x1="263" x2="3036" y1="1903" y2="1903"/>
  <g id="" transform="matrix(1 0 0 1 263 1933)">
   <path d="M 9.24805 0.830078 C 13.5547 0.830078 17.1387 -2.74414 17.1387 -7.05078 C 17.1387 -11.3574 13.5449 -14.9316 9.23828 -14.9316 C 4.94141 -14.9316 1.36719 -11.3574 1.36719 -7.05078 C 1.36719 -2.74414 4.95117 0.830078 9.24805 0.830078 Z M 9.24805 -0.654297 C 5.70312 -0.654297 2.87109 -3.49609 2.87109 -7.05078 C 2.87109 -10.6055 5.69336 -13.4473 9.23828 -13.4473 C 12.793 -13.4473 15.6348 -10.6055 15.6445 -7.05078 C 15.6543 -3.49609 12.8027 -0.654297 9.24805 -0.654297 Z M 9.22852 -3.42773 C 9.69727 -3.42773 9.9707 -3.74023 9.9707 -4.25781 L 9.9707 -6.31836 L 12.1973 -6.31836 C 12.6953 -6.31836 13.0371 -6.57227 13.0371 -7.04102 C 13.0371 -7.51953 12.7148 -7.7832 12.1973 -7.7832 L 9.9707 -7.7832 L 9.9707 -10.0098 C 9.9707 -10.5273 9.69727 -10.8496 9.22852 -10.8496 C 8.75977 -10.8496 8.50586 -10.5078 8.50586 -10.0098 L 8.50586 -7.7832 L 6.29883 -7.7832 C 5.78125 -7.7832 5.44922 -7.51953 5.44922 -7.04102 C 5.44922 -6.57227 5.80078 -6.31836 6.29883 -6.31836 L 8.50586 -6.31836 L 8.50586 -4.25781 C 8.50586 -3.75977 8.75977 -3.42773 9.22852 -3.42773 Z"/>
  </g>
  <g id="" transform="matrix(1 0 0 1 281.506 1933)">
   <path d="M 11.709 2.91016 C 17.1484 2.91016 21.6699 -1.60156 21.6699 -7.05078 C 21.6699 -12.4902 17.1387 -17.0117 11.6992 -17.0117 C 6.25 -17.0117 1.74805 -12.4902 1.74805 -7.05078 C 1.74805 -1.60156 6.25977 2.91016 11.709 2.91016 Z M 11.709 1.25 C 7.09961 1.25 3.41797 -2.44141 3.41797 -7.05078 C 3.41797 -11.6504 7.08984 -15.3516 11.6992 -15.3516 C 16.2988 -15.3516 20 -11.6504 20.0098 -7.05078 C 20.0195 -2.44141 16.3086 1.25 11.709 1.25 Z M 11.6797 -2.41211 C 12.207 -2.41211 12.5195 -2.77344 12.5195 -3.33984 L 12.5195 -6.23047 L 15.5762 -6.23047 C 16.123 -6.23047 16.5039 -6.51367 16.5039 -7.03125 C 16.5039 -7.55859 16.1426 -7.86133 15.5762 -7.86133 L 12.5195 -7.86133 L 12.5195 -10.9277 C 12.5195 -11.5039 12.207 -11.8555 11.6797 -11.8555 C 11.1621 -11.8555 10.8789 -11.4844 10.8789 -10.9277 L 10.8789 -7.86133 L 7.83203 -7.86133 C 7.25586 -7.86133 6.89453 -7.55859 6.89453 -7.03125 C 6.89453 -6.51367 7.28516 -6.23047 7.83203 -6.23047 L 10.8789 -6.23047 L 10.8789 -3.33984 C 10.8789 -2.79297 11.1621 -2.41211 11.6797 -2.41211 Z"/>
  </g>
  <g id="" transform="matrix(1 0 0 1 304.914 1933)">
   <path d="M 14.9707 5.67383 C 21.9336 5.67383 27.6855 -0.078125 27.6855 -7.04102 C 27.6855 -14.0039 21.9238 -19.7559 14.9609 -19.7559 C 7.99805 -19.7559 2.25586 -14.0039 2.25586 -7.04102 C 2.25586 -0.078125 8.00781 5.67383 14.9707 5.67383 Z M 14.9707 3.85742 C 8.92578 3.85742 4.08203 -1.00586 4.08203 -7.04102 C 4.08203 -13.0762 8.91602 -17.9395 14.9609 -17.9395 C 20.9961 -17.9395 25.8594 -13.0762 25.8691 -7.04102 C 25.8789 -1.00586 21.0059 3.85742 14.9707 3.85742 Z M 14.9414 -1.06445 C 15.5176 -1.06445 15.8594 -1.45508 15.8594 -2.06055 L 15.8594 -6.13281 L 20.0977 -6.13281 C 20.6934 -6.13281 21.1133 -6.46484 21.1133 -7.02148 C 21.1133 -7.59766 20.7227 -7.93945 20.0977 -7.93945 L 15.8594 -7.93945 L 15.8594 -12.1875 C 15.8594 -12.8027 15.5176 -13.1934 14.9414 -13.1934 C 14.3848 -13.1934 14.0625 -12.7832 14.0625 -12.1875 L 14.0625 -7.93945 L 9.82422 -7.93945 C 9.20898 -7.93945 8.80859 -7.59766 8.80859 -7.02148 C 8.80859 -6.46484 9.23828 -6.13281 9.82422 -6.13281 L 14.0625 -6.13281 L 14.0625 -2.06055 C 14.0625 -1.47461 14.3848 -1.06445 14.9414 -1.06445 Z"/>
  </g>
  <text style="stroke:none;fill:black;font-family:-apple-system,&quot;SF Pro Display&quot;,&quot;SF Pro Text&quot;,Helvetica,sans-serif;font-weight:bold;" transform="matrix(1 0 0 1 263 1953)">Design Variations</text>
  <text style="stroke:none;fill:black;font-family:-apple-system,&quot;SF Pro Display&quot;,&quot;SF Pro Text&quot;,Helvetica,sans-serif;" transform="matrix(1 0 0 1 263 1971)">Symbols are supported in up to nine weights and three scales.</text>
  <text style="stroke:none;fill:black;font-family:-apple-system,&quot;SF Pro Display&quot;,&quot;SF Pro Text&quot;,Helvetica,sans-serif;" transform="matrix(1 0 0 1 263 1989)">For optimal layout with text and other symbols, vertically align</text>
  <text style="stroke:none;fill:black;font-family:-apple-system,&quot;SF Pro Display&quot;,&quot;SF Pro Text&quot;,Helvetica,sans-serif;" transform="matrix(1 0 0 1 263 2007)">symbols with the adjacent text.</text>
  <rect height="14" id="" style="fill:#00AEEF;stroke:none;opacity:0.4;" width="3" x="776" y="1919"/>
  <g id="" transform="matrix(1 0 0 1 779 1933)">
   <path d="M 10.5273 0 L 12.373 0 L 7.17773 -14.0918 L 5.43945 -14.0918 L 0.244141 0 L 2.08984 0 L 3.50586 -4.0332 L 9.11133 -4.0332 Z M 6.2793 -11.9531 L 6.33789 -11.9531 L 8.59375 -5.52734 L 4.02344 -5.52734 Z"/>
  </g>
  <rect height="14" id="" style="fill:#00AEEF;stroke:none;opacity:0.4;" width="3" x="791.617" y="1919"/>
  <text style="stroke:none;fill:black;font-family:-apple-system,&quot;SF Pro Display&quot;,&quot;SF Pro Text&quot;,Helvetica,sans-serif;font-weight:bold;" transform="matrix(1 0 0 1 776 1953)">Margins</text>
  <text style="stroke:none;fill:black;font-family:-apple-system,&quot;SF Pro Display&quot;,&quot;SF Pro Text&quot;,Helvetica,sans-serif;" transform="matrix(1 0 0 1 776 1971)">Leading and trailing margins on the left and right side of each symbol</text>
  <text style="stroke:none;fill:black;font-family:-apple-system,&quot;SF Pro Display&quot;,&quot;SF Pro Text&quot;,Helvetica,sans-serif;" transform="matrix(1 0 0 1 776 1989)">can be adjusted by modifying the width of the blue rectangles.</text>
  <text style="stroke:none;fill:black;font-family:-apple-system,&quot;SF Pro Display&quot;,&quot;SF Pro Text&quot;,Helvetica,sans-serif;" transform="matrix(1 0 0 1 776 2007)">Modifications are automatically applied proportionally to all</text>
  <text style="stroke:none;fill:black;font-family:-apple-system,&quot;SF Pro Display&quot;,&quot;SF Pro Text&quot;,Helvetica,sans-serif;" transform="matrix(1 0 0 1 776 2025)">scales and weights.</text>
  <g id="" transform="matrix(1 0 0 1 1289 1933)">
   <path d="M 2.83203 3.61328 L 4.375 5.15625 C 5.22461 5.98633 6.19141 5.91797 7.05078 4.9707 L 17.2754 -6.16211 C 17.6953 -5.86914 18.0859 -5.87891 18.5645 -5.97656 L 19.6094 -6.19141 L 20.3027 -5.49805 L 20.2539 -4.98047 C 20.1855 -4.44336 20.3418 -4.0332 20.8398 -3.53516 L 21.6602 -2.72461 C 22.1582 -2.2168 22.8223 -2.1875 23.3008 -2.66602 L 26.5527 -5.91797 C 27.0312 -6.39648 27.002 -7.05078 26.5039 -7.55859 L 25.6836 -8.37891 C 25.1855 -8.87695 24.7656 -9.05273 24.2383 -8.97461 L 23.7109 -8.91602 L 23.0469 -9.58008 L 23.3398 -10.7227 C 23.4766 -11.2891 23.3301 -11.748 22.7148 -12.3535 L 20.3027 -14.7559 C 16.7578 -18.2812 12.2168 -18.1738 9.11133 -15.0391 C 8.68164 -14.6094 8.64258 -14.0234 8.91602 -13.5938 C 9.14062 -13.2227 9.61914 -12.998 10.2734 -13.1641 C 11.7871 -13.5449 13.3008 -13.4277 14.7852 -12.4219 L 14.1602 -10.8398 C 13.9258 -10.2539 13.9453 -9.77539 14.1797 -9.33594 L 3.01758 0.9375 C 2.08008 1.80664 1.97266 2.75391 2.83203 3.61328 Z M 10.6641 -14.6484 C 13.3301 -16.6406 16.6504 -16.3184 19.0527 -13.916 L 21.6797 -11.3086 C 21.9141 -11.0742 21.9434 -10.8887 21.875 -10.5957 L 21.5039 -9.0332 L 23.0762 -7.46094 L 24.0332 -7.54883 C 24.3164 -7.57812 24.4043 -7.55859 24.6387 -7.33398 L 25.2539 -6.70898 L 22.5098 -3.95508 L 21.8848 -4.58008 C 21.6602 -4.80469 21.6406 -4.89258 21.6699 -5.17578 L 21.7578 -6.14258 L 20.1953 -7.70508 L 18.5742 -7.39258 C 18.291 -7.33398 18.1445 -7.33398 17.9004 -7.57812 L 15.7324 -9.75586 C 15.498 -9.99023 15.4688 -10.127 15.5957 -10.4395 L 16.5527 -12.7246 C 14.9512 -14.2578 12.832 -15.1074 10.791 -14.4531 C 10.7031 -14.4238 10.6445 -14.4434 10.6152 -14.4824 C 10.5859 -14.5312 10.5859 -14.5801 10.6641 -14.6484 Z M 4.10156 2.91016 C 3.60352 2.41211 3.7793 2.10938 4.11133 1.80664 L 15.0781 -8.31055 L 16.2988 -7.08008 L 6.15234 3.84766 C 5.84961 4.17969 5.46875 4.27734 5.05859 3.87695 Z"/>
  </g>
  <text style="stroke:none;fill:black;font-family:-apple-system,&quot;SF Pro Display&quot;,&quot;SF Pro Text&quot;,Helvetica,sans-serif;font-weight:bold;" transform="matrix(1 0 0 1 1289 1953)">Exporting</text>
  <text style="stroke:none;fill:black;font-family:-apple-system,&quot;SF Pro Display&quot;,&quot;SF Pro Text&quot;,Helvetica,sans-serif;" transform="matrix(1 0 0 1 1289 1971)">Symbols should be outlined when exporting to ensure the</text>
  <text style="stroke:none;fill:black;font-family:-apple-system,&quot;SF Pro Display&quot;,&quot;SF Pro Text&quot;,Helvetica,sans-serif;" transform="matrix(1 0 0 1 1289 1989)">design is preserved when submitting to Xcode.</text>
  <text id="template-version" style="stroke:none;fill:black;font-family:-apple-system,&quot;SF Pro Display&quot;,&quot;SF Pro Text&quot;,Helvetica,sans-serif;text-anchor:end;" transform="matrix(1 0 0 1 3036 1933)">Template v.1.0</text>
  <text style="stroke:none;fill:black;font-family:-apple-system,&quot;SF Pro Display&quot;,&quot;SF Pro Text&quot;,Helvetica,sans-serif;text-anchor:end;" transform="matrix(1 0 0 1 3036 1951)">Generated from square.stack.3d.down.right</text>
  <text style="stroke:none;fill:black;font-family:-apple-system,&quot;SF Pro Display&quot;,&quot;SF Pro Text&quot;,Helvetica,sans-serif;text-anchor:end;" transform="matrix(1 0 0 1 3036 1969)">Typeset at 100 points</text>
  <text style="stroke:none;fill:black;font-family:-apple-system,&quot;SF Pro Display&quot;,&quot;SF Pro Text&quot;,Helvetica,sans-serif;" transform="matrix(1 0 0 1 263 726)">Small</text>
  <text style="stroke:none;fill:black;font-family:-apple-system,&quot;SF Pro Display&quot;,&quot;SF Pro Text&quot;,Helvetica,sans-serif;" transform="matrix(1 0 0 1 263 1156)">Medium</text>
  <text style="stroke:none;fill:black;font-family:-apple-system,&quot;SF Pro Display&quot;,&quot;SF Pro Text&quot;,Helvetica,sans-serif;" transform="matrix(1 0 0 1 263 1586)">Large</text>
 </g>
 <g id="Guides">
  <g id="H-reference" style="fill:#27AAE1;stroke:none;" transform="matrix(1 0 0 1 339 696)">
   <path d="M 54.9316 0 L 57.666 0 L 30.5664 -70.459 L 28.0762 -70.459 L 0.976562 0 L 3.66211 0 L 12.9395 -24.4629 L 45.7031 -24.4629 Z M 29.1992 -67.0898 L 29.4434 -67.0898 L 44.8242 -26.709 L 13.8184 -26.709 Z"/>
  </g>
  <line id="Baseline-S" style="fill:none;stroke:#27AAE1;opacity:1;stroke-width:0.577;" x1="263" x2="3036" y1="696" y2="696"/>
  <line id="Capline-S" style="fill:none;stroke:#27AAE1;opacity:1;stroke-width:0.577;" x1="263" x2="3036" y1="625.541" y2="625.541"/>
  <g id="H-reference" style="fill:#27AAE1;stroke:none;" transform="matrix(1 0 0 1 339 1126)">
   <path d="M 54.9316 0 L 57.666 0 L 30.5664 -70.459 L 28.0762 -70.459 L 0.976562 0 L 3.66211 0 L 12.9395 -24.4629 L 45.7031 -24.4629 Z M 29.1992 -67.0898 L 29.4434 -67.0898 L 44.8242 -26.709 L 13.8184 -26.709 Z"/>
  </g>
  <line id="Baseline-M" style="fill:none;stroke:#27AAE1;opacity:1;stroke-width:0.577;" x1="263" x2="3036" y1="1126" y2="1126"/>
  <line id="Capline-M" style="fill:none;stroke:#27AAE1;opacity:1;stroke-width:0.577;" x1="263" x2="3036" y1="1055.54" y2="1055.54"/>
  <g id="H-reference" style="fill:#27AAE1;stroke:none;" transform="matrix(1 0 0 1 339 1556)">
   <path d="M 54.9316 0 L 57.666 0 L 30.5664 -70.459 L 28.0762 -70.459 L 0.976562 0 L 3.66211 0 L 12.9395 -24.4629 L 45.7031 -24.4629 Z M 29.1992 -67.0898 L 29.4434 -67.0898 L 44.8242 -26.709 L 13.8184 -26.709 Z"/>
  </g>
  <line id="Baseline-L" style="fill:none;stroke:#27AAE1;opacity:1;stroke-width:0.577;" x1="263" x2="3036" y1="1556" y2="1556"/>
  <line id="Capline-L" style="fill:none;stroke:#27AAE1;opacity:1;stroke-width:0.577;" x1="263" x2="3036" y1="1485.54" y2="1485.54"/>
  <rect height="119.336" id="left-margin" style="fill:#00AEEF;stroke:none;opacity:0.4;" width="12.4512" x="1389.3" y="1030.79"/>
  <rect height="119.336" id="right-margin" style="fill:#00AEEF;stroke:none;opacity:0.4;" width="12.4512" x="1497.94" y="1030.79"/>
 </g>
 <g id="Symbols">
  <g id="Black-L" transform="matrix(1 0 0 1 2849.61 1556)">
   <path d="M 28.4668 10.2539 C 30.4199 10.2539 32.5684 9.76562 34.8145 8.69141 L 34.8145 -54.4922 C 34.8145 -61.9629 35.8887 -63.8184 42.3828 -67.5293 L 97.2656 -99.2188 C 96.582 -106.885 91.6016 -111.035 85.2051 -111.035 C 82.0801 -111.035 78.6621 -110.107 75.2441 -108.154 L 26.3184 -79.9316 C 17.627 -74.9023 16.0645 -72.6074 16.0645 -62.2559 L 16.0645 -6.05469 C 16.0645 3.75977 21.0938 10.2539 28.4668 10.2539 Z M 54.9805 25.5371 C 56.9336 25.5371 59.082 25.0488 61.3281 23.9746 L 61.3281 -39.209 C 61.3281 -46.7285 62.3535 -48.5352 68.8477 -52.2461 L 123.779 -83.9355 C 123.096 -91.6016 118.115 -95.8008 111.621 -95.8008 C 108.545 -95.8008 105.176 -94.8242 101.709 -92.8711 L 52.7832 -64.5996 C 44.1406 -59.6191 42.5781 -57.3242 42.5781 -46.9727 L 42.4805 9.22852 C 42.4805 19.043 47.6074 25.5371 54.9805 25.5371 Z M 82.2266 41.2598 C 85.4004 41.2598 89.1113 40.0879 93.1152 37.793 L 140.869 10.2539 C 149.463 5.27344 151.514 2.00195 151.514 -8.10547 L 151.465 -63.2324 C 151.465 -73.9746 146.582 -80.0781 139.111 -80.0781 C 135.938 -80.0781 132.275 -78.9551 128.271 -76.6602 L 80.5176 -49.0723 C 71.6309 -43.9453 69.873 -41.0156 69.873 -30.7129 L 69.873 24.4141 C 69.873 35.2051 74.707 41.2598 82.2266 41.2598 Z M 89.3066 17.8223 C 89.0137 17.8223 88.916 17.627 88.916 17.4316 L 89.5508 -29.4434 C 89.5508 -31.0059 90.1855 -31.9824 91.4551 -32.7637 L 131.494 -56.5918 C 131.641 -56.6406 131.836 -56.7871 131.982 -56.7383 C 132.275 -56.7383 132.471 -56.4941 132.471 -56.1523 L 131.836 -9.42383 C 131.836 -8.00781 131.299 -6.88477 129.98 -6.10352 L 89.7461 17.7246 C 89.5996 17.8223 89.4531 17.8711 89.3066 17.8223 Z"/>
  </g>
  <g id="Heavy-L" transform="matrix(1 0 0 1 2554.36 1556)">
   <path d="M 26.9043 9.22852 C 28.6133 9.22852 30.5176 8.78906 32.4707 7.8125 L 32.4707 -56.3477 C 32.4707 -62.5488 33.3496 -64.1602 38.7695 -67.2363 L 94.4336 -99.3652 C 93.9453 -106.006 89.5996 -109.717 83.9844 -109.717 C 81.25 -109.717 78.2715 -108.936 75.293 -107.178 L 25.3906 -78.3691 C 17.4316 -73.7793 16.0645 -71.8262 16.0645 -62.3535 L 16.0645 -5.07812 C 16.0645 3.4668 20.4102 9.22852 26.9043 9.22852 Z M 53.1738 24.4141 C 54.8828 24.4141 56.7871 23.9746 58.7402 22.998 L 58.7402 -41.1621 C 58.7402 -47.4121 59.6191 -48.9746 65.0391 -52.0508 L 120.703 -84.2285 C 120.215 -90.8203 115.869 -94.6289 110.156 -94.6289 C 107.52 -94.6289 104.541 -93.75 101.514 -92.041 L 51.6113 -63.2324 C 43.6523 -58.6914 42.334 -56.6406 42.334 -47.2168 L 42.2852 10.0586 C 42.2852 18.6523 46.7285 24.4141 53.1738 24.4141 Z M 80.4199 40.0879 C 83.3496 40.0879 86.7188 39.0137 90.4297 36.8652 L 138.77 9.0332 C 146.582 4.54102 148.535 1.36719 148.535 -7.86133 L 148.486 -63.623 C 148.486 -73.4375 144.189 -78.9062 137.5 -78.9062 C 134.619 -78.9062 131.299 -77.832 127.588 -75.7324 L 79.2969 -47.8516 C 71.2402 -43.2129 69.4824 -40.2832 69.4824 -30.957 L 69.4824 24.8047 C 69.4824 34.6191 73.6816 40.0879 80.4199 40.0879 Z M 86.5234 19.7266 C 86.1816 19.7266 86.084 19.4824 86.084 19.1895 L 86.6699 -29.9316 C 86.6699 -31.6895 87.3047 -32.666 88.7207 -33.5449 L 130.811 -58.4961 C 131.006 -58.5938 131.201 -58.6914 131.396 -58.6426 C 131.689 -58.6426 131.885 -58.3496 131.885 -57.959 L 131.396 -8.88672 C 131.396 -7.37305 130.811 -6.15234 129.346 -5.27344 L 87.0605 19.6289 C 86.8652 19.7266 86.7188 19.7754 86.5234 19.7266 Z"/>
  </g>
  <g id="Bold-L" transform="matrix(1 0 0 1 2259.31 1556)">
   <path d="M 25.1465 8.10547 C 26.6113 8.10547 28.1738 7.71484 29.7852 6.83594 L 29.7852 -58.3496 C 29.7852 -63.1348 30.5664 -64.502 34.7168 -66.8945 L 91.2598 -99.5117 C 90.9668 -105.029 87.3047 -108.252 82.6172 -108.252 C 80.3711 -108.252 77.8809 -107.568 75.3418 -106.104 L 24.3164 -76.709 C 17.1875 -72.5586 16.0645 -70.8984 16.0645 -62.4512 L 16.0645 -4.00391 C 16.0645 3.22266 19.6777 8.10547 25.1465 8.10547 Z M 51.123 23.0957 C 52.5879 23.0957 54.1992 22.7539 55.8105 21.875 L 55.8105 -43.3594 C 55.8105 -48.2422 56.543 -49.4629 60.7422 -51.8555 L 117.285 -84.4727 C 116.992 -89.9902 113.379 -93.2617 108.545 -93.2617 C 106.348 -93.2617 103.857 -92.5781 101.318 -91.1133 L 50.293 -61.6699 C 43.1641 -57.6172 42.041 -55.8594 42.041 -47.4609 L 42.041 11.0352 C 42.041 18.2617 45.752 23.0957 51.123 23.0957 Z M 78.4668 38.7695 C 81.0059 38.7695 84.082 37.793 87.4512 35.8887 L 136.377 7.71484 C 143.311 3.71094 145.264 0.634766 145.264 -7.61719 L 145.166 -64.0625 C 145.166 -72.8027 141.553 -77.5879 135.693 -77.5879 C 133.154 -77.5879 130.127 -76.6602 126.807 -74.7559 L 77.8809 -46.5332 C 70.752 -42.3828 69.043 -39.4531 69.043 -31.2012 L 69.043 25.2441 C 69.043 33.9355 72.5586 38.7695 78.4668 38.7695 Z M 83.3984 21.875 C 83.0566 21.8262 82.9102 21.5332 82.9102 21.1426 L 83.3984 -30.5176 C 83.3984 -32.4219 84.082 -33.4961 85.6445 -34.4238 L 130.029 -60.5957 C 130.273 -60.7422 130.469 -60.791 130.713 -60.791 C 131.055 -60.7422 131.25 -60.4492 131.25 -59.9609 L 130.908 -8.30078 C 130.908 -6.5918 130.273 -5.32227 128.662 -4.3457 L 84.0332 21.7285 C 83.7891 21.8262 83.5938 21.9238 83.3984 21.875 Z"/>
  </g>
  <g id="Semibold-L" transform="matrix(1 0 0 1 1963.75 1556)">
   <path d="M 23.9258 7.32422 C 25.1953 7.32422 26.5625 6.98242 27.9785 6.15234 L 27.9785 -59.7656 C 27.9785 -63.5742 28.6621 -64.7949 31.9336 -66.6504 L 89.0625 -99.6094 C 88.916 -104.395 85.7422 -107.227 81.6895 -107.227 C 79.6875 -107.227 77.5879 -106.641 75.3906 -105.371 L 23.584 -75.5371 C 17.041 -71.7285 16.0645 -70.2637 16.0645 -62.5488 L 16.0645 -3.22266 C 16.0645 2.97852 19.1406 7.32422 23.9258 7.32422 Z M 49.7559 22.2168 C 51.0254 22.2168 52.3926 21.875 53.8086 21.0938 L 53.8086 -44.873 C 53.8086 -48.7793 54.3945 -49.8047 57.7637 -51.709 L 114.893 -84.668 C 114.795 -89.4043 111.67 -92.334 107.471 -92.334 C 105.518 -92.334 103.418 -91.748 101.172 -90.4785 L 49.3652 -60.6445 C 42.8223 -56.8359 41.8945 -55.3223 41.8945 -47.6562 L 41.8457 11.6699 C 41.8457 17.9688 45.1172 22.2168 49.7559 22.2168 Z M 77.0996 37.8418 C 79.4434 37.8418 82.2266 36.9629 85.4004 35.1562 L 134.717 6.78711 C 141.064 3.125 142.969 0.146484 142.969 -7.42188 L 142.871 -64.3555 C 142.871 -72.4121 139.697 -76.6602 134.424 -76.6602 C 132.129 -76.6602 129.346 -75.8301 126.27 -74.0234 L 76.9531 -45.5566 C 70.459 -41.7969 68.7012 -38.8672 68.7012 -31.3477 L 68.7012 25.5859 C 68.7012 33.4473 71.7773 37.8418 77.0996 37.8418 Z M 81.25 23.3398 C 80.8594 23.291 80.7129 22.998 80.7129 22.5098 L 81.1523 -30.9082 C 81.1523 -32.9102 81.8359 -34.0332 83.5449 -35.0098 L 129.541 -62.0605 C 129.785 -62.207 129.98 -62.3047 130.225 -62.2559 C 130.615 -62.207 130.811 -61.9141 130.811 -61.3281 L 130.518 -7.86133 C 130.518 -6.10352 129.883 -4.73633 128.174 -3.71094 L 81.9824 23.1934 C 81.6895 23.3398 81.4941 23.3887 81.25 23.3398 Z"/>
  </g>
  <g id="Medium-L" transform="matrix(1 0 0 1 1667.89 1556)">
   <path d="M 22.998 6.73828 C 24.1211 6.73828 25.3418 6.39648 26.6113 5.66406 L 26.6113 -60.8398 C 26.6113 -63.916 27.1973 -64.9902 29.834 -66.4551 L 87.4023 -99.6582 C 87.4023 -103.857 84.5703 -106.445 80.957 -106.445 C 79.248 -106.445 77.3438 -105.957 75.3906 -104.785 L 23.0469 -74.6582 C 16.8945 -71.0938 16.0645 -69.8242 16.0645 -62.6465 L 16.0645 -2.68555 C 16.0645 2.83203 18.75 6.73828 22.998 6.73828 Z M 48.6816 21.582 C 49.8535 21.582 51.0742 21.2402 52.2949 20.459 L 52.2949 -45.9961 C 52.2949 -49.1699 52.7832 -50.0488 55.5176 -51.6113 L 113.135 -84.8145 C 113.135 -89.0137 110.352 -91.6016 106.592 -91.6016 C 104.932 -91.6016 103.076 -91.1133 101.074 -89.9902 L 48.6816 -59.8145 C 42.5781 -56.2988 41.748 -54.9316 41.748 -47.8027 L 41.748 12.1582 C 41.748 17.7734 44.5801 21.582 48.6816 21.582 Z M 76.0254 37.1582 C 78.2227 37.1582 80.8594 36.3281 83.8379 34.6191 L 133.496 6.10352 C 139.355 2.68555 141.211 -0.244141 141.211 -7.27539 L 141.162 -64.5996 C 141.162 -72.0703 138.281 -75.9766 133.496 -75.9766 C 131.348 -75.9766 128.76 -75.1953 125.879 -73.5352 L 76.2207 -44.873 C 70.2148 -41.4062 68.457 -38.4277 68.457 -31.4941 L 68.457 25.8301 C 68.457 33.1055 71.1914 37.1582 76.0254 37.1582 Z M 79.6387 24.4629 C 79.1992 24.4141 79.0527 24.0723 79.0527 23.5352 L 79.4434 -31.2012 C 79.4434 -33.3008 80.127 -34.4727 81.9336 -35.498 L 129.102 -63.1836 C 129.395 -63.3301 129.639 -63.3789 129.883 -63.3301 C 130.273 -63.2812 130.518 -63.0371 130.518 -62.4023 L 130.273 -7.56836 C 130.273 -5.71289 129.59 -4.29688 127.783 -3.27148 L 80.4199 24.2676 C 80.0781 24.4141 79.8828 24.5117 79.6387 24.4629 Z"/>
  </g>
  <g id="Regular-L" transform="matrix(1 0 0 1 1372.31 1556)">
   <path d="M 21.7773 5.95703 C 22.7539 5.95703 23.7793 5.66406 24.8047 4.98047 L 24.8047 -62.207 C 24.8047 -64.3066 25.293 -65.2344 27.0996 -66.2109 L 85.2539 -99.7559 C 85.3516 -103.223 83.0078 -105.42 80.0293 -105.42 C 78.6133 -105.42 77.0508 -105.029 75.4395 -104.053 L 22.3145 -73.4863 C 16.748 -70.2637 16.0645 -69.1895 16.0645 -62.6953 L 16.0645 -1.95312 C 16.0645 2.63672 18.2617 5.95703 21.7773 5.95703 Z M 47.3145 20.7031 C 48.291 20.7031 49.2676 20.4102 50.293 19.7266 L 50.293 -47.4609 C 50.293 -49.707 50.6836 -50.3906 52.5879 -51.4648 L 110.791 -85.0098 C 110.938 -88.4277 108.691 -90.7227 105.518 -90.7227 C 104.102 -90.7227 102.588 -90.2832 100.928 -89.3555 L 47.8027 -58.7402 C 42.1875 -55.5664 41.5527 -54.4434 41.5527 -47.998 L 41.5527 12.793 C 41.5527 17.4805 43.9453 20.7031 47.3145 20.7031 Z M 74.707 36.2793 C 76.6113 36.2793 79.0527 35.498 81.8359 33.9355 L 131.836 5.17578 C 137.158 2.14844 138.965 -0.732422 138.965 -7.12891 L 138.867 -64.8438 C 138.867 -71.6797 136.475 -75.0977 132.227 -75.0977 C 130.322 -75.0977 128.027 -74.3652 125.342 -72.8516 L 75.293 -43.9453 C 69.9219 -40.8203 68.1641 -37.8418 68.1641 -31.6406 L 68.1641 26.123 C 68.1641 32.666 70.4102 36.2793 74.707 36.2793 Z M 77.5391 25.8789 C 77.0508 25.8301 76.9043 25.4883 76.9043 24.8535 L 77.2461 -31.5918 C 77.2461 -33.7891 77.9297 -35.0098 79.834 -36.084 L 128.613 -64.5996 C 128.906 -64.7949 129.15 -64.8438 129.395 -64.7949 C 129.834 -64.7461 130.078 -64.4531 130.078 -63.7695 L 129.932 -7.12891 C 129.932 -5.22461 129.248 -3.71094 127.344 -2.63672 L 78.3691 25.7324 C 78.0273 25.8789 77.7832 25.9277 77.5391 25.8789 Z"/>
  </g>
  <g id="Light-L" transform="matrix(1 0 0 1 1076.42 1556)">
   <path d="M 20.752 3.66211 C 21.3867 3.66211 22.0703 3.4668 22.7539 3.02734 L 22.7539 -63.8184 C 22.7539 -65.7227 23.291 -66.6992 24.8535 -67.5293 L 82.7148 -100.928 C 82.7148 -103.418 80.7617 -105.127 78.5645 -105.127 C 77.3926 -105.127 76.2207 -104.785 74.9023 -104.004 L 21.4355 -73.1934 C 16.6504 -70.4102 16.0645 -69.5312 16.0645 -63.9648 L 16.0645 -2.58789 C 16.0645 0.927734 17.6758 3.66211 20.752 3.66211 Z M 46.7773 18.7012 C 47.4121 18.7012 48.0957 18.5059 48.7793 18.0664 L 48.7793 -48.8281 C 48.7793 -50.8301 49.1699 -51.5137 50.8789 -52.5391 L 108.74 -85.8887 C 108.789 -88.2812 107.031 -90.0879 104.541 -90.0879 C 103.418 -90.0879 102.246 -89.7949 100.928 -89.0137 L 47.4121 -58.2031 C 42.627 -55.4199 42.0898 -54.4922 42.0898 -48.9258 L 42.0898 12.4512 C 42.0898 16.1133 43.9453 18.7012 46.7773 18.7012 Z M 74.6582 34.5703 C 76.2207 34.5703 78.2715 33.8867 80.6152 32.5684 L 131.445 3.32031 C 136.035 0.634766 137.354 -1.36719 137.354 -6.88477 L 137.305 -65.5762 C 137.305 -71.2402 135.254 -74.1699 131.689 -74.1699 C 130.078 -74.1699 128.125 -73.5352 125.879 -72.2656 L 75.0488 -42.9199 C 70.459 -40.2344 69.1406 -38.0859 69.1406 -32.7148 L 69.1406 25.9766 C 69.1406 31.4941 71.0449 34.5703 74.6582 34.5703 Z M 76.709 26.709 C 76.0742 26.6602 75.8301 26.123 75.8301 25.2441 L 76.0254 -32.8613 C 76.0254 -34.8145 76.709 -35.9375 78.3203 -36.8652 L 128.564 -66.1133 C 128.955 -66.3086 129.248 -66.4062 129.639 -66.4062 C 130.176 -66.3574 130.566 -65.918 130.566 -64.9414 L 130.469 -6.68945 C 130.469 -4.93164 129.785 -3.61328 128.174 -2.68555 L 77.832 26.416 C 77.3438 26.6113 77.002 26.709 76.709 26.709 Z"/>
  </g>
  <g id="Thin-L" transform="matrix(1 0 0 1 780.787 1556)">
   <path d="M 19.3359 0.585938 C 19.6289 0.585938 19.8242 0.585938 20.0195 0.488281 L 20.0195 -65.9668 C 20.0195 -67.5781 20.6543 -68.6035 21.9238 -69.2871 L 79.3945 -102.441 C 79.1992 -103.662 77.832 -104.688 76.6113 -104.688 C 75.8301 -104.688 75.0977 -104.492 74.1699 -103.955 L 20.2637 -72.8516 C 16.5039 -70.6543 16.0645 -69.9707 16.0645 -65.625 L 16.0645 -3.41797 C 16.0645 -1.31836 16.9434 0.585938 19.3359 0.585938 Z M 46.0449 16.0156 C 46.2891 16.0156 46.4844 15.9668 46.7285 15.8691 L 46.7285 -50.5859 C 46.7285 -52.2461 47.168 -53.0273 48.6328 -53.9062 L 106.055 -87.0117 C 105.957 -88.0859 104.785 -89.3066 103.271 -89.3066 C 102.539 -89.3066 101.758 -89.1113 100.879 -88.5742 L 46.9238 -57.4219 C 43.2129 -55.2734 42.7734 -54.541 42.7734 -50.1953 L 42.7734 11.9629 C 42.7734 14.3555 43.9941 16.0156 46.0449 16.0156 Z M 74.5605 32.2266 C 75.7324 32.2266 77.2461 31.7383 79.0039 30.7617 L 130.908 0.830078 C 134.619 -1.31836 135.205 -2.24609 135.205 -6.54297 L 135.156 -66.5527 C 135.156 -70.7031 133.691 -72.9004 130.957 -72.9004 C 129.736 -72.9004 128.32 -72.4609 126.611 -71.4844 L 74.707 -41.5527 C 71.1426 -39.502 70.4102 -38.3301 70.4102 -34.1797 L 70.4102 25.8301 C 70.4102 29.9805 71.8262 32.2266 74.5605 32.2266 Z M 75.6348 27.7344 C 74.7559 27.7344 74.3652 27.002 74.3652 25.7324 L 74.4141 -34.5215 C 74.4141 -36.1328 75.0488 -37.207 76.3672 -37.8906 L 128.516 -68.0664 C 129.004 -68.3594 129.443 -68.5059 129.883 -68.5059 C 130.664 -68.5059 131.25 -67.8711 131.25 -66.4551 L 131.201 -6.15234 C 131.201 -4.58984 130.566 -3.4668 129.248 -2.7832 L 77.0996 27.2949 C 76.4648 27.5879 76.0254 27.7344 75.6348 27.7344 Z"/>
  </g>
  <g id="Ultralight-L" transform="matrix(1 0 0 1 484.613 1556)">
   <path d="M 18.6523 -0.976562 L 18.6523 -67.0898 C 18.6523 -68.5547 19.2871 -69.5801 20.4102 -70.2148 L 77.6855 -103.174 C 77.3926 -103.76 76.3184 -104.492 75.5859 -104.492 C 75.0488 -104.492 74.5117 -104.346 73.8281 -103.955 L 19.6777 -72.6562 C 16.4551 -70.8008 16.0645 -70.2148 16.0645 -66.5039 L 16.0645 -3.85742 C 16.0645 -2.44141 16.5527 -0.976562 18.6523 -0.976562 L 18.6523 -0.830078 C 18.6523 -0.927734 18.7012 -0.976562 18.6523 -0.976562 Z M 45.6543 14.6484 L 45.6543 -51.4648 C 45.6543 -52.9785 46.1426 -53.8086 47.4609 -54.5898 L 104.688 -87.5977 C 104.492 -87.9883 103.662 -88.8672 102.637 -88.8672 C 102.051 -88.8672 101.514 -88.7207 100.83 -88.3301 L 46.6797 -57.0312 C 43.5059 -55.1758 43.1152 -54.5898 43.1152 -50.8789 L 43.1152 11.7188 C 43.1152 13.4277 43.9941 14.6484 45.6543 14.6484 L 45.6543 14.7949 C 45.7031 14.6973 45.7031 14.6484 45.6543 14.6484 Z M 74.5117 31.0547 C 75.4883 31.0547 76.709 30.6152 78.1738 29.834 L 130.615 -0.390625 C 133.887 -2.29492 134.082 -2.68555 134.082 -6.39648 L 134.082 -67.041 C 134.082 -70.459 132.861 -72.2656 130.566 -72.2656 C 129.541 -72.2656 128.369 -71.9238 127.002 -71.0938 L 74.5605 -40.8691 C 71.4844 -39.1113 71.0938 -38.4766 71.0938 -34.9121 L 71.0938 25.7324 C 71.0938 29.1504 72.2656 31.0547 74.5117 31.0547 Z M 75.0977 28.2715 C 74.0723 28.2715 73.6328 27.4414 73.6328 25.9766 L 73.584 -35.3516 C 73.584 -36.8164 74.2188 -37.8418 75.3418 -38.4277 L 128.516 -69.043 C 129.004 -69.3848 129.541 -69.5801 130.029 -69.5801 C 130.859 -69.5801 131.592 -68.8965 131.592 -67.2363 L 131.592 -5.85938 C 131.592 -4.39453 130.957 -3.36914 129.834 -2.7832 L 76.709 27.7832 C 76.0254 28.125 75.4883 28.2715 75.0977 28.2715 Z"/>
  </g>
  <g id="Black-M" transform="matrix(1 0 0 1 2866.9 1126)">
   <path d="M 23.6328 0.146484 C 25.3418 0.146484 27.1484 -0.244141 29.1016 -1.02539 L 29.1016 -48.584 C 29.1016 -55.957 30.127 -57.7148 36.5234 -61.4258 L 77.8809 -85.3027 C 77.002 -92.041 72.5586 -95.6055 66.8945 -95.6055 C 64.1113 -95.6055 61.0352 -94.7754 58.0078 -93.0176 L 21.1914 -71.7285 C 13.916 -67.5293 12.4512 -65.4785 12.4512 -56.6895 L 12.4512 -14.2578 C 12.4512 -5.56641 16.9434 0.146484 23.6328 0.146484 Z M 44.7266 12.3535 C 46.4355 12.3535 48.2422 11.9629 50.1953 11.1328 L 50.1953 -36.4258 C 50.1953 -43.75 51.2207 -45.5566 57.6172 -49.2188 L 98.9746 -73.0957 C 98.1445 -79.834 93.6523 -83.4961 87.9395 -83.4961 C 85.1562 -83.4961 82.1289 -82.6172 79.0527 -80.8105 L 42.2852 -59.5703 C 35.0098 -55.3711 33.5938 -53.2715 33.5938 -44.4824 L 33.4961 -2.09961 C 33.4961 6.5918 38.0371 12.3535 44.7266 12.3535 Z M 66.0645 24.707 C 68.75 24.707 71.8262 23.7305 75.0977 21.875 L 111.816 0.634766 C 119.189 -3.66211 120.557 -5.85938 120.557 -14.4043 L 120.557 -56.8359 C 120.557 -65.7715 116.211 -71.0449 109.717 -71.0449 C 107.031 -71.0449 103.955 -70.1172 100.635 -68.2617 L 63.9648 -47.0703 C 56.3477 -42.6758 55.2246 -40.8203 55.2246 -32.0312 L 55.2246 10.3516 C 55.2246 19.5312 59.6191 24.707 66.0645 24.707 Z M 72.5098 3.75977 C 72.2656 3.75977 72.1191 3.56445 72.1191 3.36914 L 72.7051 -30.7129 C 72.7051 -31.6406 73.1445 -32.2266 73.7793 -32.666 L 102.783 -50 C 102.93 -50.0977 103.076 -50.1953 103.223 -50.1953 C 103.467 -50.1953 103.662 -49.9512 103.662 -49.6582 L 103.076 -15.7227 C 103.076 -14.8926 102.734 -14.209 102.002 -13.7695 L 72.9004 3.66211 C 72.7539 3.71094 72.6074 3.75977 72.5098 3.75977 Z"/>
  </g>
  <g id="Heavy-M" transform="matrix(1 0 0 1 2571.6 1126)">
   <path d="M 22.168 -0.341797 C 23.6816 -0.341797 25.293 -0.732422 27.0508 -1.46484 L 27.0508 -50.1465 C 27.0508 -56.2012 27.8809 -57.7148 33.1543 -60.6934 L 75.4395 -85.1074 C 74.8047 -91.0156 70.8984 -94.2383 65.918 -94.2383 C 63.5254 -94.2383 60.8398 -93.5059 58.1543 -91.9922 L 20.4102 -70.166 C 13.7207 -66.3086 12.4512 -64.502 12.4512 -56.4941 L 12.4512 -13.0371 C 12.4512 -5.41992 16.3574 -0.341797 22.168 -0.341797 Z M 42.9199 11.6211 C 44.4336 11.6211 46.0449 11.2305 47.7539 10.4492 L 47.7539 -38.1836 C 47.7539 -44.2383 48.584 -45.752 53.8574 -48.7793 L 96.1426 -73.1445 C 95.5566 -79.0527 91.6504 -82.3242 86.6211 -82.3242 C 84.1797 -82.3242 81.543 -81.543 78.8574 -80.0293 L 41.1133 -58.2031 C 34.4238 -54.3457 33.2031 -52.5391 33.2031 -44.5312 L 33.1543 -1.07422 C 33.1543 6.54297 37.1094 11.6211 42.9199 11.6211 Z M 64.1602 23.877 C 66.6016 23.877 69.4336 22.998 72.5098 21.2402 L 109.619 -0.195312 C 116.309 -4.05273 117.725 -6.39648 117.725 -14.209 L 117.725 -57.0312 C 117.725 -65.2832 113.916 -70.0195 108.105 -70.0195 C 105.615 -70.0195 102.832 -69.1406 99.707 -67.3828 L 62.6465 -45.9961 C 55.7617 -41.9922 54.541 -39.9902 54.541 -31.9824 L 54.541 10.8398 C 54.541 19.1895 58.3496 23.877 64.1602 23.877 Z M 69.6777 5.61523 C 69.4336 5.61523 69.3359 5.41992 69.3359 5.22461 L 69.8242 -30.957 C 69.8242 -32.0801 70.2637 -32.7637 71.1914 -33.3008 L 102.051 -51.709 C 102.197 -51.7578 102.344 -51.8555 102.49 -51.8555 C 102.734 -51.8555 102.93 -51.6113 102.93 -51.3184 L 102.441 -15.2344 C 102.441 -14.209 102.051 -13.4277 101.123 -12.8906 L 70.0684 5.51758 C 69.9219 5.61523 69.8242 5.66406 69.6777 5.61523 Z"/>
  </g>
  <g id="Bold-M" transform="matrix(1 0 0 1 2276.45 1126)">
   <path d="M 20.5566 -0.927734 C 21.875 -0.927734 23.2422 -1.26953 24.7559 -2.00195 L 24.7559 -51.9043 C 24.7559 -56.4453 25.4395 -57.666 29.3945 -59.9609 L 72.7051 -84.9121 C 72.3633 -89.8926 69.0918 -92.7246 64.8926 -92.7246 C 62.8418 -92.7246 60.5957 -92.0898 58.3984 -90.8203 L 19.4824 -68.4082 C 13.4766 -64.8926 12.4512 -63.4277 12.4512 -56.25 L 12.4512 -11.6699 C 12.4512 -5.22461 15.7227 -0.927734 20.5566 -0.927734 Z M 40.8691 10.791 C 42.1875 10.791 43.5547 10.4492 45.0195 9.7168 L 45.0195 -40.1855 C 45.0195 -44.8242 45.7031 -45.9473 49.707 -48.2422 L 92.9688 -73.2422 C 92.6758 -78.1738 89.4043 -81.0059 85.1074 -81.0059 C 83.1055 -81.0059 80.9082 -80.4199 78.6621 -79.1016 L 39.7949 -56.6895 C 33.7402 -53.2227 32.7637 -51.6602 32.7637 -44.5312 L 32.7148 0.0488281 C 32.7148 6.49414 36.0352 10.791 40.8691 10.791 Z M 62.0117 22.9492 C 64.209 22.9492 66.748 22.1191 69.5801 20.5078 L 107.129 -1.12305 C 113.037 -4.54102 114.6 -6.98242 114.6 -14.0137 L 114.551 -57.3242 C 114.551 -64.7461 111.328 -68.8477 106.25 -68.8477 C 104.102 -68.8477 101.562 -68.0664 98.7305 -66.4551 L 61.2305 -44.8242 C 55.127 -41.2598 53.7598 -39.0137 53.7598 -31.9336 L 53.7598 11.377 C 53.7598 18.7988 56.9336 22.9492 62.0117 22.9492 Z M 66.5039 7.71484 C 66.2598 7.71484 66.1621 7.51953 66.1621 7.27539 L 66.6016 -31.2012 C 66.6016 -32.5684 67.1387 -33.3496 68.2617 -34.0332 L 101.221 -53.5645 C 101.367 -53.6621 101.562 -53.7598 101.709 -53.7109 C 101.953 -53.7109 102.1 -53.5156 102.1 -53.1738 L 101.758 -14.6973 C 101.758 -13.4766 101.27 -12.5488 100.098 -11.8652 L 66.9434 7.61719 C 66.7969 7.71484 66.6504 7.76367 66.5039 7.71484 Z"/>
  </g>
  <g id="Semibold-M" transform="matrix(1 0 0 1 1980.82 1126)">
   <path d="M 19.4336 -1.31836 C 20.6055 -1.31836 21.875 -1.61133 23.1445 -2.34375 L 23.1445 -53.125 C 23.1445 -56.6406 23.7305 -57.666 26.8066 -59.4238 L 70.8008 -84.8145 C 70.6543 -89.1602 67.8223 -91.6504 64.1602 -91.6504 C 62.4023 -91.6504 60.4492 -91.1621 58.4961 -89.9902 L 18.8965 -67.1875 C 13.3301 -63.9648 12.4512 -62.6953 12.4512 -56.1035 L 12.4512 -10.6934 C 12.4512 -5.12695 15.2832 -1.31836 19.4336 -1.31836 Z M 39.4531 10.2539 C 40.625 10.2539 41.8457 9.91211 43.1641 9.17969 L 43.1641 -41.5527 C 43.1641 -45.166 43.6523 -46.0938 46.7773 -47.8516 L 90.8203 -73.2422 C 90.6738 -77.5879 87.8418 -80.127 84.082 -80.127 C 82.373 -80.127 80.4688 -79.5898 78.5156 -78.4668 L 38.8672 -55.6152 C 33.3008 -52.4414 32.4219 -51.0742 32.4219 -44.5312 L 32.4219 0.830078 C 32.4219 6.44531 35.3027 10.2539 39.4531 10.2539 Z M 60.498 22.3145 C 62.5 22.3145 64.9414 21.5332 67.627 20.0195 L 105.42 -1.75781 C 110.791 -4.88281 112.402 -7.42188 112.402 -13.8184 L 112.354 -57.4707 C 112.354 -64.3555 109.521 -68.0664 104.98 -68.0664 C 103.027 -68.0664 100.684 -67.334 98.0469 -65.8203 L 60.2051 -43.9941 C 54.6387 -40.7715 53.2227 -38.3301 53.2227 -31.8848 L 53.2227 11.7676 C 53.2227 18.5059 55.957 22.3145 60.498 22.3145 Z M 64.3555 9.17969 C 64.1113 9.13086 64.0137 8.93555 64.0137 8.69141 L 64.4043 -31.3965 C 64.4043 -32.959 64.9414 -33.7891 66.2598 -34.5703 L 100.684 -54.8828 C 100.83 -54.9805 100.977 -55.0293 101.123 -54.9805 C 101.367 -54.9805 101.514 -54.7852 101.514 -54.4434 L 101.221 -14.3555 C 101.221 -12.9883 100.732 -11.9141 99.4141 -11.1816 L 64.7949 9.08203 C 64.6484 9.17969 64.502 9.17969 64.3555 9.17969 Z"/>
  </g>
  <g id="Medium-M" transform="matrix(1 0 0 1 1684.93 1126)">
   <path d="M 18.6035 -1.61133 C 19.6289 -1.61133 20.8008 -1.9043 21.9238 -2.63672 L 21.9238 -54.0039 C 21.9238 -56.7871 22.4121 -57.666 24.8047 -59.0332 L 69.3848 -84.7168 C 69.3359 -88.5742 66.8457 -90.8691 63.5742 -90.8691 C 62.0605 -90.8691 60.3516 -90.3809 58.5938 -89.4043 L 18.4082 -66.2598 C 13.1836 -63.2324 12.4512 -62.1094 12.4512 -55.957 L 12.4512 -10.0098 C 12.4512 -5.0293 14.9414 -1.61133 18.6035 -1.61133 Z M 38.3789 9.81445 C 39.4531 9.81445 40.5762 9.52148 41.748 8.78906 L 41.748 -42.627 C 41.748 -45.459 42.1387 -46.1914 44.5801 -47.6074 L 89.1602 -73.291 C 89.1602 -77.1484 86.6699 -79.4434 83.3008 -79.4434 C 81.8359 -79.4434 80.127 -79.0039 78.418 -78.0273 L 38.1836 -54.834 C 32.9102 -51.8555 32.2266 -50.6348 32.2266 -44.5312 L 32.2266 1.41602 C 32.2266 6.44531 34.7656 9.81445 38.3789 9.81445 Z M 59.375 21.8262 C 61.2793 21.8262 63.5254 21.0938 66.0645 19.6289 L 104.102 -2.24609 C 109.131 -5.12695 110.791 -7.71484 110.791 -13.7207 L 110.693 -57.6172 C 110.693 -64.0625 108.203 -67.4805 104.053 -67.4805 C 102.197 -67.4805 100 -66.748 97.5098 -65.332 L 59.4727 -43.3594 C 54.2969 -40.3809 52.7832 -37.793 52.7832 -31.8848 L 52.7832 12.0117 C 52.7832 18.3105 55.1758 21.8262 59.375 21.8262 Z M 62.6953 10.2539 C 62.4512 10.2051 62.3535 10.0586 62.3535 9.7168 L 62.7441 -31.4941 C 62.7441 -33.2031 63.2812 -34.082 64.6973 -34.9609 L 100.244 -55.8594 C 100.439 -55.957 100.537 -56.0059 100.732 -55.957 C 100.977 -55.957 101.074 -55.7617 101.074 -55.4199 L 100.879 -14.0625 C 100.879 -12.5977 100.342 -11.4746 98.877 -10.6445 L 63.1836 10.1562 C 62.9883 10.2539 62.8418 10.3027 62.6953 10.2539 Z"/>
  </g>
  <g id="Regular-M" transform="matrix(1 0 0 1 1389.3 1126)">
   <path d="M 17.4805 -2.00195 C 18.4082 -2.00195 19.3848 -2.29492 20.3613 -2.97852 L 20.3613 -55.2246 C 20.3613 -56.9824 20.7031 -57.666 22.2656 -58.4961 L 67.5293 -84.5703 C 67.6758 -87.793 65.625 -89.7949 62.8418 -89.7949 C 61.5723 -89.7949 60.2051 -89.4531 58.7402 -88.5742 L 17.8223 -65.0391 C 13.0371 -62.2559 12.4512 -61.377 12.4512 -55.8105 L 12.4512 -9.08203 C 12.4512 -4.88281 14.4531 -2.00195 17.4805 -2.00195 Z M 37.0117 9.27734 C 37.8906 9.27734 38.8672 8.98438 39.8926 8.30078 L 39.8926 -43.9453 C 39.8926 -45.8496 40.1367 -46.3379 41.748 -47.2168 L 87.0117 -73.3398 C 87.1582 -76.5137 85.1562 -78.5645 82.3242 -78.5645 C 81.1035 -78.5645 79.6875 -78.1738 78.2715 -77.3926 L 37.2559 -53.8086 C 32.4707 -51.0742 31.9336 -50.0488 31.9336 -44.5801 L 31.9336 2.19727 C 31.9336 6.39648 34.0332 9.27734 37.0117 9.27734 Z M 57.9102 21.1914 C 59.6191 21.1914 61.6699 20.5078 64.1113 19.1406 L 102.393 -2.83203 C 106.885 -5.41992 108.643 -8.10547 108.643 -13.5742 L 108.545 -57.8125 C 108.545 -63.6719 106.445 -66.6504 102.783 -66.6504 C 101.172 -66.6504 99.1211 -66.0156 96.8262 -64.6973 L 58.4473 -42.5781 C 53.8574 -39.8926 52.2461 -37.1582 52.2461 -31.8359 L 52.2461 12.4023 C 52.2461 18.0664 54.248 21.1914 57.9102 21.1914 Z M 60.5469 11.6699 C 60.3027 11.6211 60.2051 11.4746 60.2051 11.1328 L 60.5469 -31.6895 C 60.5469 -33.5449 61.084 -34.5215 62.7441 -35.4492 L 99.707 -57.1777 C 99.8535 -57.2754 100 -57.2754 100.195 -57.2266 C 100.391 -57.1777 100.537 -57.0312 100.537 -56.6895 L 100.391 -13.7207 C 100.391 -12.1094 99.8047 -10.8887 98.1934 -9.91211 L 61.0352 11.6211 C 60.8398 11.7188 60.6934 11.7188 60.5469 11.6699 Z"/>
  </g>
  <g id="Light-M" transform="matrix(1 0 0 1 1093.32 1126)">
   <path d="M 16.5527 -4.05273 C 17.1875 -4.05273 17.8711 -4.24805 18.5547 -4.6875 L 18.5547 -56.6895 C 18.5547 -58.252 18.9453 -58.9355 20.2637 -59.668 L 65.2344 -85.5957 C 65.2832 -87.9883 63.623 -89.5508 61.5234 -89.5508 C 60.5469 -89.5508 59.4238 -89.2578 58.252 -88.5742 L 16.9922 -64.7949 C 12.9395 -62.4023 12.4512 -61.6699 12.4512 -56.9336 L 12.4512 -9.61914 C 12.4512 -6.44531 13.9648 -4.05273 16.5527 -4.05273 Z M 36.4746 7.4707 C 37.1094 7.4707 37.793 7.27539 38.4766 6.78711 L 38.4766 -45.166 C 38.4766 -46.8262 38.7695 -47.3633 40.1855 -48.1445 L 85.2051 -74.1211 C 85.2539 -76.416 83.6914 -78.0273 81.4453 -78.0273 C 80.4688 -78.0273 79.3945 -77.7344 78.2227 -77.0508 L 36.9141 -53.2715 C 32.8613 -50.9277 32.373 -50.0977 32.373 -45.4102 L 32.373 1.85547 C 32.373 5.17578 34.082 7.4707 36.4746 7.4707 Z M 57.8613 19.6289 C 59.2773 19.6289 60.9863 19.043 63.0371 17.9199 L 102.051 -4.54102 C 105.908 -6.73828 107.178 -8.69141 107.178 -13.3789 L 107.08 -58.4473 C 107.08 -63.3301 105.371 -65.8203 102.295 -65.8203 C 100.928 -65.8203 99.2676 -65.2832 97.3145 -64.1602 L 58.252 -41.6504 C 54.3457 -39.3555 53.125 -37.3535 53.125 -32.8125 L 53.125 12.2559 C 53.125 16.9922 54.7852 19.6289 57.8613 19.6289 Z M 59.8145 12.4023 C 59.375 12.3535 59.2285 12.0605 59.2285 11.4746 L 59.4727 -32.8125 C 59.4727 -34.4727 60.0098 -35.3516 61.377 -36.1328 L 99.6582 -58.4961 C 99.9023 -58.6426 100.098 -58.6914 100.342 -58.6426 C 100.732 -58.6426 100.977 -58.3496 100.977 -57.7148 L 100.879 -13.3301 C 100.879 -11.8652 100.342 -10.791 98.9746 -9.96094 L 60.5469 12.207 C 60.2539 12.3535 60.0098 12.4512 59.8145 12.4023 Z"/>
  </g>
  <g id="Thin-M" transform="matrix(1 0 0 1 797.56 1126)">
   <path d="M 15.2832 -6.78711 C 15.5762 -6.78711 15.8203 -6.83594 16.1133 -6.98242 L 16.1133 -58.5938 C 16.1133 -59.9121 16.5527 -60.6934 17.627 -61.2793 L 62.2559 -86.9629 C 62.1094 -88.1836 60.9375 -89.1602 59.7656 -89.1602 C 59.1309 -89.1602 58.4473 -88.9648 57.6172 -88.5254 L 15.9668 -64.4531 C 12.8418 -62.6465 12.4512 -62.0605 12.4512 -58.4473 L 12.4512 -10.4004 C 12.4512 -8.44727 13.2812 -6.78711 15.2832 -6.78711 Z M 35.8398 5.07812 C 36.1328 5.07812 36.377 4.98047 36.6211 4.88281 L 36.6211 -46.7285 C 36.6211 -48.0957 37.0117 -48.7305 38.1836 -49.4141 L 82.7637 -75.0977 C 82.7148 -76.2207 81.6895 -77.2949 80.3223 -77.2949 C 79.6387 -77.2949 78.9551 -77.0996 78.1738 -76.6602 L 36.4746 -52.5879 C 33.3496 -50.7812 33.0078 -50.1953 33.0078 -46.582 L 33.0078 1.46484 C 33.0078 3.56445 34.082 5.07812 35.8398 5.07812 Z M 57.8125 17.5781 C 58.7891 17.5781 60.0586 17.1387 61.5723 16.3086 L 101.562 -6.73828 C 104.639 -8.49609 105.225 -9.47266 105.225 -13.0859 L 105.225 -59.2773 C 105.225 -62.8418 103.955 -64.6973 101.66 -64.6973 C 100.635 -64.6973 99.4141 -64.3066 97.998 -63.5254 L 57.959 -40.4297 C 54.9805 -38.7207 54.2969 -37.5977 54.2969 -34.082 L 54.2969 12.1094 C 54.2969 15.625 55.5176 17.5781 57.8125 17.5781 Z M 58.8379 13.3301 C 58.2031 13.3301 57.959 12.793 57.959 11.9141 L 58.0078 -34.3262 C 58.0078 -35.6445 58.5449 -36.4746 59.6191 -37.0605 L 99.6094 -60.2539 C 99.9512 -60.4492 100.293 -60.5469 100.586 -60.5469 C 101.123 -60.5469 101.562 -60.1074 101.562 -59.082 L 101.514 -12.793 C 101.514 -11.5234 101.025 -10.6445 99.9512 -10.0586 L 59.9121 13.0371 C 59.4727 13.2324 59.1309 13.3789 58.8379 13.3301 Z"/>
  </g>
  <g id="Ultralight-M" transform="matrix(1 0 0 1 501.362 1126)">
   <path d="M 14.6484 -8.20312 C 14.7461 -8.20312 14.7949 -8.20312 14.8438 -8.20312 L 14.8438 -59.5703 C 14.8438 -60.7422 15.3809 -61.5723 16.2598 -62.0605 L 60.6934 -87.6465 C 60.498 -88.3301 59.6191 -88.9648 58.8867 -88.9648 C 58.3984 -88.9648 57.9102 -88.8672 57.3242 -88.4766 L 15.4297 -64.3066 C 12.793 -62.7441 12.4512 -62.2559 12.4512 -59.1797 L 12.4512 -10.791 C 12.4512 -9.47266 12.9395 -8.20312 14.6484 -8.20312 Z M 35.498 3.85742 C 35.5957 3.85742 35.6445 3.85742 35.6934 3.85742 L 35.6934 -47.5586 C 35.6934 -48.7793 36.084 -49.4141 37.1094 -50 L 81.543 -75.6348 C 81.3965 -76.123 80.7129 -76.9043 79.7363 -76.9043 C 79.248 -76.9043 78.7598 -76.8066 78.1738 -76.416 L 36.2305 -52.2461 C 33.5938 -50.7324 33.3008 -50.2441 33.3008 -47.168 L 33.3008 1.2207 C 33.3008 2.73438 34.082 3.85742 35.498 3.85742 Z M 57.7637 16.5039 C 58.5449 16.5039 59.6191 16.1621 60.8398 15.4785 L 101.318 -7.86133 C 103.955 -9.42383 104.248 -9.86328 104.248 -12.9395 L 104.248 -59.7168 C 104.248 -62.5977 103.223 -64.1113 101.318 -64.1113 C 100.439 -64.1113 99.4629 -63.8184 98.291 -63.1348 L 57.8125 -39.8438 C 55.3223 -38.3301 54.8828 -37.6953 54.8828 -34.7656 L 54.8828 12.0605 C 54.8828 14.8926 55.8594 16.5039 57.7637 16.5039 Z M 58.3496 13.8184 C 57.6172 13.8184 57.2754 13.1836 57.2754 12.1094 L 57.2754 -35.0586 C 57.2754 -36.2305 57.7637 -37.0605 58.6914 -37.5488 L 99.6094 -61.1328 C 99.9512 -61.377 100.342 -61.5234 100.732 -61.5234 C 101.367 -61.5234 101.855 -61.0352 101.855 -59.8145 L 101.855 -12.5488 C 101.855 -11.377 101.367 -10.5957 100.439 -10.1074 L 59.5703 13.4277 C 59.0332 13.7207 58.6914 13.8184 58.3496 13.8184 Z"/>
  </g>
  <g id="Black-S" transform="matrix(1 0 0 1 2881.4 696)">
   <path d="M 18.4082 -7.51953 C 19.7266 -7.51953 21.1426 -7.8125 22.6562 -8.44727 L 22.6562 -45.8008 C 22.6562 -51.4648 23.4375 -52.832 28.3691 -55.6641 L 60.8398 -74.4141 C 60.2051 -79.6387 56.7383 -82.4219 52.3438 -82.4219 C 50.1953 -82.4219 47.8027 -81.7871 45.459 -80.4199 L 16.5527 -63.7207 C 10.8887 -60.4492 9.76562 -58.8379 9.76562 -52.002 L 9.76562 -18.7012 C 9.76562 -11.9629 13.2324 -7.51953 18.4082 -7.51953 Z M 34.9121 2.00195 C 36.2305 2.00195 37.6465 1.70898 39.1602 1.07422 L 39.1602 -36.2793 C 39.1602 -41.9434 39.9414 -43.3105 44.873 -46.1426 L 77.3438 -64.8926 C 76.709 -70.1172 73.2422 -72.9492 68.7988 -72.9492 C 66.6504 -72.9492 64.3066 -72.2656 61.9141 -70.8984 L 33.0566 -54.1992 C 27.3926 -50.9277 26.2695 -49.3164 26.2695 -42.4805 L 26.2207 -9.17969 C 26.2207 -2.44141 29.7363 2.00195 34.9121 2.00195 Z M 51.6113 11.6699 C 53.7109 11.6699 56.1035 10.9375 58.6426 9.47266 L 87.4512 -7.17773 C 93.1641 -10.498 94.2383 -12.2559 94.2383 -18.8965 L 94.2383 -52.1484 C 94.2383 -59.1309 90.8691 -63.2324 85.8398 -63.2324 C 83.7402 -63.2324 81.3477 -62.5 78.7598 -61.0352 L 50 -44.4336 C 44.0918 -41.0156 43.2129 -39.5508 43.2129 -32.7148 L 43.2129 0.537109 C 43.2129 7.66602 46.582 11.6699 51.6113 11.6699 Z M 56.5918 -4.54102 C 56.3965 -4.54102 56.2988 -4.6875 56.2988 -4.83398 L 56.7383 -31.6895 C 56.7383 -32.4219 57.0801 -32.9102 57.6172 -33.252 L 80.4688 -46.9238 C 80.5664 -46.9727 80.7129 -47.0703 80.8105 -47.0703 C 81.0059 -47.0703 81.1523 -46.875 81.1523 -46.6309 L 80.7129 -19.9219 C 80.7129 -19.2383 80.4199 -18.7012 79.834 -18.3594 L 56.8848 -4.63867 C 56.7871 -4.58984 56.6895 -4.54102 56.5918 -4.54102 Z"/>
  </g>
  <g id="Heavy-S" transform="matrix(1 0 0 1 2585.69 696)">
   <path d="M 17.3828 -7.66602 C 18.6035 -7.66602 19.9219 -7.95898 21.2891 -8.59375 L 21.2891 -46.8262 C 21.2891 -51.5137 21.9238 -52.6855 26.0254 -54.9805 L 59.2285 -74.1699 C 58.7891 -78.8574 55.7129 -81.3965 51.7578 -81.3965 C 49.8535 -81.3965 47.7539 -80.8594 45.6543 -79.6387 L 16.0156 -62.5488 C 10.7422 -59.4727 9.76562 -58.0566 9.76562 -51.709 L 9.76562 -17.6758 C 9.76562 -11.6699 12.8418 -7.66602 17.3828 -7.66602 Z M 33.5449 1.66016 C 34.7656 1.66016 36.084 1.36719 37.4512 0.732422 L 37.4512 -37.5 C 37.4512 -42.1875 38.0859 -43.3594 42.1875 -45.7031 L 75.3906 -64.8438 C 74.9512 -69.5312 71.875 -72.1191 67.8711 -72.1191 C 65.9668 -72.1191 63.916 -71.5332 61.7676 -70.3125 L 32.1777 -53.2227 C 26.9043 -50.1465 25.9277 -48.7305 25.9277 -42.3828 L 25.8789 -8.34961 C 25.8789 -2.34375 29.0039 1.66016 33.5449 1.66016 Z M 50.1465 11.2305 C 52.0996 11.2305 54.3457 10.498 56.7871 9.13086 L 85.791 -7.61719 C 91.0645 -10.6934 92.2363 -12.5977 92.2363 -18.75 L 92.2363 -52.2461 C 92.2363 -58.7891 89.209 -62.5488 84.668 -62.5488 C 82.7148 -62.5488 80.4688 -61.8164 78.0273 -60.4492 L 49.0234 -43.7012 C 43.6035 -40.5762 42.5781 -38.8672 42.5781 -32.5684 L 42.5781 0.927734 C 42.5781 7.51953 45.5566 11.2305 50.1465 11.2305 Z M 54.4922 -3.17383 C 54.3457 -3.22266 54.248 -3.32031 54.248 -3.4668 L 54.6875 -31.7383 C 54.6875 -32.666 55.0293 -33.252 55.7617 -33.6914 L 79.9316 -48.0469 C 80.0293 -48.0957 80.127 -48.1934 80.2246 -48.1934 C 80.4199 -48.1934 80.5176 -47.998 80.5176 -47.8027 L 80.1758 -19.5801 C 80.1758 -18.75 79.834 -18.1152 79.0527 -17.6758 L 54.7852 -3.27148 C 54.6875 -3.22266 54.5898 -3.17383 54.4922 -3.17383 Z"/>
  </g>
  <g id="Bold-S" transform="matrix(1 0 0 1 2290.08 696)">
   <path d="M 16.3086 -7.86133 C 17.3828 -7.86133 18.5547 -8.1543 19.7754 -8.78906 L 19.7754 -47.998 C 19.7754 -51.5625 20.2637 -52.4902 23.3887 -54.248 L 57.4219 -73.9258 C 57.1777 -77.9785 54.541 -80.2734 51.123 -80.2734 C 49.4629 -80.2734 47.6562 -79.7852 45.8496 -78.7109 L 15.4297 -61.2305 C 10.5469 -58.3984 9.76562 -57.1777 9.76562 -51.416 L 9.76562 -16.5527 C 9.76562 -11.3281 12.4023 -7.86133 16.3086 -7.86133 Z M 32.0801 1.26953 C 33.1543 1.26953 34.3262 0.976562 35.5469 0.341797 L 35.5469 -38.8672 C 35.5469 -42.5293 36.0352 -43.3594 39.1602 -45.166 L 73.1934 -64.7949 C 72.9492 -68.8965 70.3613 -71.1914 66.8457 -71.1914 C 65.2344 -71.1914 63.4766 -70.7031 61.6211 -69.6777 L 31.2012 -52.0996 C 26.3184 -49.3164 25.5371 -48.0957 25.5371 -42.2852 L 25.4883 -7.4707 C 25.4883 -2.24609 28.2227 1.26953 32.0801 1.26953 Z M 48.4863 10.6934 C 50.293 10.6934 52.3926 10.0586 54.6875 8.74023 L 83.9355 -8.10547 C 88.6719 -10.8887 90.0391 -12.9883 90.0391 -18.6523 L 89.9902 -52.3926 C 89.9902 -58.3984 87.4023 -61.7676 83.3008 -61.7676 C 81.543 -61.7676 79.4922 -61.084 77.1973 -59.8145 L 47.9492 -42.9199 C 43.0176 -40.0879 41.8457 -38.0859 41.8457 -32.4219 L 41.8457 1.31836 C 41.8457 7.32422 44.3848 10.6934 48.4863 10.6934 Z M 52.1973 -1.66016 C 52.0508 -1.70898 51.9531 -1.80664 51.9531 -1.95312 L 52.3438 -31.7871 C 52.3438 -32.959 52.7344 -33.5938 53.7109 -34.1797 L 79.2969 -49.3652 C 79.3945 -49.4141 79.4922 -49.4629 79.5898 -49.4141 C 79.7852 -49.4141 79.834 -49.2676 79.834 -49.0723 L 79.541 -19.2383 C 79.541 -18.2617 79.1992 -17.4316 78.2227 -16.8945 L 52.4902 -1.75781 C 52.3926 -1.66016 52.2949 -1.66016 52.1973 -1.66016 Z"/>
  </g>
  <g id="Semibold-S" transform="matrix(1 0 0 1 1994.15 696)">
   <path d="M 15.5273 -7.95898 C 16.5039 -7.95898 17.5781 -8.25195 18.7012 -8.88672 L 18.7012 -48.7793 C 18.7012 -51.6113 19.1406 -52.3926 21.582 -53.7598 L 56.1523 -73.7305 C 56.1035 -77.3926 53.7598 -79.4922 50.6836 -79.4922 C 49.2188 -79.4922 47.6074 -79.0527 45.9961 -78.125 L 15.0391 -60.3027 C 10.4492 -57.6172 9.76562 -56.5918 9.76562 -51.1719 L 9.76562 -15.8203 C 9.76562 -11.1328 12.1094 -7.95898 15.5273 -7.95898 Z M 31.0059 0.976562 C 32.0312 0.976562 33.1055 0.683594 34.2285 0.0488281 L 34.2285 -39.8438 C 34.2285 -42.7246 34.6191 -43.4082 37.0605 -44.8242 L 71.6797 -64.7949 C 71.6309 -68.457 69.2871 -70.5566 66.1621 -70.5566 C 64.6973 -70.5566 63.1348 -70.1172 61.5234 -69.1895 L 30.5176 -51.3672 C 25.9277 -48.7305 25.2441 -47.6074 25.2441 -42.2363 L 25.2441 -6.83594 C 25.2441 -2.14844 27.6367 0.976562 31.0059 0.976562 Z M 47.3633 10.3516 C 49.0234 10.3516 51.0254 9.7168 53.2715 8.44727 L 82.666 -8.44727 C 87.0605 -10.9863 88.4766 -13.2324 88.4766 -18.5547 L 88.4277 -52.4414 C 88.4277 -58.1543 86.1328 -61.2305 82.373 -61.2305 C 80.7617 -61.2305 78.8086 -60.5957 76.6113 -59.3262 L 47.2168 -42.3828 C 42.627 -39.7461 41.3574 -37.5488 41.3574 -32.2754 L 41.3574 1.61133 C 41.3574 7.22656 43.6035 10.3516 47.3633 10.3516 Z M 50.5859 -0.634766 C 50.4395 -0.683594 50.3906 -0.78125 50.3906 -0.878906 L 50.7812 -31.8359 C 50.7812 -33.1543 51.1719 -33.8379 52.2949 -34.4727 L 78.8574 -50.2441 C 78.9551 -50.293 79.0527 -50.293 79.1504 -50.293 C 79.2969 -50.2441 79.3457 -50.1465 79.3457 -49.9512 L 79.1504 -18.9941 C 79.1504 -17.8711 78.7598 -16.9922 77.6367 -16.3574 L 50.8789 -0.683594 C 50.7812 -0.634766 50.6836 -0.585938 50.5859 -0.634766 Z"/>
  </g>
  <g id="Medium-S" transform="matrix(1 0 0 1 1698.02 696)">
   <path d="M 14.9414 -8.05664 C 15.8691 -8.05664 16.8457 -8.34961 17.9199 -8.98438 L 17.9199 -49.3652 C 17.9199 -51.6113 18.2617 -52.2949 20.166 -53.3691 L 55.2246 -73.584 C 55.2734 -76.9531 53.1738 -78.9062 50.3418 -78.9062 C 49.0234 -78.9062 47.6074 -78.5156 46.1426 -77.6367 L 14.7461 -59.6191 C 10.3516 -57.0801 9.76562 -56.1523 9.76562 -51.0254 L 9.76562 -15.2344 C 9.76562 -10.9375 11.8652 -8.05664 14.9414 -8.05664 Z M 30.2246 0.78125 C 31.1523 0.78125 32.1777 0.488281 33.2031 -0.146484 L 33.2031 -40.5762 C 33.2031 -42.8711 33.5449 -43.4082 35.498 -44.5312 L 70.5566 -64.7461 C 70.5566 -68.1152 68.5059 -70.0684 65.625 -70.0684 C 64.3066 -70.0684 62.8906 -69.6777 61.4258 -68.8477 L 30.0293 -50.7812 C 25.6348 -48.291 25.0488 -47.2656 25.0488 -42.1875 L 25.0488 -6.39648 C 25.0488 -2.09961 27.1973 0.78125 30.2246 0.78125 Z M 46.5332 10.0586 C 48.0957 10.0586 50 9.47266 52.1973 8.25195 L 81.6895 -8.69141 C 85.8398 -11.084 87.3047 -13.4277 87.3047 -18.457 L 87.2559 -52.4902 C 87.2559 -57.959 85.1562 -60.791 81.6895 -60.791 C 80.127 -60.791 78.2715 -60.2051 76.1719 -58.9844 L 46.6309 -41.9434 C 42.334 -39.4531 41.0156 -37.1582 41.0156 -32.1777 L 41.0156 1.85547 C 41.0156 7.12891 43.0176 10.0586 46.5332 10.0586 Z M 49.3652 0.146484 C 49.2188 0.0976562 49.2188 0.0488281 49.2188 -0.0976562 L 49.5605 -31.8848 C 49.5605 -33.3008 49.9512 -34.0332 51.2207 -34.7656 L 78.5645 -50.8789 C 78.6621 -50.9277 78.7109 -50.9766 78.8086 -50.9277 C 78.9551 -50.8789 79.0039 -50.8301 79.0039 -50.6348 L 78.8086 -18.7988 C 78.8086 -17.627 78.418 -16.6504 77.1484 -15.918 L 49.6582 0.146484 C 49.5605 0.195312 49.4629 0.195312 49.3652 0.146484 Z"/>
  </g>
  <g id="Regular-S" transform="matrix(1 0 0 1 1402.07 696)">
   <path d="M 14.1602 -8.20312 C 14.9902 -8.20312 15.918 -8.44727 16.8457 -9.13086 L 16.8457 -50.1953 C 16.8457 -51.6602 17.0898 -52.1484 18.4082 -52.8809 L 54.0039 -73.3887 C 54.1504 -76.3672 52.3926 -78.125 49.9023 -78.125 C 48.7793 -78.125 47.5586 -77.7832 46.2402 -77.0508 L 14.3066 -58.6914 C 10.2539 -56.3477 9.76562 -55.5664 9.76562 -50.8301 L 9.76562 -14.4531 C 9.76562 -10.7422 11.5723 -8.20312 14.1602 -8.20312 Z M 29.1992 0.488281 C 30.0781 0.488281 31.0059 0.244141 31.9336 -0.439453 L 31.9336 -41.5039 C 31.9336 -43.0664 32.1289 -43.4082 33.4473 -44.1895 L 69.043 -64.6973 C 69.2383 -67.6758 67.4316 -69.4336 64.8926 -69.4336 C 63.8184 -69.4336 62.5977 -69.1406 61.3281 -68.4082 L 29.3457 -50 C 25.2441 -47.7051 24.7559 -46.8262 24.7559 -42.1387 L 24.7559 -5.76172 C 24.7559 -2.05078 26.6602 0.488281 29.1992 0.488281 Z M 45.4102 9.7168 C 46.875 9.7168 48.6816 9.13086 50.7812 7.95898 L 80.4199 -9.0332 C 84.2285 -11.2305 85.791 -13.7207 85.791 -18.3594 L 85.6934 -52.5879 C 85.6934 -57.7148 83.9355 -60.2539 80.7617 -60.2539 C 79.3457 -60.2539 77.5879 -59.7168 75.6348 -58.5449 L 45.8984 -41.4062 C 41.9922 -39.1113 40.5273 -36.6699 40.5273 -32.0801 L 40.5273 2.14844 C 40.5273 7.03125 42.2363 9.7168 45.4102 9.7168 Z M 47.8027 1.17188 C 47.6562 1.12305 47.6562 1.07422 47.6562 0.927734 L 47.998 -31.9336 C 47.998 -33.4961 48.3887 -34.2773 49.8047 -35.0586 L 78.125 -51.7578 C 78.2227 -51.8066 78.2715 -51.8066 78.418 -51.8066 C 78.5156 -51.7578 78.5156 -51.6602 78.5156 -51.5137 L 78.418 -18.5547 C 78.418 -17.2363 77.9785 -16.2109 76.5625 -15.3809 L 48.0469 1.17188 C 47.9492 1.2207 47.9004 1.2207 47.8027 1.17188 Z"/>
  </g>
  <g id="Light-S" transform="matrix(1 0 0 1 1105.99 696)">
   <path d="M 13.3301 -10.0098 C 13.916 -10.0098 14.5996 -10.2051 15.2344 -10.6445 L 15.2344 -51.4648 C 15.2344 -52.7832 15.5273 -53.3203 16.6504 -53.9062 L 52.002 -74.3164 C 52.0508 -76.5137 50.5859 -77.8809 48.7305 -77.8809 C 47.8027 -77.8809 46.875 -77.6367 45.8496 -77.002 L 13.623 -58.4961 C 10.1562 -56.4941 9.76562 -55.8105 9.76562 -51.8066 L 9.76562 -14.9414 C 9.76562 -12.0605 11.1328 -10.0098 13.3301 -10.0098 Z M 28.7598 -1.07422 C 29.3945 -1.07422 30.0293 -1.26953 30.6641 -1.70898 L 30.6641 -42.5293 C 30.6641 -43.9453 30.9082 -44.3359 32.0801 -45.0195 L 67.4316 -65.3809 C 67.5293 -67.5293 66.1133 -68.9453 64.1602 -68.9453 C 63.2812 -68.9453 62.3047 -68.7012 61.2793 -68.1152 L 29.0527 -49.5605 C 25.5859 -47.6074 25.1953 -46.875 25.1953 -42.8711 L 25.1953 -6.05469 C 25.1953 -3.125 26.6602 -1.07422 28.7598 -1.07422 Z M 45.3613 8.34961 C 46.582 8.34961 48.0469 7.86133 49.8047 6.88477 L 80.0781 -10.5469 C 83.3496 -12.4023 84.5215 -14.209 84.5215 -18.1641 L 84.4727 -53.1738 C 84.4727 -57.373 82.959 -59.5215 80.3223 -59.5215 C 79.1504 -59.5215 77.6855 -59.0332 76.0742 -58.1055 L 45.7031 -40.625 C 42.3828 -38.6719 41.3086 -36.8164 41.3086 -32.959 L 41.3086 2.05078 C 41.3086 6.10352 42.7246 8.34961 45.3613 8.34961 Z M 47.1191 1.80664 C 46.875 1.80664 46.7773 1.5625 46.7773 1.2207 L 47.0215 -32.9102 C 47.0215 -34.2773 47.4121 -35.0098 48.584 -35.6934 L 78.0762 -52.9297 C 78.2715 -53.0273 78.3691 -53.0762 78.5645 -53.0273 C 78.8086 -53.0273 78.9551 -52.832 78.9551 -52.4414 L 78.8574 -18.2129 C 78.8574 -17.041 78.418 -16.1133 77.2461 -15.4297 L 47.6074 1.70898 C 47.4121 1.80664 47.3145 1.85547 47.1191 1.80664 Z"/>
  </g>
  <g id="Thin-S" transform="matrix(1 0 0 1 810.133 696)">
   <path d="M 12.207 -12.4512 C 12.5 -12.4512 12.793 -12.5 13.0859 -12.6953 L 13.0859 -53.1738 C 13.0859 -54.248 13.4277 -54.834 14.3066 -55.3223 L 49.3164 -75.4883 C 49.2676 -76.6602 48.2422 -77.5391 47.168 -77.5391 C 46.582 -77.5391 45.9961 -77.3926 45.2637 -77.002 L 12.6953 -58.2031 C 10.0586 -56.6406 9.76562 -56.1523 9.76562 -53.125 L 9.76562 -15.625 C 9.76562 -13.8672 10.5469 -12.4512 12.207 -12.4512 Z M 28.2227 -3.22266 C 28.5156 -3.22266 28.7598 -3.27148 29.0527 -3.4668 L 29.0527 -43.9453 C 29.0527 -45.0684 29.3457 -45.5078 30.2734 -46.0938 L 65.332 -66.2598 C 65.2832 -67.3828 64.4043 -68.3105 63.1348 -68.3105 C 62.5488 -68.3105 61.9629 -68.1641 61.2793 -67.7734 L 28.6621 -48.9746 C 26.0254 -47.4609 25.7324 -46.9238 25.7324 -43.8965 L 25.7324 -6.39648 C 25.7324 -4.54102 26.709 -3.22266 28.2227 -3.22266 Z M 45.3125 6.54297 C 46.1426 6.54297 47.2656 6.15234 48.5352 5.46875 L 79.6875 -12.5 C 82.2266 -13.9648 82.8125 -14.8926 82.8125 -17.9199 L 82.8125 -53.9062 C 82.8125 -56.9824 81.6895 -58.5449 79.7852 -58.5449 C 78.9062 -58.5449 77.832 -58.2031 76.6113 -57.5195 L 45.459 -39.5508 C 42.9688 -38.0859 42.334 -37.0117 42.334 -34.082 L 42.334 1.9043 C 42.334 4.88281 43.3594 6.54297 45.3125 6.54297 Z M 46.2891 2.63672 C 45.8496 2.63672 45.6543 2.24609 45.6543 1.61133 L 45.752 -34.2285 C 45.752 -35.3027 46.1426 -35.9863 47.0215 -36.4746 L 78.0762 -54.4922 C 78.2715 -54.6387 78.5156 -54.7363 78.7598 -54.6875 C 79.1504 -54.6875 79.4434 -54.3945 79.4434 -53.6621 L 79.3945 -17.7734 C 79.3945 -16.748 79.0039 -16.0156 78.125 -15.4785 L 47.0703 2.44141 C 46.7285 2.58789 46.4844 2.63672 46.2891 2.63672 Z"/>
  </g>
  <g id="Ultralight-S" transform="matrix(1 0 0 1 513.862 696)">
   <path d="M 11.6699 -13.6719 C 11.7676 -13.6719 11.8652 -13.6719 11.9629 -13.7207 L 11.9629 -54.0527 C 11.9629 -54.9805 12.3535 -55.6152 13.1348 -56.0547 L 47.9492 -76.123 C 47.8516 -76.8066 47.0703 -77.3926 46.3867 -77.3926 C 45.9473 -77.3926 45.5078 -77.2949 44.9707 -76.9531 L 12.207 -58.0566 C 10.0098 -56.7871 9.76562 -56.3477 9.76562 -53.8086 L 9.76562 -15.9668 C 9.76562 -14.7949 10.2051 -13.6719 11.6699 -13.6719 Z M 27.8809 -4.29688 C 28.0273 -4.29688 28.125 -4.29688 28.2227 -4.3457 L 28.2227 -44.6777 C 28.2227 -45.6543 28.5156 -46.1426 29.3457 -46.6309 L 64.209 -66.748 C 64.1113 -67.2852 63.4766 -68.0176 62.5977 -68.0176 C 62.207 -68.0176 61.7676 -67.8711 61.2305 -67.5781 L 28.4668 -48.6328 C 26.2695 -47.3633 26.0254 -46.9727 26.0254 -44.4336 L 26.0254 -6.5918 C 26.0254 -5.27344 26.709 -4.29688 27.8809 -4.29688 Z M 45.2637 5.56641 C 45.9473 5.56641 46.8262 5.27344 47.8516 4.6875 L 79.4434 -13.4766 C 81.6406 -14.7461 81.9336 -15.2344 81.9336 -17.8223 L 81.9336 -54.2969 C 81.9336 -56.7383 81.0547 -58.0078 79.4434 -58.0078 C 78.7598 -58.0078 77.9297 -57.7637 76.9531 -57.1777 L 45.3613 -39.0137 C 43.2617 -37.7441 42.8711 -37.1094 42.8711 -34.668 L 42.8711 1.80664 C 42.8711 4.24805 43.6523 5.56641 45.2637 5.56641 Z M 45.8496 3.07617 C 45.3125 3.07617 45.0684 2.58789 45.0684 1.80664 L 45.0684 -34.9121 C 45.0684 -35.8398 45.459 -36.5234 46.2402 -36.9141 L 78.0273 -55.2734 C 78.3203 -55.4688 78.6133 -55.5664 78.8574 -55.5664 C 79.3457 -55.5664 79.7363 -55.1758 79.7363 -54.2969 L 79.7363 -17.5293 C 79.7363 -16.6016 79.3457 -15.918 78.5645 -15.5273 L 46.7285 2.7832 C 46.3867 2.97852 46.0938 3.07617 45.8496 3.07617 Z"/>
  </g>
 </g>
</svg>
