<?xml version="1.0" encoding="UTF-8"?>
<!--Generator: Apple Native CoreSVG 123-->
<!DOCTYPE svg
PUBLIC "-//W3C//DTD SVG 1.1//EN"
       "http://www.w3.org/Graphics/SVG/1.1/DTD/svg11.dtd">
<svg version="1.1" xmlns="http://www.w3.org/2000/svg" xmlns:xlink="http://www.w3.org/1999/xlink" width="3300" height="2200">
 <!--glyph: "uni1002C2.medium", point size: 100.000000, font version: "Version 15.0d5e5", template writer version: "5"-->
 <g id="Notes">
  <rect height="2200" id="artboard" style="fill:white;opacity:1" width="3300" x="0" y="0"/>
  <line id="" style="fill:none;stroke:black;opacity:1;stroke-width:0.5;" x1="263" x2="3036" y1="292" y2="292"/>
  <text style="stroke:none;fill:black;font-family:-apple-system,&quot;SF Pro Display&quot;,&quot;SF Pro Text&quot;,Helvetica,sans-serif;font-weight:bold;" transform="matrix(1 0 0 1 263 322)">Weight/Scale Variations</text>
  <text style="stroke:none;fill:black;font-family:-apple-system,&quot;SF Pro Display&quot;,&quot;SF Pro Text&quot;,Helvetica,sans-serif;text-anchor:middle;" transform="matrix(1 0 0 1 559.711 322)">Ultralight</text>
  <text style="stroke:none;fill:black;font-family:-apple-system,&quot;SF Pro Display&quot;,&quot;SF Pro Text&quot;,Helvetica,sans-serif;text-anchor:middle;" transform="matrix(1 0 0 1 856.422 322)">Thin</text>
  <text style="stroke:none;fill:black;font-family:-apple-system,&quot;SF Pro Display&quot;,&quot;SF Pro Text&quot;,Helvetica,sans-serif;text-anchor:middle;" transform="matrix(1 0 0 1 1153.13 322)">Light</text>
  <text style="stroke:none;fill:black;font-family:-apple-system,&quot;SF Pro Display&quot;,&quot;SF Pro Text&quot;,Helvetica,sans-serif;text-anchor:middle;" transform="matrix(1 0 0 1 1449.84 322)">Regular</text>
  <text style="stroke:none;fill:black;font-family:-apple-system,&quot;SF Pro Display&quot;,&quot;SF Pro Text&quot;,Helvetica,sans-serif;text-anchor:middle;" transform="matrix(1 0 0 1 1746.56 322)">Medium</text>
  <text style="stroke:none;fill:black;font-family:-apple-system,&quot;SF Pro Display&quot;,&quot;SF Pro Text&quot;,Helvetica,sans-serif;text-anchor:middle;" transform="matrix(1 0 0 1 2043.27 322)">Semibold</text>
  <text style="stroke:none;fill:black;font-family:-apple-system,&quot;SF Pro Display&quot;,&quot;SF Pro Text&quot;,Helvetica,sans-serif;text-anchor:middle;" transform="matrix(1 0 0 1 2339.98 322)">Bold</text>
  <text style="stroke:none;fill:black;font-family:-apple-system,&quot;SF Pro Display&quot;,&quot;SF Pro Text&quot;,Helvetica,sans-serif;text-anchor:middle;" transform="matrix(1 0 0 1 2636.69 322)">Heavy</text>
  <text style="stroke:none;fill:black;font-family:-apple-system,&quot;SF Pro Display&quot;,&quot;SF Pro Text&quot;,Helvetica,sans-serif;text-anchor:middle;" transform="matrix(1 0 0 1 2933.4 322)">Black</text>
  <line id="" style="fill:none;stroke:black;opacity:1;stroke-width:0.5;" x1="263" x2="3036" y1="1903" y2="1903"/>
  <g id="" transform="matrix(1 0 0 1 263 1933)">
   <path d="M 9.24805 0.830078 C 13.5547 0.830078 17.1387 -2.74414 17.1387 -7.05078 C 17.1387 -11.3574 13.5449 -14.9316 9.23828 -14.9316 C 4.94141 -14.9316 1.36719 -11.3574 1.36719 -7.05078 C 1.36719 -2.74414 4.95117 0.830078 9.24805 0.830078 Z M 9.24805 -0.654297 C 5.70312 -0.654297 2.87109 -3.49609 2.87109 -7.05078 C 2.87109 -10.6055 5.69336 -13.4473 9.23828 -13.4473 C 12.793 -13.4473 15.6348 -10.6055 15.6445 -7.05078 C 15.6543 -3.49609 12.8027 -0.654297 9.24805 -0.654297 Z M 9.22852 -3.42773 C 9.69727 -3.42773 9.9707 -3.74023 9.9707 -4.25781 L 9.9707 -6.31836 L 12.1973 -6.31836 C 12.6953 -6.31836 13.0371 -6.57227 13.0371 -7.04102 C 13.0371 -7.51953 12.7148 -7.7832 12.1973 -7.7832 L 9.9707 -7.7832 L 9.9707 -10.0098 C 9.9707 -10.5273 9.69727 -10.8496 9.22852 -10.8496 C 8.75977 -10.8496 8.50586 -10.5078 8.50586 -10.0098 L 8.50586 -7.7832 L 6.29883 -7.7832 C 5.78125 -7.7832 5.44922 -7.51953 5.44922 -7.04102 C 5.44922 -6.57227 5.80078 -6.31836 6.29883 -6.31836 L 8.50586 -6.31836 L 8.50586 -4.25781 C 8.50586 -3.75977 8.75977 -3.42773 9.22852 -3.42773 Z"/>
  </g>
  <g id="" transform="matrix(1 0 0 1 281.506 1933)">
   <path d="M 11.709 2.91016 C 17.1484 2.91016 21.6699 -1.60156 21.6699 -7.05078 C 21.6699 -12.4902 17.1387 -17.0117 11.6992 -17.0117 C 6.25 -17.0117 1.74805 -12.4902 1.74805 -7.05078 C 1.74805 -1.60156 6.25977 2.91016 11.709 2.91016 Z M 11.709 1.25 C 7.09961 1.25 3.41797 -2.44141 3.41797 -7.05078 C 3.41797 -11.6504 7.08984 -15.3516 11.6992 -15.3516 C 16.2988 -15.3516 20 -11.6504 20.0098 -7.05078 C 20.0195 -2.44141 16.3086 1.25 11.709 1.25 Z M 11.6797 -2.41211 C 12.207 -2.41211 12.5195 -2.77344 12.5195 -3.33984 L 12.5195 -6.23047 L 15.5762 -6.23047 C 16.123 -6.23047 16.5039 -6.51367 16.5039 -7.03125 C 16.5039 -7.55859 16.1426 -7.86133 15.5762 -7.86133 L 12.5195 -7.86133 L 12.5195 -10.9277 C 12.5195 -11.5039 12.207 -11.8555 11.6797 -11.8555 C 11.1621 -11.8555 10.8789 -11.4844 10.8789 -10.9277 L 10.8789 -7.86133 L 7.83203 -7.86133 C 7.25586 -7.86133 6.89453 -7.55859 6.89453 -7.03125 C 6.89453 -6.51367 7.28516 -6.23047 7.83203 -6.23047 L 10.8789 -6.23047 L 10.8789 -3.33984 C 10.8789 -2.79297 11.1621 -2.41211 11.6797 -2.41211 Z"/>
  </g>
  <g id="" transform="matrix(1 0 0 1 304.914 1933)">
   <path d="M 14.9707 5.67383 C 21.9336 5.67383 27.6855 -0.078125 27.6855 -7.04102 C 27.6855 -14.0039 21.9238 -19.7559 14.9609 -19.7559 C 7.99805 -19.7559 2.25586 -14.0039 2.25586 -7.04102 C 2.25586 -0.078125 8.00781 5.67383 14.9707 5.67383 Z M 14.9707 3.85742 C 8.92578 3.85742 4.08203 -1.00586 4.08203 -7.04102 C 4.08203 -13.0762 8.91602 -17.9395 14.9609 -17.9395 C 20.9961 -17.9395 25.8594 -13.0762 25.8691 -7.04102 C 25.8789 -1.00586 21.0059 3.85742 14.9707 3.85742 Z M 14.9414 -1.06445 C 15.5176 -1.06445 15.8594 -1.45508 15.8594 -2.06055 L 15.8594 -6.13281 L 20.0977 -6.13281 C 20.6934 -6.13281 21.1133 -6.46484 21.1133 -7.02148 C 21.1133 -7.59766 20.7227 -7.93945 20.0977 -7.93945 L 15.8594 -7.93945 L 15.8594 -12.1875 C 15.8594 -12.8027 15.5176 -13.1934 14.9414 -13.1934 C 14.3848 -13.1934 14.0625 -12.7832 14.0625 -12.1875 L 14.0625 -7.93945 L 9.82422 -7.93945 C 9.20898 -7.93945 8.80859 -7.59766 8.80859 -7.02148 C 8.80859 -6.46484 9.23828 -6.13281 9.82422 -6.13281 L 14.0625 -6.13281 L 14.0625 -2.06055 C 14.0625 -1.47461 14.3848 -1.06445 14.9414 -1.06445 Z"/>
  </g>
  <text style="stroke:none;fill:black;font-family:-apple-system,&quot;SF Pro Display&quot;,&quot;SF Pro Text&quot;,Helvetica,sans-serif;font-weight:bold;" transform="matrix(1 0 0 1 263 1953)">Design Variations</text>
  <text style="stroke:none;fill:black;font-family:-apple-system,&quot;SF Pro Display&quot;,&quot;SF Pro Text&quot;,Helvetica,sans-serif;" transform="matrix(1 0 0 1 263 1971)">Symbols are supported in up to nine weights and three scales.</text>
  <text style="stroke:none;fill:black;font-family:-apple-system,&quot;SF Pro Display&quot;,&quot;SF Pro Text&quot;,Helvetica,sans-serif;" transform="matrix(1 0 0 1 263 1989)">For optimal layout with text and other symbols, vertically align</text>
  <text style="stroke:none;fill:black;font-family:-apple-system,&quot;SF Pro Display&quot;,&quot;SF Pro Text&quot;,Helvetica,sans-serif;" transform="matrix(1 0 0 1 263 2007)">symbols with the adjacent text.</text>
  <rect height="14" id="" style="fill:#00AEEF;stroke:none;opacity:0.4;" width="3" x="776" y="1919"/>
  <g id="" transform="matrix(1 0 0 1 779 1933)">
   <path d="M 10.5273 0 L 12.373 0 L 7.17773 -14.0918 L 5.43945 -14.0918 L 0.244141 0 L 2.08984 0 L 3.50586 -4.0332 L 9.11133 -4.0332 Z M 6.2793 -11.9531 L 6.33789 -11.9531 L 8.59375 -5.52734 L 4.02344 -5.52734 Z"/>
  </g>
  <rect height="14" id="" style="fill:#00AEEF;stroke:none;opacity:0.4;" width="3" x="791.617" y="1919"/>
  <text style="stroke:none;fill:black;font-family:-apple-system,&quot;SF Pro Display&quot;,&quot;SF Pro Text&quot;,Helvetica,sans-serif;font-weight:bold;" transform="matrix(1 0 0 1 776 1953)">Margins</text>
  <text style="stroke:none;fill:black;font-family:-apple-system,&quot;SF Pro Display&quot;,&quot;SF Pro Text&quot;,Helvetica,sans-serif;" transform="matrix(1 0 0 1 776 1971)">Leading and trailing margins on the left and right side of each symbol</text>
  <text style="stroke:none;fill:black;font-family:-apple-system,&quot;SF Pro Display&quot;,&quot;SF Pro Text&quot;,Helvetica,sans-serif;" transform="matrix(1 0 0 1 776 1989)">can be adjusted by modifying the width of the blue rectangles.</text>
  <text style="stroke:none;fill:black;font-family:-apple-system,&quot;SF Pro Display&quot;,&quot;SF Pro Text&quot;,Helvetica,sans-serif;" transform="matrix(1 0 0 1 776 2007)">Modifications are automatically applied proportionally to all</text>
  <text style="stroke:none;fill:black;font-family:-apple-system,&quot;SF Pro Display&quot;,&quot;SF Pro Text&quot;,Helvetica,sans-serif;" transform="matrix(1 0 0 1 776 2025)">scales and weights.</text>
  <g id="" transform="matrix(1 0 0 1 1289 1933)">
   <path d="M 2.83203 3.61328 L 4.375 5.15625 C 5.22461 5.98633 6.19141 5.91797 7.05078 4.9707 L 17.2754 -6.16211 C 17.6953 -5.86914 18.0859 -5.87891 18.5645 -5.97656 L 19.6094 -6.19141 L 20.3027 -5.49805 L 20.2539 -4.98047 C 20.1855 -4.44336 20.3418 -4.0332 20.8398 -3.53516 L 21.6602 -2.72461 C 22.1582 -2.2168 22.8223 -2.1875 23.3008 -2.66602 L 26.5527 -5.91797 C 27.0312 -6.39648 27.002 -7.05078 26.5039 -7.55859 L 25.6836 -8.37891 C 25.1855 -8.87695 24.7656 -9.05273 24.2383 -8.97461 L 23.7109 -8.91602 L 23.0469 -9.58008 L 23.3398 -10.7227 C 23.4766 -11.2891 23.3301 -11.748 22.7148 -12.3535 L 20.3027 -14.7559 C 16.7578 -18.2812 12.2168 -18.1738 9.11133 -15.0391 C 8.68164 -14.6094 8.64258 -14.0234 8.91602 -13.5938 C 9.14062 -13.2227 9.61914 -12.998 10.2734 -13.1641 C 11.7871 -13.5449 13.3008 -13.4277 14.7852 -12.4219 L 14.1602 -10.8398 C 13.9258 -10.2539 13.9453 -9.77539 14.1797 -9.33594 L 3.01758 0.9375 C 2.08008 1.80664 1.97266 2.75391 2.83203 3.61328 Z M 10.6641 -14.6484 C 13.3301 -16.6406 16.6504 -16.3184 19.0527 -13.916 L 21.6797 -11.3086 C 21.9141 -11.0742 21.9434 -10.8887 21.875 -10.5957 L 21.5039 -9.0332 L 23.0762 -7.46094 L 24.0332 -7.54883 C 24.3164 -7.57812 24.4043 -7.55859 24.6387 -7.33398 L 25.2539 -6.70898 L 22.5098 -3.95508 L 21.8848 -4.58008 C 21.6602 -4.80469 21.6406 -4.89258 21.6699 -5.17578 L 21.7578 -6.14258 L 20.1953 -7.70508 L 18.5742 -7.39258 C 18.291 -7.33398 18.1445 -7.33398 17.9004 -7.57812 L 15.7324 -9.75586 C 15.498 -9.99023 15.4688 -10.127 15.5957 -10.4395 L 16.5527 -12.7246 C 14.9512 -14.2578 12.832 -15.1074 10.791 -14.4531 C 10.7031 -14.4238 10.6445 -14.4434 10.6152 -14.4824 C 10.5859 -14.5312 10.5859 -14.5801 10.6641 -14.6484 Z M 4.10156 2.91016 C 3.60352 2.41211 3.7793 2.10938 4.11133 1.80664 L 15.0781 -8.31055 L 16.2988 -7.08008 L 6.15234 3.84766 C 5.84961 4.17969 5.46875 4.27734 5.05859 3.87695 Z"/>
  </g>
  <text style="stroke:none;fill:black;font-family:-apple-system,&quot;SF Pro Display&quot;,&quot;SF Pro Text&quot;,Helvetica,sans-serif;font-weight:bold;" transform="matrix(1 0 0 1 1289 1953)">Exporting</text>
  <text style="stroke:none;fill:black;font-family:-apple-system,&quot;SF Pro Display&quot;,&quot;SF Pro Text&quot;,Helvetica,sans-serif;" transform="matrix(1 0 0 1 1289 1971)">Symbols should be outlined when exporting to ensure the</text>
  <text style="stroke:none;fill:black;font-family:-apple-system,&quot;SF Pro Display&quot;,&quot;SF Pro Text&quot;,Helvetica,sans-serif;" transform="matrix(1 0 0 1 1289 1989)">design is preserved when submitting to Xcode.</text>
  <text id="template-version" style="stroke:none;fill:black;font-family:-apple-system,&quot;SF Pro Display&quot;,&quot;SF Pro Text&quot;,Helvetica,sans-serif;text-anchor:end;" transform="matrix(1 0 0 1 3036 1933)">Template v.1.0</text>
  <text style="stroke:none;fill:black;font-family:-apple-system,&quot;SF Pro Display&quot;,&quot;SF Pro Text&quot;,Helvetica,sans-serif;text-anchor:end;" transform="matrix(1 0 0 1 3036 1951)">Generated from star</text>
  <text style="stroke:none;fill:black;font-family:-apple-system,&quot;SF Pro Display&quot;,&quot;SF Pro Text&quot;,Helvetica,sans-serif;text-anchor:end;" transform="matrix(1 0 0 1 3036 1969)">Typeset at 100 points</text>
  <text style="stroke:none;fill:black;font-family:-apple-system,&quot;SF Pro Display&quot;,&quot;SF Pro Text&quot;,Helvetica,sans-serif;" transform="matrix(1 0 0 1 263 726)">Small</text>
  <text style="stroke:none;fill:black;font-family:-apple-system,&quot;SF Pro Display&quot;,&quot;SF Pro Text&quot;,Helvetica,sans-serif;" transform="matrix(1 0 0 1 263 1156)">Medium</text>
  <text style="stroke:none;fill:black;font-family:-apple-system,&quot;SF Pro Display&quot;,&quot;SF Pro Text&quot;,Helvetica,sans-serif;" transform="matrix(1 0 0 1 263 1586)">Large</text>
 </g>
 <g id="Guides">
  <g id="H-reference" style="fill:#27AAE1;stroke:none;" transform="matrix(1 0 0 1 339 696)">
   <path d="M 54.9316 0 L 57.666 0 L 30.5664 -70.459 L 28.0762 -70.459 L 0.976562 0 L 3.66211 0 L 12.9395 -24.4629 L 45.7031 -24.4629 Z M 29.1992 -67.0898 L 29.4434 -67.0898 L 44.8242 -26.709 L 13.8184 -26.709 Z"/>
  </g>
  <line id="Baseline-S" style="fill:none;stroke:#27AAE1;opacity:1;stroke-width:0.577;" x1="263" x2="3036" y1="696" y2="696"/>
  <line id="Capline-S" style="fill:none;stroke:#27AAE1;opacity:1;stroke-width:0.577;" x1="263" x2="3036" y1="625.541" y2="625.541"/>
  <g id="H-reference" style="fill:#27AAE1;stroke:none;" transform="matrix(1 0 0 1 339 1126)">
   <path d="M 54.9316 0 L 57.666 0 L 30.5664 -70.459 L 28.0762 -70.459 L 0.976562 0 L 3.66211 0 L 12.9395 -24.4629 L 45.7031 -24.4629 Z M 29.1992 -67.0898 L 29.4434 -67.0898 L 44.8242 -26.709 L 13.8184 -26.709 Z"/>
  </g>
  <line id="Baseline-M" style="fill:none;stroke:#27AAE1;opacity:1;stroke-width:0.577;" x1="263" x2="3036" y1="1126" y2="1126"/>
  <line id="Capline-M" style="fill:none;stroke:#27AAE1;opacity:1;stroke-width:0.577;" x1="263" x2="3036" y1="1055.54" y2="1055.54"/>
  <g id="H-reference" style="fill:#27AAE1;stroke:none;" transform="matrix(1 0 0 1 339 1556)">
   <path d="M 54.9316 0 L 57.666 0 L 30.5664 -70.459 L 28.0762 -70.459 L 0.976562 0 L 3.66211 0 L 12.9395 -24.4629 L 45.7031 -24.4629 Z M 29.1992 -67.0898 L 29.4434 -67.0898 L 44.8242 -26.709 L 13.8184 -26.709 Z"/>
  </g>
  <line id="Baseline-L" style="fill:none;stroke:#27AAE1;opacity:1;stroke-width:0.577;" x1="263" x2="3036" y1="1556" y2="1556"/>
  <line id="Capline-L" style="fill:none;stroke:#27AAE1;opacity:1;stroke-width:0.577;" x1="263" x2="3036" y1="1485.54" y2="1485.54"/>
  <rect height="119.336" id="left-margin" style="fill:#00AEEF;stroke:none;opacity:0.4;" width="9.95624" x="1385.66" y="1030.79"/>
  <rect height="119.336" id="right-margin" style="fill:#00AEEF;stroke:none;opacity:0.4;" width="9.97495" x="1504.05" y="1030.79"/>
 </g>
 <g id="Symbols">
  <g id="Black-L" transform="matrix(1 0 0 1 2846.24 1556)">
   <path d="M 41.4062 31.7383 C 45.6543 34.9609 50.9277 34.0332 56.4453 29.9316 L 87.1582 7.37305 L 117.773 29.9316 C 123.389 34.0332 128.613 34.9609 132.91 31.7383 C 137.109 28.5156 137.939 23.2422 135.791 16.8945 L 123.584 -19.0918 L 154.541 -41.2598 C 160.107 -45.2148 162.598 -49.9023 160.889 -54.9805 C 159.131 -60.0586 154.395 -62.4512 147.656 -62.3535 L 109.766 -62.0605 L 98.2422 -98.3398 C 96.1426 -104.883 92.4316 -108.594 87.1582 -108.594 C 81.8359 -108.594 78.1738 -104.883 76.0742 -98.3398 L 64.5508 -62.0605 L 26.6113 -62.3535 C 19.873 -62.4512 15.1367 -60.0586 13.4277 -55.0781 C 11.6211 -49.9023 14.209 -45.2148 19.7266 -41.2598 L 50.6836 -19.0918 L 38.5254 16.8945 C 36.3281 23.2422 37.207 28.5156 41.4062 31.7383 Z M 59.5703 6.73828 C 59.5215 6.64062 59.4727 6.5918 59.5215 6.34766 L 69.5312 -19.6777 C 71.3379 -24.8535 71.3379 -26.709 66.2598 -29.9805 L 42.9688 -45.2637 C 42.7734 -45.3613 42.7246 -45.5078 42.7246 -45.6055 C 42.7734 -45.7031 42.9199 -45.752 43.1641 -45.752 L 70.9473 -44.3848 C 76.4648 -44.2383 78.3203 -45.2148 79.6875 -50.5859 L 86.8652 -77.4414 C 86.9629 -77.6855 87.0605 -77.7832 87.1582 -77.7832 C 87.2559 -77.7832 87.3535 -77.6855 87.4023 -77.4414 L 94.5801 -50.5859 C 95.9961 -45.2148 97.8516 -44.2383 103.418 -44.3848 L 131.201 -45.752 C 131.445 -45.752 131.592 -45.7031 131.641 -45.6055 C 131.641 -45.5078 131.543 -45.4102 131.396 -45.2637 L 108.008 -29.9316 C 103.027 -26.6602 102.93 -24.8535 104.785 -19.6777 L 114.746 6.34766 C 114.844 6.5918 114.795 6.64062 114.697 6.73828 C 114.6 6.83594 114.502 6.78711 114.355 6.68945 L 92.6758 -10.8887 C 88.1836 -14.3555 86.084 -14.3555 81.6406 -10.8887 L 59.9609 6.68945 C 59.7656 6.78711 59.668 6.83594 59.5703 6.73828 Z"/>
  </g>
  <g id="Heavy-L" transform="matrix(1 0 0 1 2550.75 1556)">
   <path d="M 40.918 30.7617 C 44.7266 33.6426 49.4141 32.8125 54.4434 29.1016 L 85.9375 5.95703 L 117.334 29.1016 C 122.461 32.8125 127.148 33.6426 130.957 30.7617 C 134.668 27.9297 135.449 23.1934 133.496 17.3828 L 120.996 -19.5312 L 152.734 -42.2852 C 157.812 -45.8496 160.059 -50.0977 158.496 -54.5898 C 156.982 -59.082 152.734 -61.2793 146.582 -61.1816 L 107.666 -60.8887 L 95.8496 -98.0957 C 93.9453 -104.053 90.6738 -107.373 85.9375 -107.373 C 81.2012 -107.373 77.9297 -104.053 75.9766 -98.0957 L 64.1602 -60.8887 L 25.2441 -61.1816 C 19.0918 -61.2793 14.8926 -59.082 13.3301 -54.6387 C 11.7676 -50.0977 14.0625 -45.8496 19.0918 -42.2852 L 50.8301 -19.5312 L 38.3789 17.3828 C 36.377 23.1934 37.1582 27.9297 40.918 30.7617 Z M 56.5918 9.22852 C 56.543 9.08203 56.4941 9.0332 56.5918 8.74023 L 67.2363 -19.9219 C 68.7988 -24.4141 68.7012 -26.2695 64.3555 -29.1016 L 38.916 -46.0938 C 38.6719 -46.2402 38.623 -46.3379 38.623 -46.4844 C 38.6719 -46.582 38.8184 -46.6309 39.1113 -46.6309 L 69.6289 -45.459 C 74.4141 -45.3613 76.1719 -46.3379 77.4414 -50.9766 L 85.6445 -80.3711 C 85.7422 -80.6641 85.791 -80.8105 85.9375 -80.8105 C 86.0352 -80.8105 86.1328 -80.6641 86.2305 -80.3711 L 94.4336 -50.9766 C 95.6543 -46.3379 97.4609 -45.3613 102.246 -45.459 L 132.764 -46.6309 C 133.105 -46.6309 133.252 -46.582 133.252 -46.4844 C 133.301 -46.3379 133.203 -46.2402 133.008 -46.0938 L 107.52 -29.0527 C 103.223 -26.2207 103.027 -24.4141 104.639 -19.9219 L 115.283 8.74023 C 115.381 9.0332 115.332 9.08203 115.234 9.22852 C 115.137 9.32617 115.039 9.22852 114.795 9.13086 L 90.8203 -9.91211 C 86.9629 -12.8906 84.8633 -12.8906 81.0059 -9.91211 L 57.0312 9.13086 C 56.8359 9.22852 56.6895 9.32617 56.5918 9.22852 Z"/>
  </g>
  <g id="Bold-L" transform="matrix(1 0 0 1 2255.41 1556)">
   <path d="M 40.3809 29.6875 C 43.6523 32.1777 47.7051 31.4453 52.2461 28.125 L 84.5703 4.39453 L 116.895 28.125 C 121.436 31.4453 125.439 32.1777 128.76 29.6875 C 131.982 27.2461 132.666 23.1934 130.908 17.9688 L 118.115 -20.0195 L 150.732 -43.4082 C 155.225 -46.6309 157.178 -50.293 155.859 -54.1992 C 154.541 -58.0566 150.879 -59.9121 145.361 -59.8633 L 105.371 -59.5703 L 93.2129 -97.8027 C 91.5039 -103.125 88.623 -106.006 84.5703 -106.006 C 80.5176 -106.006 77.6367 -103.125 75.9277 -97.8027 L 63.7695 -59.5703 L 23.7793 -59.8633 C 18.2617 -59.9121 14.5996 -58.0566 13.2812 -54.1992 C 11.9141 -50.293 13.8672 -46.6309 18.4082 -43.4082 L 50.9766 -20.0195 L 38.2324 17.9688 C 36.4746 23.1934 37.1582 27.2461 40.3809 29.6875 Z M 53.2715 11.9629 C 53.1738 11.8652 53.1738 11.7676 53.2715 11.4258 L 64.6484 -20.2148 C 65.9668 -23.9258 65.7227 -25.7812 62.207 -28.125 L 34.375 -47.0215 C 34.1309 -47.168 33.9844 -47.3145 34.0332 -47.4609 C 34.082 -47.6074 34.2773 -47.6562 34.6191 -47.6562 L 68.2129 -46.6797 C 72.168 -46.582 73.8281 -47.5586 74.9023 -51.416 L 84.2285 -83.6914 C 84.3262 -84.0332 84.4238 -84.1797 84.5703 -84.1797 C 84.7168 -84.1797 84.8145 -84.0332 84.9121 -83.6914 L 94.2383 -51.416 C 95.3125 -47.5586 96.9727 -46.582 100.928 -46.6797 L 134.57 -47.6562 C 134.912 -47.6562 135.059 -47.6074 135.107 -47.4609 C 135.156 -47.3145 135.059 -47.2168 134.814 -47.0215 L 106.934 -28.0762 C 103.418 -25.7812 103.174 -23.9258 104.492 -20.2148 L 115.869 11.4258 C 115.967 11.7676 115.967 11.8652 115.869 11.9629 C 115.723 12.1094 115.576 12.0117 115.332 11.8652 L 88.7695 -8.83789 C 85.5957 -11.2793 83.5449 -11.2793 80.3711 -8.83789 L 53.8086 11.8652 C 53.5645 12.0117 53.418 12.1094 53.2715 11.9629 Z"/>
  </g>
  <g id="Semibold-L" transform="matrix(1 0 0 1 1959.65 1556)">
   <path d="M 39.9902 28.9062 C 42.9688 31.1523 46.582 30.4688 50.6836 27.4414 L 83.6426 3.27148 L 116.553 27.4414 C 120.703 30.4688 124.316 31.1523 127.246 28.9062 C 130.127 26.7578 130.762 23.1445 129.102 18.3105 L 116.162 -20.3613 L 149.365 -44.1895 C 153.467 -47.1191 155.176 -50.3906 154.053 -53.8574 C 152.881 -57.3242 149.609 -58.9844 144.482 -58.9355 L 103.809 -58.6914 L 91.4062 -97.6074 C 89.7949 -102.49 87.2559 -105.078 83.6426 -105.078 C 79.9805 -105.078 77.4414 -102.49 75.8789 -97.6074 L 63.4766 -58.6914 L 22.7539 -58.9355 C 17.627 -58.9844 14.4043 -57.3242 13.2324 -53.9062 C 12.0605 -50.3906 13.7695 -47.1191 17.9199 -44.1895 L 51.123 -20.3613 L 38.1348 18.3105 C 36.4746 23.1445 37.1094 26.7578 39.9902 28.9062 Z M 50.9766 13.8672 C 50.8789 13.7207 50.8789 13.6719 50.9766 13.2812 L 62.8906 -20.459 C 64.0137 -23.584 63.6719 -25.4395 60.6934 -27.4414 L 31.25 -47.6562 C 30.957 -47.8516 30.8105 -47.998 30.9082 -48.1445 C 30.957 -48.3398 31.1035 -48.3398 31.4941 -48.3398 L 67.2363 -47.5098 C 70.6055 -47.4609 72.2168 -48.4375 73.1445 -51.709 L 83.252 -85.9863 C 83.3496 -86.377 83.4473 -86.5234 83.6426 -86.5234 C 83.7891 -86.5234 83.8867 -86.377 83.9844 -85.9863 L 94.0918 -51.709 C 95.0684 -48.4375 96.6797 -47.4609 100.049 -47.5098 L 135.791 -48.3398 C 136.182 -48.3398 136.328 -48.3398 136.377 -48.1445 C 136.426 -47.998 136.328 -47.9004 136.035 -47.6562 L 106.543 -27.3926 C 103.564 -25.4395 103.271 -23.584 104.346 -20.459 L 116.26 13.2812 C 116.357 13.6719 116.406 13.7207 116.26 13.8672 C 116.162 14.0137 115.967 13.916 115.674 13.7207 L 87.3535 -8.05664 C 84.668 -10.1562 82.5684 -10.1562 79.8828 -8.05664 L 51.5625 13.7207 C 51.2695 13.916 51.123 14.0137 50.9766 13.8672 Z"/>
  </g>
  <g id="Medium-L" transform="matrix(1 0 0 1 1663.65 1556)">
   <path d="M 39.7461 28.3691 C 42.3828 30.3711 45.6543 29.7852 49.5605 26.9531 L 82.9102 2.44141 L 116.26 26.9531 C 120.166 29.7852 123.438 30.3711 126.123 28.3691 C 128.711 26.416 129.297 23.1445 127.783 18.6035 L 114.648 -20.6055 L 148.291 -44.7754 C 152.148 -47.5098 153.711 -50.4883 152.637 -53.6621 C 151.611 -56.7383 148.633 -58.3008 143.848 -58.252 L 102.588 -58.0078 L 89.9902 -97.4121 C 88.5254 -102.002 86.1816 -104.346 82.9102 -104.346 C 79.6387 -104.346 77.2949 -102.002 75.8301 -97.4121 L 63.2324 -58.0078 L 21.9727 -58.252 C 17.1875 -58.3008 14.209 -56.7383 13.1836 -53.6621 C 12.1094 -50.4883 13.6719 -47.5098 17.5293 -44.7754 L 51.1719 -20.6055 L 38.0859 18.6035 C 36.5234 23.1445 37.1094 26.416 39.7461 28.3691 Z M 49.2676 15.332 C 49.1211 15.1855 49.1699 15.0879 49.2676 14.6973 L 61.5234 -20.6055 C 62.5 -23.3398 62.1582 -25.1953 59.5703 -26.9043 L 28.8574 -48.1445 C 28.5645 -48.3887 28.418 -48.4863 28.4668 -48.6816 C 28.5645 -48.877 28.7109 -48.877 29.1016 -48.877 L 66.5039 -48.1445 C 69.3848 -48.0957 70.9473 -49.0723 71.8262 -51.9531 L 82.5195 -87.7441 C 82.6172 -88.0859 82.7637 -88.2812 82.9102 -88.2812 C 83.1055 -88.2812 83.2031 -88.0859 83.3008 -87.7441 L 93.9941 -51.9531 C 94.873 -49.0723 96.4355 -48.0957 99.3652 -48.1445 L 136.719 -48.877 C 137.109 -48.877 137.305 -48.877 137.354 -48.6816 C 137.402 -48.4863 137.305 -48.3887 136.963 -48.1445 L 106.25 -26.9043 C 103.711 -25.1953 103.32 -23.3398 104.297 -20.6055 L 116.553 14.6973 C 116.699 15.0879 116.699 15.1855 116.602 15.332 C 116.455 15.4785 116.26 15.3809 115.967 15.1855 L 86.2793 -7.51953 C 83.9355 -9.27734 81.8848 -9.27734 79.541 -7.51953 L 49.8535 15.1855 C 49.5605 15.3809 49.3652 15.4785 49.2676 15.332 Z"/>
  </g>
  <g id="Regular-L" transform="matrix(1 0 0 1 1367.86 1556)">
   <path d="M 39.3555 27.6367 C 41.6992 29.3457 44.5312 28.8086 47.998 26.2695 L 81.9824 1.36719 L 115.967 26.2695 C 119.434 28.8086 122.314 29.3457 124.609 27.6367 C 126.855 25.9277 127.393 23.0957 126.025 18.9941 L 112.695 -20.9473 L 146.924 -45.5566 C 150.391 -48.0469 151.758 -50.6348 150.83 -53.3691 C 149.951 -56.0059 147.412 -57.4219 143.018 -57.373 L 101.025 -57.1289 L 88.1836 -97.2168 C 86.8652 -101.367 84.8145 -103.418 81.9824 -103.418 C 79.1504 -103.418 77.0996 -101.367 75.7812 -97.2168 L 62.9395 -57.1289 L 20.9473 -57.373 C 16.6016 -57.4219 14.0137 -56.0059 13.1348 -53.3691 C 12.207 -50.6348 13.5742 -48.0469 17.041 -45.5566 L 51.2695 -20.9473 L 37.9883 18.9941 C 36.5723 23.0957 37.1094 25.9277 39.3555 27.6367 Z M 46.9727 17.1875 C 46.8262 17.041 46.875 16.9434 47.0215 16.5527 L 59.8145 -20.8008 C 60.5957 -22.998 60.1074 -24.8535 58.1055 -26.2207 L 25.7324 -48.8281 C 25.4395 -49.0234 25.293 -49.1699 25.3418 -49.3652 C 25.4395 -49.5605 25.6348 -49.5605 26.0254 -49.5605 L 65.5273 -49.0234 C 67.8711 -48.9746 69.3359 -49.9023 70.0684 -52.2461 L 81.5918 -89.9902 C 81.6895 -90.3809 81.7871 -90.5762 81.9824 -90.5762 C 82.1777 -90.5762 82.2754 -90.3809 82.4219 -89.9902 L 93.8965 -52.2461 C 94.6289 -49.9023 96.1426 -48.9746 98.4375 -49.0234 L 137.939 -49.5605 C 138.379 -49.5605 138.525 -49.5605 138.623 -49.3652 C 138.672 -49.1699 138.525 -49.0234 138.232 -48.8281 L 105.859 -26.2207 C 103.857 -24.8535 103.418 -22.998 104.15 -20.8008 L 116.992 16.5527 C 117.09 16.9434 117.139 17.041 116.992 17.1875 C 116.846 17.3828 116.65 17.2363 116.309 17.041 L 84.8633 -6.73828 C 83.0078 -8.20312 80.957 -8.20312 79.1016 -6.73828 L 47.6562 17.041 C 47.3145 17.2363 47.1191 17.3828 46.9727 17.1875 Z"/>
  </g>
  <g id="Light-L" transform="matrix(1 0 0 1 1072.27 1556)">
   <path d="M 38.9648 26.709 C 40.8203 28.125 43.1152 27.7832 46.0449 25.6348 L 80.8594 0.146484 L 115.674 25.6348 C 118.604 27.7832 120.898 28.125 122.754 26.709 C 124.609 25.3418 125.098 23.0957 123.926 19.5801 L 110.4 -21.2891 L 145.41 -46.5332 C 148.34 -48.6328 149.316 -50.7812 148.633 -52.9785 C 147.9 -55.127 145.898 -56.2988 142.188 -56.2988 L 99.1211 -56.1035 L 85.9863 -97.168 C 84.8145 -100.635 83.1543 -102.246 80.8594 -102.246 C 78.5645 -102.246 76.9043 -100.635 75.7324 -97.168 L 62.5488 -56.1035 L 19.5312 -56.2988 C 15.8203 -56.2988 13.8184 -55.127 13.0859 -52.9785 C 12.4023 -50.7812 13.3789 -48.6328 16.3086 -46.5332 L 51.3184 -21.2891 L 37.793 19.5801 C 36.6211 23.0957 37.1094 25.3418 38.9648 26.709 Z M 44.5312 19.043 C 44.3359 18.8965 44.4336 18.75 44.5801 18.2617 L 57.7637 -20.8496 C 58.4473 -22.7539 58.0078 -24.3652 56.25 -25.5859 L 22.5586 -49.4141 C 22.168 -49.6582 21.9727 -49.8535 22.0703 -50.0488 C 22.168 -50.2441 22.3633 -50.2441 22.8516 -50.2441 L 64.209 -49.8535 C 66.2109 -49.8047 67.5293 -50.6836 68.1641 -52.6855 L 80.3711 -92.0898 C 80.5176 -92.5781 80.6641 -92.8223 80.8594 -92.8223 C 81.0547 -92.8223 81.2012 -92.5781 81.3477 -92.0898 L 93.5547 -52.6855 C 94.1895 -50.6836 95.5078 -49.8047 97.5098 -49.8535 L 138.867 -50.2441 C 139.355 -50.2441 139.551 -50.2441 139.648 -50.0488 C 139.746 -49.8535 139.551 -49.6582 139.16 -49.4141 L 105.469 -25.5859 C 103.711 -24.3652 103.271 -22.7539 103.955 -20.8496 L 117.139 18.2617 C 117.285 18.75 117.383 18.8965 117.188 19.043 C 116.992 19.2383 116.797 19.0918 116.406 18.8477 L 83.3496 -5.85938 C 81.7383 -7.08008 79.9805 -7.08008 78.3691 -5.85938 L 45.3125 18.8477 C 44.9219 19.0918 44.7266 19.2383 44.5312 19.043 Z"/>
  </g>
  <g id="Thin-L" transform="matrix(1 0 0 1 777.052 1556)">
   <path d="M 38.4277 25.5371 C 39.6973 26.4648 41.2598 26.3672 43.457 24.8047 L 79.3457 -1.46484 L 115.283 24.8047 C 117.48 26.3672 119.043 26.4648 120.312 25.5371 C 121.582 24.6094 122.07 23.0957 121.191 20.4102 L 107.373 -21.7773 L 143.408 -47.8516 C 145.654 -49.4629 146.143 -50.9766 145.703 -52.4414 C 145.215 -53.9062 143.896 -54.8828 141.113 -54.8828 L 96.6797 -54.7852 L 83.0566 -97.0703 C 82.1777 -99.707 80.9082 -100.684 79.3457 -100.684 C 77.7832 -100.684 76.5625 -99.707 75.6836 -97.0703 L 62.0605 -54.7852 L 17.627 -54.8828 C 14.8438 -54.8828 13.5254 -53.9062 13.0371 -52.4414 C 12.5977 -50.9766 13.0859 -49.4629 15.2832 -47.8516 L 51.3672 -21.7773 L 37.5488 20.4102 C 36.6699 23.0957 37.1582 24.6094 38.4277 25.5371 Z M 41.3086 21.4844 C 41.0645 21.3379 41.2109 21.1426 41.3574 20.5566 L 55.0781 -20.9473 C 55.6152 -22.4121 55.1758 -23.7793 53.8086 -24.707 L 18.3105 -50.1953 C 17.8711 -50.4883 17.627 -50.7324 17.7246 -50.9766 C 17.8223 -51.1719 18.1152 -51.1719 18.6523 -51.1719 L 62.4512 -50.9766 C 64.0137 -50.9766 65.0879 -51.709 65.5762 -53.2715 L 78.8086 -94.9219 C 78.9551 -95.459 79.1504 -95.752 79.3457 -95.752 C 79.5898 -95.752 79.7363 -95.459 79.9316 -94.9219 L 93.1641 -53.2715 C 93.6523 -51.709 94.7266 -50.9766 96.2891 -50.9766 L 140.088 -51.1719 C 140.625 -51.1719 140.918 -51.1719 141.016 -50.9766 C 141.113 -50.7324 140.869 -50.4883 140.381 -50.1953 L 104.932 -24.707 C 103.564 -23.7793 103.125 -22.4121 103.662 -20.9473 L 117.334 20.5566 C 117.529 21.1426 117.676 21.3379 117.432 21.4844 C 117.188 21.6797 116.943 21.5332 116.504 21.1914 L 81.3477 -4.6875 C 80.0781 -5.66406 78.6621 -5.66406 77.3926 -4.6875 L 42.2363 21.1914 C 41.748 21.5332 41.5527 21.6797 41.3086 21.4844 Z"/>
  </g>
  <g id="Ultralight-L" transform="matrix(1 0 0 1 481.098 1556)">
   <path d="M 38.1348 24.9023 C 39.1113 25.5859 40.332 25.6836 42.1387 24.3652 L 78.6133 -2.29492 L 115.088 24.3652 C 116.895 25.6836 118.066 25.5859 119.043 24.9023 C 120.068 24.2188 120.508 23.0957 119.775 20.8008 L 105.811 -22.0215 L 142.432 -48.5352 C 144.238 -49.8535 144.531 -51.0742 144.189 -52.1973 C 143.848 -53.3203 142.92 -54.1504 140.527 -54.1504 L 95.4102 -54.1016 L 81.543 -97.0215 C 80.8105 -99.2188 79.7852 -99.8535 78.6133 -99.8535 C 77.4414 -99.8535 76.416 -99.2188 75.6836 -97.0215 L 61.8164 -54.1016 L 16.6504 -54.1504 C 14.3066 -54.1504 13.3789 -53.3203 13.0371 -52.1973 C 12.6953 -51.0742 12.9395 -49.8535 14.7949 -48.5352 L 51.416 -22.0215 L 37.4023 20.8008 C 36.6699 23.0957 37.1582 24.2188 38.1348 24.9023 Z M 39.6484 22.7539 C 39.4043 22.6074 39.5508 22.3145 39.7461 21.7773 L 53.7109 -20.9961 C 54.1504 -22.2168 53.7598 -23.4375 52.5391 -24.2676 L 16.1621 -50.5859 C 15.6738 -50.9277 15.4297 -51.1719 15.4785 -51.416 C 15.5762 -51.6602 15.918 -51.6602 16.5039 -51.6602 L 61.5723 -51.5625 C 62.8906 -51.5625 63.8184 -52.2461 64.2578 -53.6133 L 78.0273 -96.3379 C 78.1738 -96.9238 78.3691 -97.2656 78.6133 -97.2656 C 78.8574 -97.2656 79.0039 -96.9238 79.1992 -96.3379 L 92.9199 -53.6133 C 93.4082 -52.2461 94.2871 -51.5625 95.6543 -51.5625 L 140.723 -51.6602 C 141.309 -51.6602 141.65 -51.6602 141.699 -51.416 C 141.797 -51.1719 141.553 -50.9277 141.064 -50.5859 L 104.639 -24.2676 C 103.467 -23.4375 103.076 -22.2168 103.516 -20.9961 L 117.48 21.7773 C 117.627 22.3145 117.822 22.6074 117.578 22.7539 C 117.285 22.9004 117.041 22.7539 116.553 22.4121 L 80.3223 -4.10156 C 79.1992 -4.93164 78.0273 -4.93164 76.9043 -4.10156 L 40.6738 22.4121 C 40.1367 22.7539 39.8926 22.9004 39.6484 22.7539 Z"/>
  </g>
  <g id="Black-M" transform="matrix(1 0 0 1 2864.82 1126)">
   <path d="M 32.5195 17.4805 C 36.2305 20.3125 40.7227 19.5312 45.3613 16.1133 L 68.6035 -0.927734 L 91.6992 16.1133 C 96.4355 19.5312 100.928 20.3125 104.639 17.4805 C 108.301 14.6973 109.033 10.1074 107.227 4.83398 L 98.0469 -22.3145 L 121.436 -39.0625 C 126.074 -42.3828 128.174 -46.4844 126.66 -50.8789 C 125.195 -55.2734 121.094 -57.3242 115.43 -57.2754 L 86.8164 -57.0312 L 78.125 -84.4727 C 76.3672 -89.8926 73.1934 -93.1152 68.6035 -93.1152 C 64.0137 -93.1152 60.791 -89.8926 59.0332 -84.4727 L 50.3418 -57.0312 L 21.6309 -57.2754 C 16.0645 -57.3242 11.9629 -55.2734 10.498 -50.9277 C 8.88672 -46.4844 11.084 -42.3828 15.7227 -39.0625 L 39.1113 -22.3145 L 29.9316 4.83398 C 28.125 10.1074 28.8574 14.6973 32.5195 17.4805 Z M 48.877 -5.0293 C 48.8281 -5.07812 48.7793 -5.17578 48.8281 -5.37109 L 55.8594 -22.8516 C 57.5684 -27.6367 57.7148 -29.0039 52.9785 -32.0312 L 37.0605 -42.1875 C 36.9629 -42.2363 36.9141 -42.3828 36.9141 -42.4316 C 36.9141 -42.4805 37.0117 -42.5293 37.207 -42.5293 L 56.0059 -41.3086 C 61.084 -41.1621 62.5488 -41.8945 63.8184 -46.8262 L 68.4082 -65.0879 C 68.457 -65.2344 68.5059 -65.332 68.6035 -65.332 C 68.6523 -65.332 68.7012 -65.2344 68.75 -65.0879 L 73.3398 -46.8262 C 74.6094 -41.8945 76.0742 -41.1621 81.25 -41.3086 L 100 -42.5293 C 100.195 -42.5293 100.342 -42.4805 100.342 -42.4316 C 100.342 -42.3828 100.244 -42.2852 100.146 -42.1875 L 84.1797 -31.9824 C 79.4922 -28.9551 79.5898 -27.6367 81.2988 -22.8516 L 88.3301 -5.37109 C 88.3789 -5.17578 88.3301 -5.07812 88.2812 -5.0293 C 88.1836 -4.98047 88.1348 -5.0293 88.0371 -5.07812 L 73.4863 -17.1875 C 69.3359 -20.4102 67.8223 -20.4102 63.6719 -17.1875 L 49.1211 -5.07812 C 49.0234 -5.0293 48.9746 -4.98047 48.877 -5.0293 Z"/>
  </g>
  <g id="Heavy-M" transform="matrix(1 0 0 1 2569.16 1126)">
   <path d="M 32.0801 16.6504 C 35.4004 19.1895 39.4531 18.457 43.7012 15.332 L 67.5293 -2.19727 L 91.3086 15.332 C 95.6055 18.457 99.6582 19.1895 102.979 16.6504 C 106.25 14.1602 106.934 10.1074 105.273 5.22461 L 95.8008 -22.7051 L 119.824 -39.8926 C 124.072 -42.9688 126.025 -46.6309 124.658 -50.5371 C 123.34 -54.4434 119.678 -56.3477 114.453 -56.25 L 85.0586 -56.0059 L 76.123 -84.1797 C 74.5117 -89.209 71.6309 -92.0898 67.5293 -92.0898 C 63.4277 -92.0898 60.5957 -89.209 58.9844 -84.1797 L 50 -56.0059 L 20.5566 -56.25 C 15.4297 -56.3477 11.7676 -54.4434 10.4004 -50.5859 C 9.0332 -46.6309 10.9863 -42.9688 15.2344 -39.8926 L 39.2578 -22.7051 L 29.834 5.22461 C 28.1738 10.1074 28.8086 14.1602 32.0801 16.6504 Z M 46.2891 -2.83203 C 46.1914 -2.88086 46.1426 -2.97852 46.2402 -3.17383 L 53.9062 -23.0957 C 55.3711 -27.2461 55.3711 -28.6133 51.3672 -31.2012 L 33.4473 -42.9199 C 33.3008 -43.0176 33.252 -43.1152 33.252 -43.2129 C 33.3008 -43.3105 33.3984 -43.3594 33.5938 -43.3594 L 54.9316 -42.2363 C 59.3262 -42.1387 60.6934 -42.9199 61.8164 -47.168 L 67.334 -67.7734 C 67.3828 -67.9688 67.4805 -68.0176 67.5293 -68.0176 C 67.627 -68.0176 67.6758 -67.9688 67.7734 -67.7734 L 73.2422 -47.168 C 74.3652 -42.9199 75.7812 -42.1387 80.1758 -42.2363 L 101.514 -43.3594 C 101.709 -43.3594 101.855 -43.3105 101.855 -43.2129 C 101.855 -43.1152 101.807 -43.0664 101.66 -42.9199 L 83.7402 -31.1523 C 79.7363 -28.5645 79.7363 -27.2461 81.2012 -23.0957 L 88.8672 -3.17383 C 88.916 -2.97852 88.8672 -2.88086 88.8184 -2.83203 C 88.7207 -2.73438 88.6719 -2.83203 88.5254 -2.88086 L 71.875 -16.3574 C 68.3105 -19.0918 66.748 -19.0918 63.1836 -16.3574 L 46.582 -2.88086 C 46.4355 -2.83203 46.3379 -2.73438 46.2891 -2.83203 Z"/>
  </g>
  <g id="Bold-M" transform="matrix(1 0 0 1 2273.6 1126)">
   <path d="M 31.6406 15.7227 C 34.5215 17.9199 38.0371 17.2852 41.8457 14.4531 L 66.3574 -3.56445 L 90.8691 14.4531 C 94.7266 17.2852 98.2422 17.9199 101.123 15.7227 C 103.955 13.623 104.541 10.0586 103.027 5.66406 L 93.3105 -23.1445 L 118.066 -40.8691 C 121.875 -43.6035 123.584 -46.7773 122.412 -50.1953 C 121.289 -53.5645 118.066 -55.1758 113.379 -55.127 L 83.1055 -54.8828 L 73.877 -83.8867 C 72.4121 -88.4277 69.9219 -90.918 66.3574 -90.918 C 62.8418 -90.918 60.3516 -88.4277 58.8867 -83.8867 L 49.6582 -54.8828 L 19.3359 -55.127 C 14.6973 -55.1758 11.4746 -53.5645 10.3516 -50.1953 C 9.13086 -46.7773 10.8887 -43.6035 14.6973 -40.8691 L 39.4043 -23.1445 L 29.7363 5.66406 C 28.2227 10.0586 28.8086 13.623 31.6406 15.7227 Z M 43.3594 -0.341797 C 43.2617 -0.439453 43.2617 -0.488281 43.3105 -0.732422 L 51.709 -23.4375 C 52.8809 -26.7578 52.7832 -28.2227 49.5117 -30.3223 L 29.4434 -43.7988 C 29.248 -43.8965 29.1992 -43.9941 29.1992 -44.0918 C 29.248 -44.1895 29.3457 -44.2383 29.5898 -44.2383 L 53.7598 -43.3594 C 57.3242 -43.2617 58.6914 -44.043 59.6191 -47.5098 L 66.1621 -70.752 C 66.2109 -70.9961 66.2598 -71.0938 66.3574 -71.0938 C 66.4551 -71.0938 66.5527 -70.9961 66.6016 -70.752 L 73.1445 -47.5098 C 74.0723 -44.043 75.4395 -43.2617 79.0527 -43.3594 L 103.223 -44.2383 C 103.418 -44.2383 103.564 -44.1895 103.564 -44.0918 C 103.613 -43.9941 103.516 -43.9453 103.369 -43.7988 L 83.252 -30.2734 C 80.0293 -28.1738 79.8828 -26.7578 81.0547 -23.4375 L 89.4531 -0.732422 C 89.502 -0.488281 89.502 -0.439453 89.4043 -0.341797 C 89.3555 -0.244141 89.2578 -0.292969 89.0625 -0.439453 L 70.0684 -15.4297 C 67.1875 -17.6758 65.5762 -17.6758 62.6953 -15.4297 L 43.7012 -0.439453 C 43.5059 -0.292969 43.4082 -0.244141 43.3594 -0.341797 Z"/>
  </g>
  <g id="Semibold-M" transform="matrix(1 0 0 1 1977.69 1126)">
   <path d="M 31.2988 15.0879 C 33.8867 17.041 37.0117 16.4551 40.5762 13.8672 L 65.5762 -4.49219 L 90.5762 13.8672 C 94.1406 16.4551 97.2656 17.041 99.8535 15.0879 C 102.393 13.1836 102.881 10.0098 101.514 5.95703 L 91.6016 -23.4375 L 116.846 -41.5039 C 120.361 -44.043 121.875 -46.875 120.85 -49.9512 C 119.824 -52.9297 116.992 -54.3945 112.646 -54.3457 L 81.7383 -54.1504 L 72.3145 -83.6914 C 70.9961 -87.8418 68.75 -90.1367 65.5762 -90.1367 C 62.4023 -90.1367 60.2051 -87.8418 58.8379 -83.6914 L 49.4141 -54.1504 L 18.5059 -54.3457 C 14.1602 -54.3945 11.3281 -52.9297 10.3027 -49.9512 C 9.22852 -46.875 10.791 -44.043 14.3066 -41.5039 L 39.5508 -23.4375 L 29.6387 5.95703 C 28.2715 10.0098 28.7598 13.1836 31.2988 15.0879 Z M 41.3086 1.36719 C 41.2598 1.26953 41.2598 1.2207 41.3086 0.976562 L 50.1465 -23.6328 C 51.1719 -26.4648 50.9766 -27.9297 48.291 -29.6875 L 26.6602 -44.3848 C 26.4648 -44.5312 26.3672 -44.6289 26.416 -44.7266 C 26.4648 -44.8242 26.5625 -44.873 26.8066 -44.873 L 52.9297 -44.0918 C 55.9082 -44.043 57.2754 -44.8242 58.1055 -47.7539 L 65.332 -72.8516 C 65.3809 -73.0957 65.4785 -73.1934 65.5762 -73.1934 C 65.6738 -73.1934 65.7715 -73.0957 65.8203 -72.8516 L 73.0957 -47.7539 C 73.877 -44.8242 75.2441 -44.043 78.2227 -44.0918 L 104.346 -44.873 C 104.59 -44.873 104.736 -44.8242 104.785 -44.7266 C 104.785 -44.6289 104.736 -44.5312 104.541 -44.3848 L 82.8613 -29.6875 C 80.2246 -27.9297 79.9805 -26.4648 81.0059 -23.6328 L 89.8438 0.976562 C 89.8926 1.2207 89.8926 1.26953 89.8438 1.36719 C 89.7461 1.46484 89.6484 1.41602 89.4531 1.26953 L 68.7988 -14.7949 C 66.4062 -16.6504 64.7461 -16.6504 62.3535 -14.7949 L 41.6992 1.26953 C 41.5039 1.41602 41.4062 1.46484 41.3086 1.36719 Z"/>
  </g>
  <g id="Medium-M" transform="matrix(1 0 0 1 1681.59 1126)">
   <path d="M 31.0547 14.5996 C 33.3984 16.4062 36.2793 15.8203 39.5996 13.4277 L 64.9902 -5.22461 L 90.332 13.4277 C 93.6523 15.8203 96.5332 16.4062 98.877 14.5996 C 101.172 12.8906 101.66 10.0098 100.342 6.15234 L 90.332 -23.6328 L 115.918 -41.9922 C 119.238 -44.3848 120.605 -46.9727 119.678 -49.7559 C 118.75 -52.4902 116.162 -53.8086 112.061 -53.7598 L 80.7129 -53.5645 L 71.1426 -83.5449 C 69.873 -87.4512 67.8711 -89.5508 64.9902 -89.5508 C 62.0605 -89.5508 60.0586 -87.4512 58.7891 -83.5449 L 49.2676 -53.5645 L 17.8711 -53.7598 C 13.7695 -53.8086 11.1816 -52.4902 10.2539 -49.7559 C 9.32617 -46.9727 10.6934 -44.3848 14.0137 -41.9922 L 39.5996 -23.6328 L 29.5898 6.15234 C 28.2715 10.0098 28.7598 12.8906 31.0547 14.5996 Z M 39.7949 2.68555 C 39.6973 2.53906 39.6973 2.49023 39.7949 2.24609 L 49.0234 -23.8281 C 49.8535 -26.2207 49.6094 -27.7344 47.3145 -29.248 L 24.5117 -44.8242 C 24.3164 -44.9707 24.2188 -45.0684 24.2676 -45.166 C 24.3652 -45.3125 24.4629 -45.3125 24.707 -45.3125 L 52.3438 -44.6777 C 54.8828 -44.6289 56.2012 -45.4102 56.9336 -47.9492 L 64.6973 -74.4141 C 64.7949 -74.6582 64.8438 -74.7559 64.9902 -74.7559 C 65.0879 -74.7559 65.1855 -74.6582 65.2344 -74.4141 L 72.998 -47.9492 C 73.7305 -45.4102 75.0488 -44.6289 77.6367 -44.6777 L 105.225 -45.3125 C 105.518 -45.3125 105.615 -45.3125 105.664 -45.166 C 105.713 -45.0684 105.615 -44.9707 105.42 -44.8242 L 82.6172 -29.1992 C 80.3711 -27.7344 80.0781 -26.2207 80.957 -23.8281 L 90.1367 2.24609 C 90.2344 2.49023 90.2344 2.53906 90.1367 2.68555 C 90.0879 2.7832 89.9414 2.68555 89.7461 2.58789 L 67.8711 -14.3066 C 65.8203 -15.8691 64.1113 -15.8691 62.0605 -14.3066 L 40.1855 2.58789 C 39.9902 2.68555 39.8926 2.7832 39.7949 2.68555 Z"/>
  </g>
  <g id="Regular-M" transform="matrix(1 0 0 1 1385.66 1126)">
   <path d="M 30.7617 14.0137 C 32.7637 15.5273 35.3027 14.9902 38.3301 12.793 L 64.1602 -6.15234 L 90.0391 12.793 C 93.0664 14.9902 95.5566 15.5273 97.6074 14.0137 C 99.6094 12.5 100.049 10.0098 98.8281 6.44531 L 88.623 -23.9258 L 114.697 -42.6758 C 117.725 -44.8242 118.945 -47.0703 118.164 -49.5117 C 117.383 -51.8555 115.088 -53.0273 111.328 -52.9785 L 79.3457 -52.7832 L 69.6289 -83.3008 C 68.457 -86.9141 66.6992 -88.7207 64.1602 -88.7207 C 61.6699 -88.7207 59.9121 -86.9141 58.7402 -83.3008 L 49.0234 -52.7832 L 17.041 -52.9785 C 13.2812 -53.0273 10.9863 -51.8555 10.2051 -49.5117 C 9.375 -47.0703 10.6445 -44.8242 13.6719 -42.6758 L 39.7461 -23.9258 L 29.541 6.44531 C 28.3203 10.0098 28.7598 12.5 30.7617 14.0137 Z M 37.793 4.3457 C 37.6953 4.24805 37.7441 4.19922 37.793 3.90625 L 47.5098 -24.0234 C 48.1445 -25.9277 47.8027 -27.4414 46.0938 -28.6133 L 21.7773 -45.4102 C 21.5332 -45.5566 21.4844 -45.6543 21.5332 -45.8008 C 21.582 -45.9473 21.6797 -45.9473 21.9727 -45.9473 L 51.5137 -45.4102 C 53.5156 -45.3613 54.7852 -46.1914 55.4199 -48.1934 L 63.8672 -76.4648 C 63.9648 -76.7578 64.0625 -76.8555 64.1602 -76.8555 C 64.3066 -76.8555 64.4043 -76.7578 64.4531 -76.4648 L 72.9492 -48.1934 C 73.5352 -46.1914 74.8535 -45.3613 76.8555 -45.4102 L 106.396 -45.9473 C 106.689 -45.9473 106.787 -45.9473 106.836 -45.8008 C 106.885 -45.6543 106.787 -45.5566 106.592 -45.4102 L 82.2754 -28.6133 C 80.5664 -27.4414 80.1758 -25.9277 80.8594 -24.0234 L 90.5762 3.90625 C 90.625 4.19922 90.6738 4.24805 90.5762 4.3457 C 90.4785 4.49219 90.332 4.39453 90.1367 4.24805 L 66.6504 -13.6719 C 65.0879 -14.8926 63.2812 -14.8926 61.7188 -13.6719 L 38.2324 4.24805 C 38.0371 4.39453 37.8906 4.49219 37.793 4.3457 Z"/>
  </g>
  <g id="Light-M" transform="matrix(1 0 0 1 1089.97 1126)">
   <path d="M 30.3711 13.1836 C 32.0312 14.4043 34.0332 14.0625 36.5723 12.2559 L 63.1836 -7.27539 L 89.7461 12.2559 C 92.2852 14.0625 94.3359 14.4043 95.9473 13.1836 C 97.5586 11.9629 97.998 10.0098 96.9727 6.98242 L 86.5723 -24.2676 L 113.379 -43.5547 C 115.869 -45.3613 116.797 -47.2168 116.162 -49.1699 C 115.527 -51.0254 113.721 -52.0508 110.596 -52.002 L 77.6855 -51.8555 L 67.627 -83.252 C 66.6504 -86.2305 65.1855 -87.6953 63.1836 -87.6953 C 61.1328 -87.6953 59.668 -86.2305 58.6914 -83.252 L 48.6816 -51.8555 L 15.7715 -52.002 C 12.5977 -52.0508 10.791 -51.0254 10.1562 -49.1699 C 9.52148 -47.2168 10.4492 -45.3613 12.9883 -43.5547 L 39.7461 -24.2676 L 29.3457 6.98242 C 28.3691 10.0098 28.7598 11.9629 30.3711 13.1836 Z M 35.5957 6.00586 C 35.498 5.9082 35.5469 5.81055 35.6445 5.46875 L 45.6543 -24.0723 C 46.2402 -25.6836 45.8984 -27.0508 44.4336 -28.0273 L 18.8965 -45.9473 C 18.6523 -46.1426 18.5059 -46.2402 18.5547 -46.3867 C 18.6523 -46.582 18.7988 -46.582 19.1406 -46.582 L 50.3418 -46.1914 C 52.0508 -46.1426 53.125 -46.875 53.6621 -48.584 L 62.8418 -78.3691 C 62.9395 -78.7109 63.0371 -78.8574 63.1836 -78.8574 C 63.3301 -78.8574 63.4277 -78.7109 63.5254 -78.3691 L 72.6562 -48.584 C 73.1934 -46.875 74.3164 -46.1426 75.9766 -46.1914 L 107.227 -46.582 C 107.568 -46.582 107.715 -46.582 107.764 -46.3867 C 107.812 -46.2402 107.715 -46.1426 107.422 -45.9473 L 81.9336 -28.0273 C 80.4199 -27.0508 80.0781 -25.6836 80.6641 -24.0723 L 90.7227 5.46875 C 90.7715 5.81055 90.8691 5.9082 90.7227 6.00586 C 90.625 6.15234 90.4785 6.05469 90.1855 5.85938 L 65.2832 -12.8906 C 63.916 -13.916 62.4023 -13.916 61.0352 -12.8906 L 36.1816 5.85938 C 35.8887 6.05469 35.7422 6.15234 35.5957 6.00586 Z"/>
  </g>
  <g id="Thin-M" transform="matrix(1 0 0 1 794.581 1126)">
   <path d="M 29.8828 12.1094 C 31.0059 12.9395 32.373 12.8418 34.2285 11.4746 L 61.8164 -8.69141 L 89.4043 11.4746 C 91.2598 12.8418 92.627 12.9395 93.75 12.1094 C 94.873 11.2793 95.2637 10.0098 94.5312 7.71484 L 83.8379 -24.707 L 111.572 -44.7266 C 113.477 -46.0938 113.965 -47.4121 113.525 -48.6816 C 113.135 -50 111.963 -50.7812 109.57 -50.7324 L 75.4395 -50.6836 L 64.9902 -83.1543 C 64.2578 -85.4004 63.1836 -86.2793 61.8164 -86.2793 C 60.4492 -86.2793 59.4238 -85.4004 58.6914 -83.1543 L 48.1934 -50.6836 L 14.0625 -50.7324 C 11.7188 -50.7812 10.5469 -50 10.1074 -48.6816 C 9.7168 -47.4121 10.2051 -46.0938 12.0605 -44.7266 L 39.7949 -24.707 L 29.1504 7.71484 C 28.418 10.0098 28.7598 11.2793 29.8828 12.1094 Z M 32.7148 8.20312 C 32.5684 8.10547 32.666 7.91016 32.7637 7.51953 L 43.2617 -24.1211 C 43.7012 -25.3906 43.3594 -26.4648 42.2363 -27.2461 L 15.1367 -46.6309 C 14.7949 -46.875 14.5996 -47.0215 14.6973 -47.2168 C 14.7461 -47.4121 14.9414 -47.4121 15.3809 -47.4121 L 48.7793 -47.168 C 50.0977 -47.168 50.9766 -47.8027 51.3672 -49.1211 L 61.4258 -80.8594 C 61.5234 -81.2988 61.6699 -81.4941 61.8164 -81.4941 C 62.0117 -81.4941 62.1094 -81.2988 62.2559 -80.8594 L 72.2656 -49.1211 C 72.7051 -47.8027 73.584 -47.168 74.9023 -47.168 L 108.301 -47.4121 C 108.691 -47.4121 108.936 -47.4121 108.984 -47.2168 C 109.033 -47.0215 108.887 -46.875 108.545 -46.6309 L 81.4453 -27.2461 C 80.2734 -26.4648 79.9805 -25.3906 80.4199 -24.1211 L 90.918 7.51953 C 91.0156 7.91016 91.1133 8.10547 90.9668 8.20312 C 90.7715 8.34961 90.625 8.20312 90.2832 8.00781 L 63.4766 -11.8164 C 62.4023 -12.6465 61.2305 -12.6465 60.2051 -11.8164 L 33.3984 8.00781 C 33.0566 8.20312 32.8613 8.34961 32.7148 8.20312 Z"/>
  </g>
  <g id="Ultralight-M" transform="matrix(1 0 0 1 498.554 1126)">
   <path d="M 29.6387 11.5723 C 30.5176 12.1582 31.543 12.1582 33.0566 11.084 L 61.1328 -9.47266 L 89.2578 11.084 C 90.7715 12.1582 91.7969 12.1582 92.627 11.5723 C 93.5059 10.9375 93.8477 10.0098 93.2617 8.10547 L 82.4707 -24.9512 L 110.693 -45.3613 C 112.207 -46.4355 112.5 -47.4609 112.207 -48.4375 C 111.914 -49.4141 111.035 -50.0977 109.082 -50.0977 L 74.3164 -50.0488 L 63.6719 -83.1055 C 63.0371 -84.9609 62.1582 -85.5469 61.1328 -85.5469 C 60.1074 -85.5469 59.2773 -84.9609 58.6426 -83.1055 L 47.9492 -50.0488 L 13.1836 -50.0977 C 11.2305 -50.0977 10.4004 -49.4141 10.1074 -48.4375 C 9.81445 -47.4609 10.1074 -46.4355 11.6211 -45.3613 L 39.8438 -24.9512 L 29.0527 8.10547 C 28.418 10.0098 28.8086 10.9375 29.6387 11.5723 Z M 31.25 9.32617 C 31.0547 9.22852 31.1523 9.0332 31.2988 8.59375 L 42.041 -24.1699 C 42.3828 -25.1953 42.0898 -26.2207 41.1133 -26.8555 L 13.1836 -47.0215 C 12.793 -47.2656 12.5977 -47.4609 12.6953 -47.6562 C 12.7441 -47.8027 12.9883 -47.8027 13.4277 -47.8027 L 47.998 -47.7051 C 49.0723 -47.7051 49.8535 -48.2422 50.1953 -49.3652 L 60.6934 -82.1777 C 60.8398 -82.6172 60.9375 -82.8613 61.1328 -82.8613 C 61.3281 -82.8613 61.4746 -82.6172 61.5723 -82.1777 L 72.0703 -49.3652 C 72.4609 -48.2422 73.1934 -47.7051 74.3164 -47.7051 L 108.887 -47.8027 C 109.326 -47.8027 109.57 -47.8027 109.619 -47.6562 C 109.668 -47.4609 109.473 -47.2656 109.131 -47.0215 L 81.2012 -26.8555 C 80.2246 -26.2207 79.8828 -25.1953 80.2734 -24.1699 L 91.0156 8.59375 C 91.1133 9.0332 91.2598 9.22852 91.0645 9.32617 C 90.8691 9.47266 90.6738 9.32617 90.332 9.08203 L 62.5488 -11.2793 C 61.6211 -11.9629 60.6445 -11.9629 59.7168 -11.2793 L 31.9824 9.08203 C 31.5918 9.32617 31.3965 9.47266 31.25 9.32617 Z"/>
  </g>
  <g id="Black-S" transform="matrix(1 0 0 1 2879.74 696)">
   <path d="M 25.4395 6.00586 C 28.3203 8.20312 31.8359 7.61719 35.4492 4.93164 L 53.6621 -8.44727 L 71.8262 4.93164 C 75.4883 7.61719 79.0039 8.20312 81.8848 6.00586 C 84.7168 3.85742 85.3027 0.292969 83.8867 -3.80859 L 76.6602 -25.1465 L 95.0195 -38.2812 C 98.6328 -40.8691 100.293 -44.043 99.1211 -47.4609 C 97.9492 -50.8789 94.7754 -52.4902 90.3809 -52.4414 L 67.9199 -52.2461 L 61.084 -73.7793 C 59.7168 -78.0273 57.2266 -80.5176 53.6621 -80.5176 C 50.0977 -80.5176 47.6074 -78.0273 46.2402 -73.7793 L 39.4043 -52.2461 L 16.8945 -52.4414 C 12.5488 -52.4902 9.375 -50.8789 8.20312 -47.5098 C 6.98242 -44.043 8.69141 -40.8691 12.3047 -38.2812 L 30.6641 -25.1465 L 23.4375 -3.80859 C 22.0215 0.292969 22.6074 3.85742 25.4395 6.00586 Z M 38.1348 -11.4258 C 38.0859 -11.4746 38.0371 -11.5234 38.0859 -11.6699 L 43.6523 -25.5371 C 44.9707 -29.248 45.0684 -30.3223 41.4062 -32.666 L 28.8086 -40.7227 C 28.7109 -40.7715 28.6621 -40.8691 28.6621 -40.918 C 28.6621 -40.9668 28.7598 -41.0156 28.9062 -41.0156 L 43.7988 -40.0391 C 47.7539 -39.9414 48.877 -40.5273 49.8535 -44.3359 L 53.5156 -58.7891 C 53.5645 -58.9355 53.6133 -58.9844 53.6621 -58.9844 C 53.7109 -58.9844 53.7598 -58.9355 53.8086 -58.7891 L 57.4707 -44.3359 C 58.4473 -40.5273 59.5703 -39.9414 63.5742 -40.0391 L 78.4668 -41.0156 C 78.6133 -41.0156 78.7109 -40.9668 78.7109 -40.918 C 78.7109 -40.8691 78.6621 -40.8203 78.5645 -40.7227 L 65.918 -32.6172 C 62.3047 -30.2734 62.3535 -29.248 63.6719 -25.5371 L 69.2383 -11.6699 C 69.2871 -11.5234 69.2383 -11.4746 69.1895 -11.4258 C 69.1406 -11.377 69.0918 -11.4258 68.9941 -11.4746 L 57.4707 -21.0449 C 54.248 -23.5352 53.0762 -23.5352 49.8535 -21.0449 L 38.3301 -11.4746 C 38.2324 -11.4258 38.1836 -11.377 38.1348 -11.4258 Z"/>
  </g>
  <g id="Heavy-S" transform="matrix(1 0 0 1 2583.71 696)">
   <path d="M 25.1465 5.46875 C 27.7832 7.4707 31.0059 6.88477 34.375 4.39453 L 52.9785 -9.27734 L 71.5332 4.39453 C 74.9512 6.88477 78.1738 7.4707 80.8105 5.46875 C 83.3984 3.51562 83.8867 0.292969 82.5684 -3.56445 L 75.1953 -25.3906 L 93.9453 -38.8184 C 97.3145 -41.2598 98.877 -44.1406 97.8027 -47.2656 C 96.7285 -50.3418 93.8477 -51.8066 89.6973 -51.7578 L 66.748 -51.5625 L 59.7656 -73.584 C 58.4961 -77.5391 56.25 -79.834 52.9785 -79.834 C 49.7559 -79.834 47.4609 -77.5391 46.1914 -73.584 L 39.209 -51.5625 L 16.2109 -51.7578 C 12.1094 -51.8066 9.22852 -50.3418 8.1543 -47.2656 C 7.08008 -44.1406 8.64258 -41.2598 12.0117 -38.8184 L 30.7617 -25.3906 L 23.3887 -3.56445 C 22.0703 0.292969 22.6074 3.51562 25.1465 5.46875 Z M 36.377 -9.91211 C 36.3281 -9.96094 36.2793 -10.0098 36.3281 -10.1562 L 42.334 -25.7324 C 43.5059 -28.9551 43.5059 -30.0781 40.332 -32.1289 L 26.3672 -41.2598 C 26.2695 -41.3086 26.2207 -41.4062 26.2207 -41.4551 C 26.2207 -41.5039 26.3184 -41.5527 26.4648 -41.5527 L 43.1152 -40.7227 C 46.5332 -40.625 47.6562 -41.2109 48.5352 -44.5312 L 52.832 -60.6445 C 52.8809 -60.791 52.9297 -60.8398 52.9785 -60.8398 C 53.0273 -60.8398 53.0762 -60.791 53.125 -60.6445 L 57.4219 -44.5312 C 58.3008 -41.2109 59.4238 -40.625 62.8906 -40.7227 L 79.541 -41.5527 C 79.6875 -41.5527 79.7852 -41.5039 79.7852 -41.4551 C 79.7852 -41.4062 79.7363 -41.3574 79.6387 -41.2598 L 65.625 -32.0801 C 62.5 -30.0293 62.5 -28.9551 63.623 -25.7324 L 69.6289 -10.1562 C 69.6777 -10.0098 69.6289 -9.96094 69.5801 -9.91211 C 69.5312 -9.86328 69.4824 -9.91211 69.3848 -9.96094 L 56.3965 -20.5078 C 53.6133 -22.6562 52.3438 -22.6562 49.5605 -20.5078 L 36.5723 -9.96094 C 36.4746 -9.91211 36.4258 -9.86328 36.377 -9.91211 Z"/>
  </g>
  <g id="Bold-S" transform="matrix(1 0 0 1 2287.76 696)">
   <path d="M 24.8535 4.88281 C 27.1973 6.64062 30.0781 6.10352 33.1543 3.80859 L 52.1973 -10.2051 L 71.2402 3.80859 C 74.3652 6.10352 77.2461 6.64062 79.5898 4.88281 C 81.8848 3.125 82.3242 0.244141 81.1035 -3.32031 L 73.5352 -25.6836 L 92.7734 -39.4531 C 95.8984 -41.6504 97.2656 -44.2383 96.3379 -47.0215 C 95.4102 -49.7559 92.7734 -51.0742 88.9648 -51.0254 L 65.4297 -50.8301 L 58.3008 -73.3398 C 57.1289 -77.002 55.127 -79.1016 52.1973 -79.1016 C 49.3164 -79.1016 47.3145 -77.002 46.1426 -73.3398 L 38.9648 -50.8301 L 15.4297 -51.0254 C 11.6211 -51.0742 9.0332 -49.7559 8.10547 -47.0215 C 7.12891 -44.2383 8.54492 -41.6504 11.6699 -39.4531 L 30.9082 -25.6836 L 23.3398 -3.32031 C 22.1191 0.244141 22.5586 3.125 24.8535 4.88281 Z M 34.4238 -8.20312 C 34.3262 -8.30078 34.3262 -8.30078 34.375 -8.49609 L 40.8691 -25.9766 C 41.7969 -28.6621 41.6992 -29.834 39.1602 -31.4941 L 23.6328 -41.8457 C 23.4863 -41.8945 23.4375 -41.9922 23.4863 -42.041 C 23.4863 -42.1387 23.584 -42.1875 23.7305 -42.1875 L 42.3828 -41.4551 C 45.2148 -41.3574 46.2891 -41.9922 47.0703 -44.7754 L 52.0508 -62.6953 C 52.0996 -62.8906 52.1484 -62.9395 52.1973 -62.9395 C 52.2949 -62.9395 52.3438 -62.8906 52.3926 -62.6953 L 57.373 -44.7754 C 58.1055 -41.9922 59.2285 -41.3574 62.1094 -41.4551 L 80.7129 -42.1875 C 80.8594 -42.1875 80.957 -42.1387 80.957 -42.041 C 81.0059 -41.9922 80.957 -41.9434 80.8105 -41.8457 L 65.2832 -31.4941 C 62.7441 -29.7852 62.5977 -28.6621 63.5742 -25.9766 L 70.0684 -8.49609 C 70.1172 -8.30078 70.0684 -8.30078 70.0195 -8.20312 C 69.9707 -8.1543 69.9219 -8.20312 69.7754 -8.25195 L 55.1758 -19.873 C 52.8809 -21.6309 51.5625 -21.6309 49.2676 -19.873 L 34.668 -8.25195 C 34.5215 -8.20312 34.4727 -8.1543 34.4238 -8.20312 Z"/>
  </g>
  <g id="Semibold-S" transform="matrix(1 0 0 1 1991.58 696)">
   <path d="M 24.6582 4.44336 C 26.7578 6.10352 29.3945 5.56641 32.3242 3.41797 L 51.709 -10.8398 L 71.0449 3.41797 C 73.9746 5.56641 76.6113 6.10352 78.7598 4.44336 C 80.8594 2.88086 81.25 0.244141 80.0781 -3.17383 L 72.4121 -25.8789 L 91.9434 -39.8926 C 94.873 -41.9434 96.1914 -44.3359 95.3125 -46.875 C 94.4824 -49.3652 92.0898 -50.5371 88.4766 -50.4883 L 64.5508 -50.3418 L 57.2754 -73.1934 C 56.1523 -76.6602 54.3457 -78.5645 51.709 -78.5645 C 49.0234 -78.5645 47.2168 -76.6602 46.0938 -73.1934 L 38.8184 -50.3418 L 14.8926 -50.4883 C 11.3281 -50.5371 8.93555 -49.3652 8.05664 -46.875 C 7.17773 -44.3359 8.49609 -41.9434 11.4258 -39.8926 L 30.957 -25.8789 L 23.291 -3.17383 C 22.1191 0.244141 22.5586 2.88086 24.6582 4.44336 Z M 33.0566 -7.03125 C 33.0078 -7.12891 32.959 -7.17773 33.0078 -7.32422 L 39.8438 -26.123 C 40.6738 -28.418 40.5273 -29.6387 38.3301 -31.0547 L 21.7285 -42.2363 C 21.6309 -42.334 21.5332 -42.3828 21.582 -42.4805 C 21.6309 -42.5781 21.6797 -42.5781 21.875 -42.5781 L 41.8457 -41.9434 C 44.2871 -41.8945 45.3613 -42.5293 46.0449 -44.9219 L 51.5137 -64.1113 C 51.5625 -64.3066 51.6113 -64.3555 51.709 -64.3555 C 51.7578 -64.3555 51.8066 -64.3066 51.8555 -64.1113 L 57.3242 -44.9219 C 58.0078 -42.5293 59.1309 -41.8945 61.5723 -41.9434 L 81.4941 -42.5781 C 81.6895 -42.5781 81.7871 -42.5781 81.7871 -42.4805 C 81.8359 -42.3828 81.7871 -42.334 81.6406 -42.2363 L 65.0391 -31.0547 C 62.8906 -29.6387 62.6953 -28.418 63.5254 -26.123 L 70.3613 -7.32422 C 70.4102 -7.17773 70.4102 -7.12891 70.3613 -7.03125 C 70.2637 -6.98242 70.2148 -7.03125 70.0684 -7.12891 L 54.3457 -19.4824 C 52.3926 -20.9473 50.9766 -20.9473 49.0723 -19.4824 L 33.3008 -7.12891 C 33.1543 -7.03125 33.1055 -6.98242 33.0566 -7.03125 Z"/>
  </g>
  <g id="Medium-S" transform="matrix(1 0 0 1 1695.26 696)">
   <path d="M 24.4629 4.15039 C 26.4648 5.66406 28.9062 5.12695 31.6895 3.07617 L 51.2695 -11.3281 L 70.8496 3.07617 C 73.6816 5.12695 76.123 5.66406 78.125 4.15039 C 80.0293 2.68555 80.4199 0.195312 79.3457 -3.02734 L 71.5332 -26.0254 L 91.3086 -40.1855 C 94.0918 -42.1875 95.3125 -44.3848 94.5312 -46.7285 C 93.75 -49.0723 91.5039 -50.1465 88.0859 -50.0977 L 63.8672 -49.9512 L 56.4941 -73.0957 C 55.4199 -76.3672 53.7598 -78.1738 51.2695 -78.1738 C 48.8281 -78.1738 47.1191 -76.3672 46.0938 -73.0957 L 38.7207 -49.9512 L 14.502 -50.0977 C 11.084 -50.1465 8.83789 -49.0723 8.05664 -46.7285 C 7.22656 -44.3848 8.44727 -42.1875 11.2793 -40.1855 L 31.0059 -26.0254 L 23.2422 -3.02734 C 22.168 0.195312 22.5098 2.68555 24.4629 4.15039 Z M 32.0312 -6.15234 C 31.9336 -6.25 31.9336 -6.25 31.9824 -6.44531 L 39.1113 -26.2695 C 39.7949 -28.2715 39.5996 -29.4922 37.6953 -30.7617 L 20.3125 -42.5293 C 20.166 -42.627 20.1172 -42.7246 20.166 -42.7734 C 20.2148 -42.8711 20.2637 -42.9199 20.459 -42.9199 L 41.4551 -42.334 C 43.5547 -42.2852 44.6777 -42.9199 45.2637 -45.0195 L 51.0742 -65.1855 C 51.1719 -65.3809 51.2207 -65.4297 51.2695 -65.4297 C 51.3672 -65.4297 51.416 -65.3809 51.4648 -65.1855 L 57.3242 -45.0195 C 57.9102 -42.9199 59.0332 -42.2852 61.1328 -42.334 L 82.1289 -42.9199 C 82.3242 -42.9199 82.373 -42.8711 82.4219 -42.7734 C 82.4707 -42.7246 82.4219 -42.6758 82.2754 -42.5293 L 64.8926 -30.7617 C 62.9883 -29.4922 62.793 -28.2715 63.4766 -26.2695 L 70.5566 -6.44531 C 70.6055 -6.25 70.6055 -6.25 70.5566 -6.15234 C 70.5078 -6.10352 70.4102 -6.15234 70.2637 -6.20117 L 53.7109 -19.1406 C 52.002 -20.459 50.5859 -20.459 48.877 -19.1406 L 32.2754 -6.20117 C 32.1777 -6.15234 32.0801 -6.10352 32.0312 -6.15234 Z"/>
  </g>
  <g id="Regular-S" transform="matrix(1 0 0 1 1399.06 696)">
   <path d="M 24.2676 3.71094 C 26.0742 5.07812 28.2715 4.58984 30.8594 2.68555 L 50.7812 -11.9141 L 70.6543 2.68555 C 73.291 4.58984 75.4883 5.07812 77.2949 3.71094 C 79.0527 2.39258 79.3457 0.195312 78.3203 -2.83203 L 70.4102 -26.2207 L 90.5273 -40.625 C 93.1152 -42.4805 94.2383 -44.4336 93.5547 -46.582 C 92.8223 -48.6328 90.8203 -49.6582 87.5977 -49.6094 L 62.9883 -49.4141 L 55.5176 -72.9492 C 54.4922 -76.0254 52.9785 -77.6855 50.7812 -77.6855 C 48.5352 -77.6855 47.0215 -76.0254 46.0449 -72.9492 L 38.5742 -49.4141 L 13.9648 -49.6094 C 10.7422 -49.6582 8.69141 -48.6328 8.00781 -46.582 C 7.27539 -44.4336 8.39844 -42.4805 11.0352 -40.625 L 31.1035 -26.2207 L 23.1934 -2.83203 C 22.168 0.195312 22.5098 2.39258 24.2676 3.71094 Z M 30.6641 -5.0293 C 30.6152 -5.12695 30.6152 -5.12695 30.6641 -5.32227 L 38.0859 -26.416 C 38.6719 -28.0273 38.3789 -29.3457 36.9141 -30.3223 L 18.457 -42.9688 C 18.3105 -43.0664 18.2617 -43.1152 18.3105 -43.2129 C 18.3594 -43.3105 18.4082 -43.3105 18.6035 -43.3105 L 40.918 -42.8223 C 42.627 -42.7734 43.75 -43.457 44.2383 -45.166 L 50.5859 -66.6016 C 50.6348 -66.7969 50.6836 -66.8457 50.7812 -66.8457 C 50.8789 -66.8457 50.9277 -66.7969 50.9766 -66.6016 L 57.2754 -45.166 C 57.8125 -43.457 58.8867 -42.7734 60.5957 -42.8223 L 82.959 -43.3105 C 83.1543 -43.3105 83.2031 -43.3105 83.252 -43.2129 C 83.3008 -43.1152 83.252 -43.0664 83.1055 -42.9688 L 64.6484 -30.3223 C 63.1836 -29.3457 62.8906 -28.0273 63.4277 -26.416 L 70.8496 -5.32227 C 70.9473 -5.12695 70.9473 -5.12695 70.8984 -5.0293 C 70.8008 -4.93164 70.7031 -4.98047 70.5566 -5.07812 L 52.8809 -18.7012 C 51.5137 -19.7754 50 -19.7754 48.6816 -18.7012 L 30.957 -5.07812 C 30.8105 -4.98047 30.7129 -4.93164 30.6641 -5.0293 Z"/>
  </g>
  <g id="Light-S" transform="matrix(1 0 0 1 1103.26 696)">
   <path d="M 23.9258 3.02734 C 25.3906 4.10156 27.1484 3.75977 29.3457 2.19727 L 49.8535 -12.8906 L 70.4102 2.19727 C 72.6074 3.75977 74.3652 4.10156 75.8301 3.02734 C 77.2461 1.95312 77.5391 0.195312 76.6602 -2.34375 L 68.6035 -26.5137 L 89.3066 -41.4062 C 91.5039 -42.9688 92.334 -44.5801 91.7969 -46.2891 C 91.2109 -47.9492 89.5996 -48.7793 86.9141 -48.7793 L 61.4746 -48.6328 L 53.7598 -72.9004 C 52.9297 -75.4395 51.6602 -76.709 49.8535 -76.709 C 48.0957 -76.709 46.8262 -75.4395 45.9961 -72.9004 L 38.2812 -48.6328 L 12.8418 -48.7793 C 10.1562 -48.7793 8.54492 -47.9492 7.95898 -46.2891 C 7.42188 -44.5801 8.25195 -42.9688 10.4492 -41.4062 L 31.1523 -26.5137 L 23.0469 -2.34375 C 22.2168 0.195312 22.5098 1.95312 23.9258 3.02734 Z M 28.7109 -3.56445 C 28.6621 -3.66211 28.6621 -3.71094 28.7598 -3.95508 L 36.4746 -26.4648 C 36.9629 -27.832 36.6699 -28.9551 35.4492 -29.834 L 15.918 -43.4082 C 15.7227 -43.5547 15.625 -43.6523 15.6738 -43.75 C 15.7227 -43.8477 15.8203 -43.8477 16.0645 -43.8477 L 39.8926 -43.5059 C 41.3574 -43.5059 42.2852 -44.0918 42.7246 -45.5078 L 49.6094 -68.3105 C 49.707 -68.5547 49.7559 -68.6523 49.8535 -68.6523 C 50 -68.6523 50.0488 -68.5547 50.1465 -68.3105 L 57.0312 -45.5078 C 57.4707 -44.0918 58.3984 -43.5059 59.8633 -43.5059 L 83.6914 -43.8477 C 83.9355 -43.8477 84.0332 -43.8477 84.082 -43.75 C 84.1309 -43.6523 84.0332 -43.5547 83.8379 -43.4082 L 64.3066 -29.834 C 63.0859 -28.9551 62.793 -27.832 63.2812 -26.4648 L 70.9961 -3.95508 C 71.0938 -3.71094 71.0938 -3.66211 71.0449 -3.56445 C 70.9473 -3.4668 70.8008 -3.51562 70.6055 -3.66211 L 51.6602 -18.0176 C 50.5371 -18.8965 49.2188 -18.8965 48.0957 -18.0176 L 29.1504 -3.66211 C 28.9062 -3.51562 28.8086 -3.4668 28.7109 -3.56445 Z"/>
  </g>
  <g id="Thin-S" transform="matrix(1 0 0 1 807.716 696)">
   <path d="M 23.5352 2.05078 C 24.5117 2.7832 25.6836 2.63672 27.2949 1.51367 L 48.6816 -14.1602 L 70.1172 1.51367 C 71.7285 2.63672 72.9004 2.7832 73.877 2.05078 C 74.8535 1.36719 75.1465 0.195312 74.5117 -1.70898 L 66.2109 -26.9043 L 87.7441 -42.4316 C 89.3555 -43.6035 89.8438 -44.7266 89.4531 -45.8496 C 89.1113 -46.9727 88.0371 -47.6562 86.0352 -47.6562 L 59.5215 -47.5586 L 51.416 -72.8027 C 50.7812 -74.707 49.9023 -75.4883 48.6816 -75.4883 C 47.5098 -75.4883 46.582 -74.707 45.9961 -72.8027 L 37.8418 -47.5586 L 11.3281 -47.6562 C 9.32617 -47.6562 8.30078 -46.9727 7.95898 -45.8496 C 7.56836 -44.7266 8.05664 -43.6035 9.61914 -42.4316 L 31.1523 -26.9043 L 22.9004 -1.70898 C 22.2168 0.195312 22.5586 1.36719 23.5352 2.05078 Z M 26.1719 -1.61133 C 26.0742 -1.70898 26.123 -1.80664 26.2207 -2.14844 L 34.375 -26.5137 C 34.7168 -27.5879 34.4727 -28.4668 33.4961 -29.1504 L 12.5488 -44.043 C 12.3047 -44.1895 12.207 -44.3359 12.2559 -44.4824 C 12.3047 -44.5801 12.4512 -44.5801 12.7441 -44.5801 L 38.5254 -44.3848 C 39.5996 -44.3848 40.332 -44.873 40.6738 -45.9961 L 48.3887 -70.5078 C 48.4863 -70.8008 48.584 -70.9961 48.6816 -70.9961 C 48.8281 -70.9961 48.9258 -70.8008 49.0234 -70.5078 L 56.6895 -45.9961 C 57.0801 -44.873 57.7637 -44.3848 58.8867 -44.3848 L 84.6191 -44.5801 C 84.9609 -44.5801 85.1074 -44.5801 85.1562 -44.4824 C 85.2051 -44.3359 85.0586 -44.1895 84.8145 -44.043 L 63.916 -29.1504 C 62.9395 -28.4668 62.6953 -27.5879 63.0371 -26.5137 L 71.1914 -2.14844 C 71.2402 -1.80664 71.3379 -1.70898 71.1914 -1.61133 C 71.0938 -1.51367 70.9473 -1.61133 70.7031 -1.75781 L 50.0977 -17.0898 C 49.1699 -17.7734 48.1934 -17.7734 47.3145 -17.0898 L 26.709 -1.75781 C 26.416 -1.61133 26.3184 -1.51367 26.1719 -1.61133 Z"/>
  </g>
  <g id="Ultralight-S" transform="matrix(1 0 0 1 511.615 696)">
   <path d="M 23.291 1.5625 C 24.0234 2.09961 24.9512 2.09961 26.2207 1.17188 L 48.0957 -14.8438 L 69.9707 1.17188 C 71.2402 2.09961 72.168 2.09961 72.9004 1.5625 C 73.6328 1.02539 73.9258 0.195312 73.3887 -1.41602 L 64.9902 -27.0996 L 86.9629 -42.9688 C 88.2324 -43.8965 88.5254 -44.8242 88.2812 -45.6543 C 87.9883 -46.4844 87.2559 -47.0703 85.5957 -47.0703 L 58.5449 -47.0215 L 50.2441 -72.7539 C 49.707 -74.3164 48.9746 -74.8535 48.0957 -74.8535 C 47.168 -74.8535 46.4844 -74.3164 45.9473 -72.7539 L 37.6465 -47.0215 L 10.5957 -47.0703 C 8.93555 -47.0703 8.20312 -46.4844 7.91016 -45.6543 C 7.66602 -44.8242 7.95898 -43.8965 9.22852 -42.9688 L 31.2012 -27.0996 L 22.7539 -1.41602 C 22.2656 0.195312 22.5586 1.02539 23.291 1.5625 Z M 24.8535 -0.634766 C 24.707 -0.732422 24.8047 -0.878906 24.9023 -1.17188 L 33.252 -26.5625 C 33.5449 -27.4414 33.3008 -28.2227 32.5195 -28.8086 L 10.8398 -44.3848 C 10.5469 -44.5312 10.4004 -44.6777 10.4492 -44.8242 C 10.498 -44.9707 10.6934 -44.9707 11.0352 -44.9707 L 37.793 -44.873 C 38.7207 -44.873 39.3555 -45.3125 39.6484 -46.2402 L 47.7539 -71.6797 C 47.8516 -71.9727 47.9492 -72.168 48.0957 -72.168 C 48.2422 -72.168 48.3398 -71.9727 48.4375 -71.6797 L 56.543 -46.2402 C 56.8359 -45.3125 57.4707 -44.873 58.3496 -44.873 L 85.1562 -44.9707 C 85.498 -44.9707 85.6445 -44.9707 85.6934 -44.8242 C 85.7422 -44.6777 85.5957 -44.5312 85.3516 -44.3848 L 63.6719 -28.8086 C 62.8418 -28.2227 62.5977 -27.4414 62.9395 -26.5625 L 71.2891 -1.17188 C 71.3867 -0.878906 71.4355 -0.732422 71.3379 -0.634766 C 71.1914 -0.537109 71.0449 -0.634766 70.752 -0.830078 L 49.2676 -16.6016 C 48.4863 -17.1875 47.6562 -17.1875 46.9238 -16.6016 L 25.4395 -0.830078 C 25.1465 -0.634766 25 -0.537109 24.8535 -0.634766 Z"/>
  </g>
 </g>
</svg>
